<svg width="26" height="27" viewBox="0 0 26 27" fill="none" xmlns="http://www.w3.org/2000/svg">
<g id="Frame">
<path id="Subtract" fill-rule="evenodd" clip-rule="evenodd" d="M1.39014 13.1629C1.39014 8.33788 1.39014 5.92535 2.53991 4.18767C3.05334 3.41172 3.71787 2.74718 4.49383 2.23375C6.2315 1.08398 8.64403 1.08398 13.4691 1.08398C18.2941 1.08398 20.7067 1.08398 22.4443 2.23375C23.2203 2.74718 23.8848 3.41172 24.3983 4.18767C25.548 5.92535 25.548 8.33788 25.548 13.1629C25.548 17.988 25.548 20.4005 24.3983 22.1382C23.8848 22.9141 23.2203 23.5787 22.4443 24.0921C20.7067 25.2419 18.2941 25.2419 13.4691 25.2419C8.64403 25.2419 6.2315 25.2419 4.49383 24.0921C3.71787 23.5787 3.05334 22.9141 2.53991 22.1382C1.39014 20.4005 1.39014 17.988 1.39014 13.1629ZM19.7224 13.1631C19.7224 16.6168 16.9226 19.4165 13.4689 19.4165C10.0153 19.4165 7.21552 16.6168 7.21552 13.1631C7.21552 9.70942 10.0153 6.90967 13.4689 6.90967C16.9226 6.90967 19.7224 9.70942 19.7224 13.1631ZM13.4689 17.3008C15.7541 17.3008 17.6067 15.4483 17.6067 13.1631C17.6067 10.8779 15.7541 9.02537 13.4689 9.02537C11.1837 9.02537 9.33122 10.8779 9.33122 13.1631C9.33122 15.4483 11.1837 17.3008 13.4689 17.3008ZM19.7499 8.0542C20.5783 8.0542 21.2499 7.38263 21.2499 6.5542C21.2499 5.72577 20.5783 5.0542 19.7499 5.0542C18.9214 5.0542 18.2499 5.72577 18.2499 6.5542C18.2499 7.38263 18.9214 8.0542 19.7499 8.0542Z" fill="#F5F5F5"/>
</g>
</svg>
