<svg width="26" height="21" viewBox="0 0 26 21" fill="none" xmlns="http://www.w3.org/2000/svg">
<g id="Frame">
<path id="Vector" d="M17.5318 0.678531V0.674316H18.6646L19.0785 0.754386C19.3544 0.806368 19.6049 0.87449 19.83 0.958774C20.0551 1.04306 20.2729 1.1414 20.4835 1.25377C20.6941 1.36614 20.885 1.48064 21.0564 1.59722C21.2263 1.71242 21.3788 1.83463 21.5139 1.96386C21.6474 2.0945 21.8559 2.12821 22.139 2.065C22.4222 2.00179 22.7272 1.91398 23.0539 1.80161C23.3807 1.68924 23.7038 1.56281 24.0233 1.42233C24.3428 1.28185 24.5374 1.19266 24.6071 1.15473C24.6754 1.11542 24.7117 1.09434 24.716 1.09152L24.7204 1.0852L24.7422 1.07466L24.7639 1.06413L24.7857 1.05359L24.8075 1.04306L24.8119 1.03674L24.8184 1.03252L24.825 1.02831L24.8293 1.02199L24.8511 1.01567L24.8729 1.01145L24.8685 1.04306L24.862 1.07466L24.8511 1.10627L24.8402 1.13788L24.8293 1.15895L24.8184 1.18002L24.8075 1.21163C24.8003 1.2327 24.793 1.26078 24.7857 1.29591C24.7785 1.33103 24.7095 1.47149 24.5788 1.71733C24.4481 1.96316 24.2847 2.21249 24.0887 2.46535C23.8926 2.7182 23.7169 2.90923 23.5615 3.03847C23.4047 3.16911 23.3008 3.26041 23.25 3.3124C23.1992 3.36577 23.1375 3.41493 23.0648 3.45989L22.9559 3.52943L22.9341 3.53996L22.9123 3.5505L22.908 3.55682L22.9015 3.56103L22.8949 3.56525L22.8906 3.57157L22.8688 3.5821L22.847 3.59264L22.8427 3.59896L22.8361 3.60318L22.8296 3.60739L22.8252 3.61371L22.8209 3.62003L22.8143 3.62425L22.8078 3.62846L22.8034 3.63478H22.9123L23.5223 3.50836C23.9289 3.42407 24.3174 3.32224 24.6877 3.20283L25.2759 3.01319L25.3412 2.99212L25.3739 2.98158L25.3957 2.97105L25.4175 2.96051L25.4392 2.94998L25.461 2.93944L25.5046 2.93312L25.5482 2.92891V2.97105L25.5373 2.97526L25.5264 2.98158L25.522 2.9879L25.5155 2.99212L25.5089 2.99633L25.5046 3.00265L25.5003 3.00898L25.4937 3.01319L25.4872 3.0174L25.4828 3.02373L25.4785 3.03005L25.4719 3.03426L25.461 3.05533L25.4501 3.0764L25.4436 3.08062C25.4407 3.08483 25.3485 3.20422 25.1669 3.43882C24.9854 3.67482 24.8874 3.7942 24.8729 3.79703C24.8584 3.80124 24.838 3.82231 24.8119 3.86024C24.7872 3.89956 24.6332 4.0562 24.3501 4.33012C24.0669 4.60405 23.7895 4.84775 23.518 5.06128C23.2449 5.27621 23.107 5.54029 23.1041 5.85355C23.0997 6.1654 23.083 6.518 23.0539 6.91131C23.0249 7.30464 22.9704 7.72956 22.8906 8.1861C22.8107 8.64265 22.6873 9.15889 22.5202 9.73482C22.3533 10.3107 22.1499 10.8726 21.9103 11.4205C21.6707 11.9683 21.4202 12.46 21.1588 12.8955C20.8974 13.3309 20.6578 13.6997 20.4399 14.0017C20.2221 14.3037 20.0006 14.5881 19.7755 14.8551C19.5504 15.122 19.2658 15.4226 18.9216 15.7569C18.576 16.0898 18.3872 16.2724 18.3553 16.3047C18.3219 16.3356 18.1796 16.4508 17.9283 16.6503C17.6785 16.8512 17.4098 17.052 17.1223 17.2529C16.8362 17.4524 16.5734 17.6189 16.3337 17.7523C16.0941 17.8857 15.8051 18.0382 15.4668 18.2095C15.1298 18.3823 14.7653 18.5425 14.3732 18.69C13.9811 18.8375 13.5672 18.9744 13.1316 19.1008C12.6959 19.2273 12.2748 19.3256 11.8681 19.3958C11.4615 19.4661 11.0004 19.5258 10.4849 19.5749L9.71155 19.6487V19.6592H8.29563V19.6487L8.11047 19.6382C7.98704 19.6311 7.88538 19.6241 7.8055 19.6171C7.72564 19.6101 7.42429 19.5714 6.90148 19.5012C6.37868 19.431 5.96843 19.3607 5.67072 19.2905C5.37302 19.2203 4.93008 19.0868 4.34192 18.8901C3.75377 18.6935 3.25057 18.4947 2.83233 18.2938C2.41554 18.0944 2.15414 17.9679 2.04812 17.9146C1.94356 17.8626 1.82593 17.798 1.69523 17.7207L1.49918 17.6048L1.49484 17.5985L1.48828 17.5943L1.48175 17.5901L1.47739 17.5837L1.45561 17.5732L1.43383 17.5627L1.42949 17.5563L1.42293 17.5521L1.4164 17.5479L1.41204 17.5416L1.40771 17.5353L1.40115 17.5311H1.39026V17.4889L1.41204 17.4931L1.43383 17.4995L1.53185 17.51C1.5972 17.517 1.77511 17.5275 2.06555 17.5416C2.35601 17.5557 2.66459 17.5557 2.99135 17.5416C3.3181 17.5275 3.65213 17.4959 3.99339 17.4468C4.33467 17.3976 4.73766 17.3133 5.20237 17.1939C5.6671 17.0745 6.09406 16.9326 6.48326 16.7683C6.87101 16.6025 7.14692 16.4789 7.31103 16.3974C7.47367 16.3174 7.722 16.1685 8.05601 15.9507L8.55703 15.6241L8.56139 15.6178L8.56792 15.6136L8.57448 15.6094L8.57881 15.6031L8.58317 15.5968L8.5897 15.5925L8.59626 15.5883L8.60059 15.582L8.62238 15.5757L8.64416 15.5715L8.64852 15.5504L8.65505 15.5293L8.66161 15.5251L8.66595 15.5188L8.49168 15.5083C8.37551 15.5012 8.26295 15.4942 8.15403 15.4872C8.04512 15.4802 7.87449 15.4486 7.64212 15.3924C7.40978 15.3362 7.15927 15.2519 6.89059 15.1395C6.62193 15.0271 6.36053 14.8937 6.10639 14.7392C5.85226 14.5847 5.66854 14.4561 5.55526 14.3536C5.44345 14.2524 5.29822 14.1091 5.11959 13.9237C4.94243 13.7369 4.78848 13.5451 4.65778 13.3485C4.52708 13.1518 4.4022 12.9249 4.28313 12.6679L4.1023 12.2844L4.09141 12.2528L4.08052 12.2212L4.07399 12.2001L4.06963 12.179L4.1023 12.1833L4.13498 12.1896L4.3746 12.2212C4.53436 12.2423 4.78487 12.2493 5.12613 12.2423C5.46741 12.2352 5.70339 12.2212 5.83409 12.2001C5.96479 12.179 6.04467 12.165 6.07371 12.158L6.11728 12.1474L6.17174 12.1369L6.22619 12.1264L6.23055 12.12L6.23709 12.1158L6.24364 12.1116L6.24798 12.1053L6.20441 12.0948L6.16084 12.0842L6.11728 12.0737L6.07371 12.0632L6.03014 12.0526C6.00111 12.0456 5.95028 12.0315 5.87766 12.0105C5.80505 11.9894 5.609 11.9121 5.2895 11.7787C4.97003 11.6453 4.71588 11.5153 4.52708 11.3889C4.33782 11.2621 4.15735 11.1234 3.98685 10.9738C3.81694 10.8221 3.63034 10.6268 3.42702 10.388C3.22371 10.1492 3.04219 9.87178 2.88243 9.55571C2.72269 9.23965 2.60288 8.93764 2.523 8.64966C2.44344 8.36338 2.39095 8.0707 2.36618 7.77522L2.32695 7.33273L2.34873 7.33695L2.37052 7.34327L2.3923 7.3538L2.41408 7.36434L2.43587 7.37487L2.45765 7.38541L2.79529 7.5329C3.0204 7.63124 3.29995 7.71553 3.63396 7.78576C3.96799 7.85599 4.16765 7.89463 4.233 7.90165L4.33103 7.91218H4.52708L4.52275 7.90586L4.51619 7.90165L4.50965 7.89743L4.5053 7.89111L4.50096 7.88479L4.49441 7.88057L4.48787 7.87636L4.48351 7.87004L4.46173 7.8595L4.43995 7.84897L4.43561 7.84265L4.42906 7.83843L4.42252 7.83422L4.41816 7.8279L4.39638 7.81736L4.3746 7.80683L4.37026 7.80051C4.36591 7.79768 4.30345 7.75274 4.1829 7.66565C4.06381 7.57715 3.93893 7.46268 3.80823 7.3222C3.67753 7.18172 3.54682 7.03422 3.41612 6.87971C3.28518 6.72484 3.16856 6.55915 3.06759 6.38454C2.96595 6.20895 2.85847 5.98558 2.74519 5.71448C2.63338 5.44478 2.54842 5.17296 2.49033 4.89904C2.43225 4.62512 2.39958 4.35471 2.3923 4.08781C2.38505 3.8209 2.3923 3.59264 2.41408 3.403C2.43587 3.21336 2.47943 2.99914 2.54478 2.76034C2.61013 2.52154 2.70454 2.26869 2.82797 2.00179L3.01313 1.60144L3.02402 1.56983L3.03491 1.53822L3.04147 1.53401L3.0458 1.52769L3.05016 1.52137L3.0567 1.51715L3.06325 1.52137L3.06759 1.52769L3.07194 1.53401L3.07848 1.53822L3.08504 1.54244L3.08937 1.54876L3.09373 1.55508L3.10026 1.5593L3.11115 1.58037L3.12205 1.60144L3.1286 1.60565L3.13294 1.61197L3.42702 1.92804C3.62307 2.13875 3.85543 2.37405 4.12409 2.63391C4.39276 2.89378 4.54161 3.02863 4.57065 3.03847C4.59971 3.04971 4.636 3.08201 4.67957 3.1354C4.72313 3.18738 4.86836 3.3117 5.11524 3.50836C5.36213 3.70501 5.68525 3.93329 6.0846 4.19316C6.48398 4.45303 6.9269 4.7094 7.41339 4.96225C7.89991 5.2151 8.42271 5.44336 8.98181 5.64706C9.54092 5.85075 9.93303 5.98419 10.1581 6.0474C10.3832 6.11062 10.7681 6.19138 11.3126 6.28972C11.8572 6.38806 12.2675 6.45127 12.5434 6.47936C12.8193 6.50745 13.0081 6.52361 13.1098 6.52782L13.2623 6.53204L13.2579 6.50043L13.2514 6.46882L13.2078 6.20544C13.1788 6.02985 13.1642 5.78402 13.1642 5.46795C13.1642 5.15189 13.1897 4.86041 13.2405 4.59351C13.2913 4.3266 13.3676 4.0562 13.4692 3.78228C13.5709 3.50836 13.6704 3.2885 13.7676 3.12276C13.8664 2.95841 13.9956 2.77087 14.1554 2.56016C14.3151 2.34946 14.5221 2.13173 14.7762 1.90697C15.0304 1.6822 15.3208 1.48203 15.6476 1.30644C15.9743 1.13086 16.2757 0.997397 16.5516 0.906097C16.8275 0.814796 17.0599 0.755081 17.2486 0.726994C17.4374 0.698906 17.5318 0.682745 17.5318 0.678531Z" fill="#F5F5F5"/>
</g>
</svg>
