<svg width="24" height="25" viewBox="0 0 24 25" fill="none" xmlns="http://www.w3.org/2000/svg">
<path d="M21.75 8.24097V16.759C21.75 17.5665 21.3174 18.312 20.6163 18.7126L13.1163 22.9983C12.4246 23.3936 11.5754 23.3936 10.8837 22.9983L3.38369 18.7126C2.68264 18.312 2.25 17.5665 2.25 16.759V8.24097C2.25 7.43354 2.68264 6.68802 3.38369 6.28742L10.8837 2.00171C11.5754 1.60644 12.4246 1.60644 13.1163 2.00171L20.6163 6.28742C21.3174 6.68802 21.75 7.43354 21.75 8.24097Z" stroke="#158FE8" strokeWidth="1.5"/>
<path d="M12.7298 9.07767L13.4396 10.4972C13.5363 10.6947 13.7944 10.8843 14.0122 10.9206L15.2986 11.1343C16.1212 11.2714 16.3148 11.8682 15.722 12.457L14.7219 13.4571C14.5526 13.6265 14.4598 13.9531 14.5122 14.187L14.7985 15.425C15.0244 16.4049 14.5042 16.784 13.6372 16.2718L12.4314 15.5581C12.2136 15.429 11.8547 15.429 11.633 15.5581L10.4272 16.2718C9.56422 16.784 9.03998 16.4009 9.26581 15.425L9.55212 14.187C9.60455 13.9531 9.5118 13.6265 9.34243 13.4571L8.34234 12.457C7.75358 11.8682 7.94311 11.2714 8.76577 11.1343L10.0522 10.9206C10.2659 10.8843 10.524 10.6947 10.6208 10.4972L11.3305 9.07767C11.7176 8.30744 12.3467 8.30744 12.7298 9.07767Z" stroke="#158FE8" stroke-linecap="round" stroke-linejoin="round"/>
</svg>
