<svg width="17" height="18" viewBox="0 0 17 18" fill="none" xmlns="http://www.w3.org/2000/svg">
<path d="M16.6228 7.92896L15.4667 6.58588C15.2457 6.33086 15.0672 5.85483 15.0672 5.51481V4.06972C15.0672 3.16867 14.3276 2.42912 13.4266 2.42912H11.9815C11.65 2.42912 11.1654 2.25061 10.9104 2.0296L9.56734 0.873524C8.98081 0.371993 8.02025 0.371993 7.42521 0.873524L6.09063 2.0381C5.83561 2.25061 5.35108 2.42912 5.01956 2.42912H3.54897C2.64791 2.42912 1.90837 3.16867 1.90837 4.06972V5.52331C1.90837 5.85483 1.72986 6.33086 1.51734 6.58588L0.369773 7.93746C-0.123258 8.524 -0.123258 9.47606 0.369773 10.0626L1.51734 11.4142C1.72986 11.6692 1.90837 12.1452 1.90837 12.4767V13.9303C1.90837 14.8314 2.64791 15.5709 3.54897 15.5709H5.01956C5.35108 15.5709 5.83561 15.7494 6.09063 15.9705L7.43371 17.1265C8.02025 17.6281 8.98081 17.6281 9.57584 17.1265L10.9189 15.9705C11.1739 15.7494 11.65 15.5709 11.99 15.5709H13.4351C14.3361 15.5709 15.0757 14.8314 15.0757 13.9303V12.4852C15.0757 12.1537 15.2542 11.6692 15.4752 11.4142L16.6313 10.0711C17.1243 9.48456 17.1243 8.5155 16.6228 7.92896ZM12.0325 7.39343L7.92674 11.4992C7.80773 11.6182 7.64622 11.6862 7.47621 11.6862C7.3062 11.6862 7.14469 11.6182 7.02569 11.4992L4.96856 9.44205C4.72204 9.19554 4.72204 8.78751 4.96856 8.541C5.21507 8.29448 5.6231 8.29448 5.86961 8.541L7.47621 10.1476L11.1314 6.49237C11.378 6.24586 11.786 6.24586 12.0325 6.49237C12.279 6.73889 12.279 7.14691 12.0325 7.39343Z" fill="#158FE8"/>
</svg>
