<svg width="22" height="22" viewBox="0 0 22 22" fill="none" xmlns="http://www.w3.org/2000/svg">
<g clip-path="url(#clip0_6402_143045)">
<path d="M18.583 18.582H3.41634C3.26163 18.582 3.11326 18.6435 3.00386 18.7529C2.89447 18.8623 2.83301 19.0107 2.83301 19.1654C2.83301 19.3201 2.89447 19.4684 3.00386 19.5778C3.11326 19.6872 3.26163 19.7487 3.41634 19.7487H18.583C18.7377 19.7487 18.8861 19.6872 18.9955 19.5778C19.1049 19.4684 19.1663 19.3201 19.1663 19.1654C19.1663 19.0107 19.1049 18.8623 18.9955 18.7529C18.8861 18.6435 18.7377 18.582 18.583 18.582Z" fill="#F5F5F5"/>
<path d="M11 17.6954L17.1892 11.5062C17.2848 11.3946 17.3347 11.2511 17.329 11.1042C17.3234 10.9574 17.2625 10.8182 17.1586 10.7143C17.0547 10.6104 16.9155 10.5495 16.7686 10.5439C16.6218 10.5382 16.4783 10.5881 16.3667 10.6837L11.5834 15.4612V3.41536C11.5834 3.26065 11.5219 3.11228 11.4125 3.00289C11.3031 2.89349 11.1547 2.83203 11 2.83203C10.8453 2.83203 10.6969 2.89349 10.5875 3.00289C10.4782 3.11228 10.4167 3.26065 10.4167 3.41536V15.4612L5.63919 10.6837C5.5869 10.6226 5.52255 10.573 5.45018 10.538C5.37781 10.503 5.29898 10.4833 5.21864 10.4802C5.13831 10.4771 5.05819 10.4907 4.98334 10.52C4.90848 10.5493 4.8405 10.5938 4.78365 10.6507C4.7268 10.7075 4.68232 10.7755 4.65299 10.8503C4.62366 10.9252 4.61012 11.0053 4.61323 11.0856C4.61633 11.166 4.63601 11.2448 4.67102 11.3172C4.70603 11.3896 4.75563 11.4539 4.81669 11.5062L11 17.6954Z" fill="#F5F5F5"/>
</g>
<defs>
<clipPath id="clip0_6402_143045">
<rect width="21" height="21" fill="white" transform="translate(0.5 0.5)"/>
</clipPath>
</defs>
</svg>
