<svg width="25" height="25" viewBox="0 0 25 25" fill="none" xmlns="http://www.w3.org/2000/svg">
<g id="vuesax/linear/eye-slash">
<g id="eye-slash">
<path id="Vector" d="M15.0299 9.96992L9.96992 15.0299C9.31992 14.3799 8.91992 13.4899 8.91992 12.4999C8.91992 10.5199 10.5199 8.91992 12.4999 8.91992C13.4899 8.91992 14.3799 9.31992 15.0299 9.96992Z" stroke="#96B0BD" stroke-width="1.5" stroke-linecap="round" stroke-linejoin="round"/>
<path id="Vector_2" d="M18.3198 6.27047C16.5698 4.95047 14.5698 4.23047 12.4998 4.23047C8.96984 4.23047 5.67984 6.31047 3.38984 9.91047C2.48984 11.3205 2.48984 13.6905 3.38984 15.1005C4.17984 16.3405 5.09984 17.4105 6.09984 18.2705" stroke="#96B0BD" stroke-width="1.5" stroke-linecap="round" stroke-linejoin="round"/>
<path id="Vector_3" d="M8.91992 20.0297C10.0599 20.5097 11.2699 20.7697 12.4999 20.7697C16.0299 20.7697 19.3199 18.6897 21.6099 15.0897C22.5099 13.6797 22.5099 11.3097 21.6099 9.89969C21.2799 9.37969 20.9199 8.88969 20.5499 8.42969" stroke="#96B0BD" stroke-width="1.5" stroke-linecap="round" stroke-linejoin="round"/>
<path id="Vector_4" d="M16.0099 13.1992C15.7499 14.6092 14.5999 15.7592 13.1899 16.0192" stroke="#96B0BD" stroke-width="1.5" stroke-linecap="round" stroke-linejoin="round"/>
<path id="Vector_5" d="M9.97 15.0293L2.5 22.4993" stroke="#96B0BD" stroke-width="1.5" stroke-linecap="round" stroke-linejoin="round"/>
<path id="Vector_6" d="M22.4998 2.5L15.0298 9.97" stroke="#96B0BD" stroke-width="1.5" stroke-linecap="round" stroke-linejoin="round"/>
</g>
</g>
</svg>
