<svg width="28" height="29" viewBox="0 0 28 29" fill="none" xmlns="http://www.w3.org/2000/svg">
<g clip-path="url(#clip0_27_645)">
<path d="M2.63587 7.35194H0.338013V13.0966H0.349502L0.338013 23.4369C0.338013 24.7008 1.37205 25.7348 2.63587 25.7348H23.3166V23.4369H2.63587V7.35194ZM25.6144 5.05409H16.423L14.1251 2.75623H7.23158C5.96776 2.75623 4.94521 3.79027 4.94521 5.05409L4.93372 18.8412C4.93372 20.105 5.96776 21.1391 7.23158 21.1391H25.6144C26.8782 21.1391 27.9123 20.105 27.9123 18.8412V7.35194C27.9123 6.08812 26.8782 5.05409 25.6144 5.05409ZM8.38051 17.6923L13.5507 10.7987L17.5719 15.9804L20.4442 12.5221L24.4655 17.6923H8.38051Z" fill="#F5F5F5"/>
</g>
<rect x="0.889498" y="1.00991" width="26.4713" height="26.4713" stroke="#353535" strokeWidth="1.10297"/>
<defs>
<clipPath id="clip0_27_645">
<rect x="0.338013" y="0.45842" width="27.5743" height="27.5743" fill="white"/>
</clipPath>
</defs>
</svg>
