<svg width="22" height="25" viewBox="0 0 22 25" fill="none" xmlns="http://www.w3.org/2000/svg">
<path d="M16.0302 3.80114L16.205 3.8999C19.3056 5.65245 21.2228 8.93836 21.2228 12.5C21.2228 16.0617 19.3056 19.3476 16.205 21.1002L16.0302 21.1989C12.9088 22.9632 9.09121 22.9632 5.96978 21.1989L5.58737 21.8755L5.96978 21.1989L5.79504 21.1002C2.69439 19.3476 0.777174 16.0617 0.777174 12.5C0.777174 8.93836 2.69439 5.65244 5.79505 3.8999L5.96979 3.80114C9.09121 2.03685 12.9088 2.03685 16.0302 3.80114Z" stroke="#34E250" strokeWidth="1.55435"/>
<path d="M12.7317 15.4083H8.37987C8.18543 15.4083 7.96783 15.2708 7.90302 15.1042L5.98635 10.2792C5.7132 9.5875 6.03265 9.375 6.69006 9.8L8.49561 10.9625C8.79654 11.15 9.13913 11.0542 9.26876 10.75L10.0836 8.79584C10.3428 8.17084 10.7734 8.17084 11.0326 8.79584L11.8475 10.75C11.9771 11.0542 12.3197 11.15 12.616 10.9625L14.3104 9.875C15.0326 9.40834 15.3799 9.64584 15.0836 10.4L13.2132 15.1125C13.1438 15.2708 12.9262 15.4083 12.7317 15.4083Z" stroke="#34E250" strokeWidth="0.625" strokeLinecap="round" strokeLinejoin="round"/>
<path d="M8.00926 16.6667H13.1019" stroke="#34E250" strokeWidth="0.625" strokeLinecap="round" strokeLinejoin="round"/>
<path d="M9.39815 13.3333H11.713" stroke="#34E250" strokeWidth="0.625" strokeLinecap="round" strokeLinejoin="round"/>
</svg>
