<svg width="21" height="18" viewBox="0 0 21 18" fill="none" xmlns="http://www.w3.org/2000/svg">
<path id="Vector" d="M9.41509 2.7789L10.0156 3.58159L10.6162 2.7789C11.4913 1.60921 12.893 0.849609 14.4556 0.849609C17.1079 0.849609 19.2656 3.01031 19.2656 5.68961C19.2656 6.79804 19.0889 7.82023 18.782 8.76874L18.7805 8.77362C18.0442 11.1037 16.5321 12.9903 14.888 14.4033C13.2406 15.8191 11.5037 16.722 10.394 17.0996L10.394 17.0995L10.386 17.1024C10.3212 17.1252 10.187 17.1496 10.0156 17.1496C9.84424 17.1496 9.71 17.1252 9.64524 17.1024L9.64526 17.1023L9.63721 17.0996C8.52752 16.722 6.79062 15.8191 5.14322 14.4033C3.49911 12.9903 1.98707 11.1037 1.25077 8.77362L1.25079 8.77362L1.24921 8.76874C0.942337 7.82023 0.765625 6.79804 0.765625 5.68961C0.765625 3.01031 2.92334 0.849609 5.57562 0.849609C7.13827 0.849609 8.53999 1.60921 9.41509 2.7789Z" fill="#96B0BD" stroke="#96B0BD" stroke-width="1.5"/>
</svg>
