<svg width="21" height="18" viewBox="0 0 21 18" fill="none" xmlns="http://www.w3.org/2000/svg">
<path d="M9.41497 2.77939L10.0155 3.58208L10.616 2.77939C11.4911 1.60969 12.8929 0.850098 14.4555 0.850098C17.1078 0.850098 19.2655 3.0108 19.2655 5.6901C19.2655 6.79853 19.0888 7.82072 18.7819 8.76923L18.7804 8.77411C18.0441 11.1042 16.532 12.9908 14.8879 14.4038C13.2405 15.8196 11.5036 16.7225 10.3939 17.1001L10.3939 17.1L10.3859 17.1029C10.3211 17.1257 10.1869 17.1501 10.0155 17.1501C9.84412 17.1501 9.70988 17.1257 9.64512 17.1029L9.64514 17.1028L9.63709 17.1001C8.5274 16.7225 6.7905 15.8196 5.1431 14.4038C3.49899 12.9908 1.98695 11.1042 1.25065 8.77411L1.25066 8.77411L1.24909 8.76923C0.942215 7.82072 0.765503 6.79853 0.765503 5.6901C0.765503 3.0108 2.92322 0.850098 5.5755 0.850098C7.13815 0.850098 8.53987 1.60969 9.41497 2.77939Z" stroke="#96B0BD" stroke-width="1.5"/>
</svg>
