<svg width="28" height="29" viewBox="0 0 28 29" fill="none" xmlns="http://www.w3.org/2000/svg">
<g id="Frame">
<path id="Vector" d="M19.5539 25.551C18.9932 25.7886 18.3611 25.7938 17.7966 25.5655C17.2321 25.3371 16.7814 24.8938 16.5437 24.3331C16.306 23.7724 16.3008 23.1403 16.5292 22.5758C16.7576 22.0113 17.2009 21.5606 17.7616 21.3229C18.0392 21.2052 18.3373 21.1434 18.6388 21.1409C18.9403 21.1384 19.2394 21.1953 19.5189 21.3084C19.7984 21.4215 20.0529 21.5885 20.2679 21.8C20.4829 22.0114 20.6541 22.2631 20.7718 22.5408C20.8895 22.8184 20.9513 23.1165 20.9538 23.418C20.9563 23.7195 20.8994 24.0186 20.7863 24.2981C20.6732 24.5776 20.5061 24.8321 20.2947 25.0471C20.0832 25.2621 19.8315 25.4333 19.5539 25.551ZM9.02973 7.35194C10.305 7.35194 11.3276 6.3294 11.3276 5.05409C11.3276 4.44466 11.0855 3.86019 10.6546 3.42926C10.2236 2.99833 9.63916 2.75623 9.02973 2.75623C7.74293 2.75623 6.73187 3.79027 6.73187 5.05409C6.73187 6.3294 7.74293 7.35194 9.02973 7.35194ZM25.6088 19.2319L21.1854 21.1391C21.4381 21.3918 21.6679 21.7135 21.8288 22.0812C21.9896 22.4603 22.0586 22.8625 22.1045 23.2301L26.5049 21.3459L25.6088 19.2319ZM11.948 10.546L12.7982 12.6255C12.5225 12.5221 12.2697 12.3842 12.0629 12.2464C11.3735 11.7983 10.868 11.2353 10.5348 10.5689L9.68462 8.76513C9.46632 8.363 9.20207 8.06428 8.83441 7.85747C8.50122 7.66215 8.14506 7.55875 7.7774 7.55875C7.40974 7.55875 7.06506 7.65067 6.73187 7.81152C5.12338 9.07534 4.72125 11.4191 4.72125 11.4191L4.33062 13.223C4.22721 13.8204 4.16977 14.4178 4.16977 15.0268V20.7255L1.42383 24.4365L3.14722 25.7348L6.32975 21.4263L6.52507 17.6923L8.45527 20.3808V25.7348H10.5808V18.7723L8.45527 15.7736V15.0268C8.45527 14.5213 8.45527 14.0272 8.58165 13.5447L8.98377 12.166C9.42036 12.7979 9.94887 13.3493 10.5808 13.8204C11.0978 14.211 12.5454 14.9004 13.9127 15.2336L16.3599 20.9093C16.6127 20.6565 16.9344 20.4267 17.3135 20.2659C17.6812 20.105 18.0833 20.0361 18.4509 19.9901L14.062 9.6498L11.948 10.546ZM17.9224 14.3834L20.1743 19.6684L26.6428 16.8995L24.4024 11.626" fill="#F5F5F5"/>
</g>
</svg>
