<svg width="49" height="49" viewBox="0 0 49 49" fill="none" xmlns="http://www.w3.org/2000/svg">
<path d="M43.5333 24.6662C43.5333 14.0623 34.9372 5.46621 24.3333 5.46621C13.7295 5.46621 5.13335 14.0623 5.13335 24.6662C5.13335 35.2701 13.7295 43.8662 24.3333 43.8662C34.9372 43.8662 43.5333 35.2701 43.5333 24.6662Z" stroke="#353535" strokeWidth="2.4" stroke-linecap="round"/>
<path d="M43.5333 24.6662C43.5333 14.0623 34.9372 5.46621 24.3333 5.46621C13.7295 5.46621 5.13335 14.0623 5.13335 24.6662C5.13335 35.2701 13.7295 43.8662 24.3333 43.8662C34.9372 43.8662 43.5333 35.2701 43.5333 24.6662Z" stroke="#1F57C3" strokeWidth="2.4" stroke-linecap="round" stroke-dasharray="115.2 120"/>
<path fill-rule="evenodd" clip-rule="evenodd" d="M32.1189 33.2239H16.5478V30.942H32.1189V33.2239ZM32.1433 28.6577H16.5209L13.3333 20.1608L19.4346 22.1946L24.3333 16.1104L29.232 22.1946L35.3333 20.1608L32.1433 28.6577Z" fill="#1F57C3"/>
</svg>
