<svg width="33" height="33" viewBox="0 0 33 33" fill="none" xmlns="http://www.w3.org/2000/svg">
<g id="Img">
<path id="Vector" d="M16.3333 16.5329C17.2174 16.5329 18.0652 16.1817 18.6904 15.5566C19.3155 14.9314 19.6667 14.0836 19.6667 13.1995C19.6667 12.3155 19.3155 11.4676 18.6904 10.8425C18.0652 10.2174 17.2174 9.86621 16.3333 9.86621C15.4493 9.86621 14.6014 10.2174 13.9763 10.8425C13.3512 11.4676 13 12.3155 13 13.1995C13 14.0836 13.3512 14.9314 13.9763 15.5566C14.6014 16.1817 15.4493 16.5329 16.3333 16.5329Z" stroke="#E8E4D8" stroke-width="2" stroke-miterlimit="10" stroke-linecap="round" stroke-linejoin="round"/>
<path id="Vector_2" d="M24.8667 13.1993C24.8667 8.53268 21.1333 4.66602 16.3333 4.66602C11.5333 4.66602 7.79999 8.53268 7.79999 13.1993C7.79999 15.1993 8.59999 17.066 9.79999 18.666C11.5333 21.066 16.4667 28.666 16.4667 28.666C16.4667 28.666 21.2667 21.066 23.1333 18.666C24.0667 17.066 24.8667 15.3327 24.8667 13.1993Z" stroke="#E8E4D8" stroke-width="2" stroke-miterlimit="10" stroke-linecap="round" stroke-linejoin="round"/>
</g>
</svg>
