<svg width="42" height="42" viewBox="0 0 42 42" fill="none" xmlns="http://www.w3.org/2000/svg">
<g id="Metamask">
<g clip-path="url(#clip0_7161_104573)">
<rect id="Vector" width="41.1803" height="41.1803" fill="#F5F5F5"/>
<g id="metamask">
<path id="Vector_2" d="M32.177 8.68652L22.1343 16.1454L23.9914 11.7448L32.177 8.68652Z" fill="#E2761B" stroke="#E2761B" stroke-width="0.321721" stroke-linecap="round" stroke-linejoin="round"/>
<g id="Group">
<path id="Vector_3" d="M8.99316 8.68652L18.9552 16.2161L17.1889 11.7448L8.99316 8.68652Z" fill="#E4761B" stroke="#E4761B" stroke-width="0.321721" stroke-linecap="round" stroke-linejoin="round"/>
<path id="Vector_4" d="M28.5639 25.9766L25.8892 30.0744L31.612 31.649L33.2572 26.0674L28.5639 25.9766Z" fill="#E4761B" stroke="#E4761B" stroke-width="0.321721" stroke-linecap="round" stroke-linejoin="round"/>
<path id="Vector_5" d="M7.93311 26.0674L9.56821 31.649L15.2911 30.0744L12.6164 25.9766L7.93311 26.0674Z" fill="#E4761B" stroke="#E4761B" stroke-width="0.321721" stroke-linecap="round" stroke-linejoin="round"/>
<path id="Vector_6" d="M14.9683 19.0521L13.3735 21.4644L19.056 21.7167L18.8542 15.6104L14.9683 19.0521Z" fill="#E4761B" stroke="#E4761B" stroke-width="0.321721" stroke-linecap="round" stroke-linejoin="round"/>
<path id="Vector_7" d="M26.2018 19.0525L22.2655 15.54L22.1343 21.7171L27.8067 21.4648L26.2018 19.0525Z" fill="#E4761B" stroke="#E4761B" stroke-width="0.321721" stroke-linecap="round" stroke-linejoin="round"/>
<path id="Vector_8" d="M15.291 30.0741L18.7025 28.4087L15.7553 26.1074L15.291 30.0741Z" fill="#E4761B" stroke="#E4761B" stroke-width="0.321721" stroke-linecap="round" stroke-linejoin="round"/>
<path id="Vector_9" d="M22.4678 28.4087L25.8894 30.0741L25.415 26.1074L22.4678 28.4087Z" fill="#E4761B" stroke="#E4761B" stroke-width="0.321721" stroke-linecap="round" stroke-linejoin="round"/>
</g>
<g id="Group_2">
<path id="Vector_10" d="M25.8894 30.0746L22.4678 28.4092L22.7403 30.6398L22.71 31.5784L25.8894 30.0746Z" fill="#D7C1B3" stroke="#D7C1B3" stroke-width="0.321721" stroke-linecap="round" stroke-linejoin="round"/>
<path id="Vector_11" d="M15.2915 30.0746L18.4709 31.5784L18.4507 30.6398L18.703 28.4092L15.2915 30.0746Z" fill="#D7C1B3" stroke="#D7C1B3" stroke-width="0.321721" stroke-linecap="round" stroke-linejoin="round"/>
</g>
<path id="Vector_12" d="M18.5211 24.6332L15.6748 23.7954L17.6834 22.877L18.5211 24.6332Z" fill="#233447" stroke="#233447" stroke-width="0.321721" stroke-linecap="round" stroke-linejoin="round"/>
<path id="Vector_13" d="M22.6489 24.6332L23.4867 22.877L25.5053 23.7954L22.6489 24.6332Z" fill="#233447" stroke="#233447" stroke-width="0.321721" stroke-linecap="round" stroke-linejoin="round"/>
<g id="Group_3">
<path id="Vector_14" d="M15.2909 30.0734L15.7754 25.9756L12.6162 26.0664L15.2909 30.0734Z" fill="#CD6116" stroke="#CD6116" stroke-width="0.321721" stroke-linecap="round" stroke-linejoin="round"/>
<path id="Vector_15" d="M25.4043 25.9756L25.8888 30.0734L28.5635 26.0664L25.4043 25.9756Z" fill="#CD6116" stroke="#CD6116" stroke-width="0.321721" stroke-linecap="round" stroke-linejoin="round"/>
<path id="Vector_16" d="M27.8067 21.4639L22.1343 21.7162L22.6591 24.6331L23.4969 22.8769L25.5155 23.7954L27.8067 21.4639Z" fill="#CD6116" stroke="#CD6116" stroke-width="0.321721" stroke-linecap="round" stroke-linejoin="round"/>
<path id="Vector_17" d="M15.6743 23.7954L17.6929 22.8769L18.5206 24.6331L19.0555 21.7162L13.373 21.4639L15.6743 23.7954Z" fill="#CD6116" stroke="#CD6116" stroke-width="0.321721" stroke-linecap="round" stroke-linejoin="round"/>
</g>
<g id="Group_4">
<path id="Vector_18" d="M13.3735 21.4639L15.7555 26.1067L15.6748 23.7954L13.3735 21.4639Z" fill="#E4751F" stroke="#E4751F" stroke-width="0.321721" stroke-linecap="round" stroke-linejoin="round"/>
<path id="Vector_19" d="M25.5155 23.7954L25.4146 26.1067L27.8066 21.4639L25.5155 23.7954Z" fill="#E4751F" stroke="#E4751F" stroke-width="0.321721" stroke-linecap="round" stroke-linejoin="round"/>
<path id="Vector_20" d="M19.0559 21.7158L18.521 24.6328L19.1871 28.0745L19.3385 23.5427L19.0559 21.7158Z" fill="#E4751F" stroke="#E4751F" stroke-width="0.321721" stroke-linecap="round" stroke-linejoin="round"/>
<path id="Vector_21" d="M22.1343 21.7158L21.8618 23.5326L21.9829 28.0745L22.6592 24.6328L22.1343 21.7158Z" fill="#E4751F" stroke="#E4751F" stroke-width="0.321721" stroke-linecap="round" stroke-linejoin="round"/>
</g>
<path id="Vector_22" d="M22.6592 24.6336L21.9829 28.0754L22.4674 28.4085L25.4146 26.1072L25.5155 23.7959L22.6592 24.6336Z" fill="#F6851B" stroke="#F6851B" stroke-width="0.321721" stroke-linecap="round" stroke-linejoin="round"/>
<path id="Vector_23" d="M15.6748 23.7959L15.7556 26.1072L18.7028 28.4085L19.1872 28.0754L18.5211 24.6336L15.6748 23.7959Z" fill="#F6851B" stroke="#F6851B" stroke-width="0.321721" stroke-linecap="round" stroke-linejoin="round"/>
<path id="Vector_24" d="M22.7095 31.5781L22.7398 30.6394L22.4875 30.4174H18.6823L18.4502 30.6394L18.4704 31.5781L15.291 30.0742L16.4013 30.9826L18.6521 32.5471H22.5178L24.7786 30.9826L25.8889 30.0742L22.7095 31.5781Z" fill="#C0AD9E" stroke="#C0AD9E" stroke-width="0.321721" stroke-linecap="round" stroke-linejoin="round"/>
<path id="Vector_25" d="M22.4673 28.4083L21.9828 28.0752H19.187L18.7025 28.4083L18.4502 30.6389L18.6823 30.4168H22.4875L22.7398 30.6389L22.4673 28.4083Z" fill="#161616" stroke="#161616" stroke-width="0.321721" stroke-linecap="round" stroke-linejoin="round"/>
<g id="Group_5">
<path id="Vector_26" d="M32.6014 16.6299L33.4593 12.5119L32.1775 8.68652L22.4678 15.8931L26.2023 19.0523L31.481 20.5965L32.6518 19.2339L32.1472 18.8706L32.9546 18.1338L32.3288 17.6493L33.1363 17.0336L32.6014 16.6299Z" fill="#763D16" stroke="#763D16" stroke-width="0.321721" stroke-linecap="round" stroke-linejoin="round"/>
<path id="Vector_27" d="M7.72119 12.5119L8.57912 16.6299L8.03408 17.0336L8.84154 17.6493L8.22585 18.1338L9.03331 18.8706L8.52865 19.2339L9.68937 20.5965L14.9681 19.0523L18.7026 15.8931L8.99294 8.68652L7.72119 12.5119Z" fill="#763D16" stroke="#763D16" stroke-width="0.321721" stroke-linecap="round" stroke-linejoin="round"/>
</g>
<path id="Vector_28" d="M31.4806 20.597L26.2018 19.0527L27.8066 21.465L25.4146 26.1079L28.5636 26.0675H33.257L31.4806 20.597Z" fill="#F6851B" stroke="#F6851B" stroke-width="0.321721" stroke-linecap="round" stroke-linejoin="round"/>
<path id="Vector_29" d="M14.9681 19.0527L9.68933 20.597L7.93311 26.0675H12.6164L15.7553 26.1079L13.3734 21.465L14.9681 19.0527Z" fill="#F6851B" stroke="#F6851B" stroke-width="0.321721" stroke-linecap="round" stroke-linejoin="round"/>
<path id="Vector_30" d="M22.1342 21.7172L22.4672 15.8934L24.0014 11.7451H17.1885L18.7025 15.8934L19.0557 21.7172L19.1768 23.5542L19.1869 28.0759H21.9828L22.0029 23.5542L22.1342 21.7172Z" fill="#F6851B" stroke="#F6851B" stroke-width="0.321721" stroke-linecap="round" stroke-linejoin="round"/>
</g>
</g>
</g>
<defs>
<clipPath id="clip0_7161_104573">
<rect width="41.1803" height="41.1803" rx="7.72131" fill="white"/>
</clipPath>
</defs>
</svg>
