<svg width="25" height="25" viewBox="0 0 25 25" fill="none" xmlns="http://www.w3.org/2000/svg">
<path d="M22.1912 10.6956L21.1871 14.9781C20.3266 18.6765 18.6259 20.1723 15.4294 19.865C14.9171 19.824 14.3639 19.7318 13.7697 19.5884L12.0485 19.1786C7.77631 18.1643 6.45469 16.0538 7.45871 11.7714L8.46273 7.47866C8.66763 6.60782 8.91352 5.84968 9.22087 5.22473C10.4195 2.74542 12.4583 2.07949 15.8802 2.88885L17.5911 3.28841C21.8838 4.29243 23.1952 6.41316 22.1912 10.6956Z" stroke="#96B0BD" stroke-width="1.53676" stroke-linecap="round" stroke-linejoin="round"/>
<path d="M15.4296 19.8649C14.7944 20.2951 13.9953 20.6537 13.022 20.9713L11.4033 21.5041C7.33598 22.8154 5.19476 21.7192 3.87314 17.6519L2.56177 13.6051C1.2504 9.5378 2.33638 7.38633 6.40368 6.07495L8.02241 5.54221C8.44245 5.40902 8.84201 5.29633 9.22108 5.22461C8.91373 5.84956 8.66785 6.6077 8.46294 7.47853L7.45893 11.7712C6.45491 16.0537 7.77652 18.1642 12.0487 19.1784L13.7699 19.5882C14.3641 19.7317 14.9174 19.8239 15.4296 19.8649Z" stroke="#96B0BD" stroke-width="1.53676" stroke-linecap="round" stroke-linejoin="round"/>
<path d="M12.9492 8.73926L17.9181 9.99941" stroke="#96B0BD" stroke-width="1.53676" stroke-linecap="round" stroke-linejoin="round"/>
<path d="M11.9458 12.7041L14.9169 13.4622" stroke="#96B0BD" stroke-width="1.53676" stroke-linecap="round" stroke-linejoin="round"/>
</svg>
