<svg width="23" height="22" viewBox="0 0 23 22" fill="none" xmlns="http://www.w3.org/2000/svg">
<g id="vuesax/linear/people">
<g id="Group">
<g id="people">
<g id="Group_2">
<path id="Vector" d="M17.0505 6.56338C16.9955 6.55421 16.9313 6.55421 16.8763 6.56338C15.6113 6.51754 14.603 5.48171 14.603 4.19838C14.603 2.88754 15.6571 1.83337 16.968 1.83337C18.2788 1.83337 19.333 2.89671 19.333 4.19838C19.3238 5.48171 18.3155 6.51754 17.0505 6.56338Z" stroke="#F5F5F5" strokeWidth="1.38684" strokeLinecap="round" strokeLinejoin="round"/>
<path id="Vector_2" d="M16.1063 13.2366C17.3622 13.4474 18.7463 13.2274 19.718 12.5766C21.0105 11.7149 21.0105 10.3033 19.718 9.44161C18.7372 8.79078 17.3347 8.57077 16.0788 8.79077" stroke="#F5F5F5" strokeWidth="1.38684" strokeLinecap="round" strokeLinejoin="round"/>
</g>
<g id="Group_3">
<path id="Vector_3" d="M6.023 6.56338C6.078 6.55421 6.14216 6.55421 6.19716 6.56338C7.46216 6.51754 8.47049 5.48171 8.47049 4.19838C8.47049 2.88754 7.41633 1.83337 6.1055 1.83337C4.79466 1.83337 3.74049 2.89671 3.74049 4.19838C3.74966 5.48171 4.758 6.51754 6.023 6.56338Z" stroke="#F5F5F5" strokeWidth="1.38684" strokeLinecap="round" strokeLinejoin="round"/>
<path id="Vector_4" d="M6.96715 13.2366C5.71132 13.4474 4.32715 13.2274 3.35548 12.5766C2.06298 11.7149 2.06298 10.3033 3.35548 9.44161C4.33632 8.79078 5.73881 8.57077 6.99465 8.79077" stroke="#F5F5F5" strokeWidth="1.38684" strokeLinecap="round" strokeLinejoin="round"/>
</g>
<g id="Group_4">
<path id="Vector_5" d="M11.5505 13.4108C11.4955 13.4016 11.4313 13.4016 11.3763 13.4108C10.1113 13.365 9.10299 12.3291 9.10299 11.0458C9.10299 9.73495 10.1572 8.68079 11.468 8.68079C12.7788 8.68079 13.833 9.74412 13.833 11.0458C13.8238 12.3291 12.8155 13.3741 11.5505 13.4108Z" stroke="#F5F5F5" strokeWidth="1.38684" strokeLinecap="round" strokeLinejoin="round"/>
<path id="Vector_6" d="M8.88298 16.2983C7.59048 17.16 7.59048 18.5717 8.88298 19.4333C10.3496 20.4142 12.7513 20.4142 14.218 19.4333C15.5105 18.5717 15.5105 17.16 14.218 16.2983C12.7605 15.3267 10.3496 15.3267 8.88298 16.2983Z" stroke="#F5F5F5" strokeWidth="1.38684" strokeLinecap="round" strokeLinejoin="round"/>
</g>
</g>
</g>
</g>
</svg>
