<svg width="29" height="23" viewBox="0 0 29 23" fill="none" xmlns="http://www.w3.org/2000/svg">
<g id="Frame" clip-path="url(#clip0_27_662)">
<path id="Vector" d="M22.1284 9.98919C18.6992 9.98919 15.9241 12.7643 15.9241 16.1934C15.9241 19.6225 18.6992 22.3976 22.1284 22.3976C25.5575 22.3976 28.3326 19.6225 28.3326 16.1934C28.3326 12.7643 25.5575 9.98919 22.1284 9.98919ZM24.8858 16.4644C24.8858 16.6945 24.6975 16.8828 24.4674 16.8828H21.8578C21.6277 16.8828 21.4394 16.6945 21.4394 16.4644V13.1654C21.4394 12.9353 21.6277 12.747 21.8578 12.747H22.3994C22.6294 12.747 22.8177 12.9353 22.8177 13.1654V15.504H24.4674C24.6975 15.504 24.8858 15.6923 24.8858 15.9224V16.4644ZM22.1284 8.61047C22.361 8.61047 22.5902 8.62469 22.8177 8.64537V6.54241C22.8177 5.43943 21.8526 4.47434 20.7496 4.47434H17.3029V2.40627C17.3029 1.30329 16.3378 0.338196 15.2348 0.338196H8.34122C7.23825 0.338196 6.27315 1.30329 6.27315 2.40627V4.47434H2.82637C1.7234 4.47434 0.758301 5.43943 0.758301 6.54241V9.98919H17.782C19.0142 9.12361 20.5114 8.61047 22.1284 8.61047ZM14.5454 4.47434H9.03058V3.09562H14.5454V4.47434ZM14.8393 14.1253H9.71994C9.33907 14.1253 9.03058 13.8168 9.03058 13.436V11.3679H0.758301V17.5721C0.758301 18.6751 1.7234 19.6402 2.82637 19.6402H15.3826C14.8513 18.6044 14.5454 17.4351 14.5454 16.1934C14.5454 15.4756 14.6523 14.7837 14.8393 14.1253Z" fill="#F5F5F5"/>
</g>
<defs>
<clipPath id="clip0_27_662">
<rect width="27.5743" height="22.0594" fill="white" transform="translate(0.758301 0.338196)"/>
</clipPath>
</defs>
</svg>
