<svg width="43" height="43" viewBox="0 0 43 43" fill="none" xmlns="http://www.w3.org/2000/svg">
<g clip-path="url(#clip0_45_3115)">
<path d="M18.579 2.09395C19.5056 1.55898 20.5567 1.27734 21.6266 1.27734C22.6966 1.27734 23.7476 1.55898 24.6742 2.09395L37.0537 9.24062C37.9802 9.77557 38.7497 10.545 39.2846 11.4716C39.8196 12.3981 40.1013 13.4492 40.1013 14.5191V28.8155C40.1013 29.8854 39.8196 30.9364 39.2846 31.863C38.7497 32.7896 37.9802 33.559 37.0537 34.094L24.6742 41.2406C23.7476 41.7756 22.6966 42.0572 21.6266 42.0572C20.5567 42.0572 19.5056 41.7756 18.579 41.2406L6.19957 34.094C5.273 33.559 4.50356 32.7896 3.96859 31.863C3.43363 30.9364 3.15197 29.8854 3.15195 28.8155V14.5191C3.15197 13.4492 3.43363 12.3981 3.96859 11.4716C4.50356 10.545 5.273 9.77557 6.19957 9.24062L18.579 2.09395Z" fill="#F66DBC"/>
<path d="M27.6305 28.365C27.9352 29.4773 26.7207 30.288 25.8095 29.68L21.6602 26.9478L17.5093 29.68C16.5981 30.288 15.3836 29.3768 15.6868 28.365L16.8007 23.6076L12.9546 20.4686C12.0434 19.76 12.5493 18.3429 13.6632 18.2438L18.6232 17.9391L20.4457 13.2823C20.8495 12.2705 22.3687 12.2705 22.7726 13.2823L24.595 17.9391M27.1276 18.2423V25.328M30.7695 21.7852H23.6838" stroke="#3C4E57" stroke-opacity="0.08" strokeWidth="2.28571" stroke-miterlimit="10" stroke-linecap="round" stroke-linejoin="round"/>
</g>
<defs>
<clipPath id="clip0_45_3115">
<rect width="42.6667" height="42.6667" fill="white" transform="translate(0.293335 0.333008)"/>
</clipPath>
</defs>
</svg>
