<svg width="32" height="32" viewBox="0 0 32 32" fill="none" xmlns="http://www.w3.org/2000/svg">
<path d="M21.0961 15.9775C21.0961 15.5701 21.2579 15.1794 21.546 14.8913C21.834 14.6032 22.2247 14.4414 22.6321 14.4414C23.0395 14.4414 23.4302 14.6032 23.7183 14.8913C24.0064 15.1794 24.1682 15.5701 24.1682 15.9775C24.1682 16.3849 24.0064 16.7756 23.7183 17.0636C23.4302 17.3517 23.0395 17.5135 22.6321 17.5135C22.2247 17.5135 21.834 17.3517 21.546 17.0636C21.2579 16.7756 21.0961 16.3849 21.0961 15.9775ZM14.9518 15.9775C14.9518 15.5701 15.1137 15.1794 15.4017 14.8913C15.6898 14.6032 16.0805 14.4414 16.4879 14.4414C16.8953 14.4414 17.286 14.6032 17.5741 14.8913C17.8621 15.1794 18.024 15.5701 18.024 15.9775C18.024 16.3849 17.8621 16.7756 17.5741 17.0636C17.286 17.3517 16.8953 17.5135 16.4879 17.5135C16.0805 17.5135 15.6898 17.3517 15.4017 17.0636C15.1137 16.7756 14.9518 16.3849 14.9518 15.9775ZM8.80762 15.9775C8.80762 15.5701 8.96945 15.1794 9.25752 14.8913C9.54558 14.6032 9.93629 14.4414 10.3437 14.4414C10.7511 14.4414 11.1418 14.6032 11.4298 14.8913C11.7179 15.1794 11.8797 15.5701 11.8797 15.9775C11.8797 16.3849 11.7179 16.7756 11.4298 17.0636C11.1418 17.3517 10.7511 17.5135 10.3437 17.5135C9.93629 17.5135 9.54558 17.3517 9.25752 17.0636C8.96945 16.7756 8.80762 16.3849 8.80762 15.9775Z" fill="#96B0BD"/>
</svg>
