<svg width="29" height="29" viewBox="0 0 29 29" fill="none" xmlns="http://www.w3.org/2000/svg">
<g id="Frame">
<path id="Vector" d="M14.6502 3.10161C8.30808 3.10161 3.16089 8.2488 3.16089 14.5909C3.16089 20.933 8.30808 26.0802 14.6502 26.0802C20.9922 26.0802 26.1394 20.933 26.1394 14.5909C26.1394 8.2488 20.9922 3.10161 14.6502 3.10161ZM14.6502 6.54839C16.5574 6.54839 18.0969 8.08795 18.0969 9.99517C18.0969 11.9024 16.5574 13.442 14.6502 13.442C12.7429 13.442 11.2034 11.9024 11.2034 9.99517C11.2034 8.08795 12.7429 6.54839 14.6502 6.54839ZM14.6502 22.8632C13.2851 22.8632 11.9412 22.5254 10.7384 21.8798C9.53557 21.2343 8.51119 20.3012 7.7566 19.1636C7.79107 16.8773 12.3523 15.6249 14.6502 15.6249C16.9365 15.6249 21.5093 16.8773 21.5437 19.1636C20.7891 20.3012 19.7648 21.2343 18.5619 21.8798C17.3591 22.5254 16.0153 22.8632 14.6502 22.8632Z" fill="#F5F5F5"/>
</g>
</svg>
