<svg width="28" height="29" viewBox="0 0 28 29" fill="none" xmlns="http://www.w3.org/2000/svg">
<path fill-rule="evenodd" clip-rule="evenodd" d="M23.6418 16.1058C24.5677 17.2631 23.989 18.999 22.6003 19.4619C21.6744 19.6934 21.0958 20.6192 21.0958 21.545C21.0958 23.0495 19.707 24.0911 18.2026 23.6282C17.2767 23.281 16.2352 23.6282 15.7723 24.4383C14.9621 25.7113 13.1105 25.7113 12.3004 24.4383C11.7217 23.6282 10.7959 23.281 9.87006 23.6282C8.24986 24.0911 6.86111 22.9338 6.86111 21.545C6.86111 20.6192 6.28246 19.6934 5.35663 19.4619C3.96788 18.999 3.38923 17.3788 4.31506 16.1058C4.89371 15.2957 4.89371 14.2541 4.31506 13.5597C3.2735 12.4024 3.85215 10.6665 5.35663 10.2036C6.28246 9.97212 6.86111 9.04628 6.86111 8.12045C6.86111 6.7317 8.24986 5.57441 9.63861 6.15305C10.5644 6.50024 11.606 6.15305 12.0689 5.34295C12.879 4.06993 14.7307 4.06993 15.5408 5.34295C16.1194 6.15305 17.0453 6.50024 17.9711 6.15305C19.5913 5.57441 20.9801 6.7317 20.9801 8.12045C20.9801 9.04628 21.5587 9.97212 22.4845 10.2036C23.8733 10.6665 24.4519 12.2867 23.5261 13.5597C23.0632 14.2541 23.0632 15.4114 23.6418 16.1058Z" fill="#DC4F13" stroke="#DC4F13" stroke-width="1.73594" stroke-miterlimit="10" stroke-linecap="round" stroke-linejoin="round"/>
<path d="M17.9712 12.1714L12.7634 17.4949L9.87018 14.6017" stroke="#F5F5F5" stroke-width="1.73594" stroke-miterlimit="10" stroke-linecap="round" stroke-linejoin="round"/>
</svg>
