<svg width="33" height="32" viewBox="0 0 33 32" fill="none" xmlns="http://www.w3.org/2000/svg">
<g id="Button &#226;&#134;&#146; Img">
<path id="Vector" fill-rule="evenodd" clip-rule="evenodd" d="M28.1333 17.4658C29.2 18.7992 28.5333 20.7992 26.9333 21.3325C25.8667 21.5992 25.2 22.6658 25.2 23.7325C25.2 25.4658 23.6 26.6658 21.8667 26.1325C20.8 25.7325 19.6 26.1325 19.0667 27.0658C18.1333 28.5325 16 28.5325 15.0667 27.0658C14.4 26.1325 13.3333 25.7325 12.2667 26.1325C10.4 26.6658 8.8 25.3325 8.8 23.7325C8.8 22.6658 8.13333 21.5992 7.06667 21.3325C5.46667 20.7992 4.8 18.9325 5.86667 17.4658C6.53333 16.5325 6.53333 15.3325 5.86667 14.5325C4.66667 13.1992 5.33333 11.1992 7.06667 10.6658C8.13333 10.3992 8.8 9.33249 8.8 8.26582C8.8 6.66582 10.4 5.33249 12 5.99915C13.0667 6.39915 14.2667 5.99915 14.8 5.06582C15.7333 3.59915 17.8667 3.59915 18.8 5.06582C19.4667 5.99915 20.5333 6.39915 21.6 5.99915C23.4667 5.33249 25.0667 6.66582 25.0667 8.26582C25.0667 9.33249 25.7333 10.3992 26.8 10.6658C28.4 11.1992 29.0667 13.0658 28 14.5325C27.4667 15.3325 27.4667 16.6658 28.1333 17.4658Z" fill="#1F57C3" stroke="#1F57C3" strokeWidth="2" strokeMiterlimit="10" strokeLinecap="round" strokeLinejoin="round"/>
<path id="Vector_2" d="M21.6 12.9326L15.6 19.066L12.2667 15.7326" stroke="#3C4E57" stroke-opacity="0.08" strokeWidth="2" strokeMiterlimit="10" strokeLinecap="round" strokeLinejoin="round"/>
</g>
</svg>
