<svg width="43" height="42" viewBox="0 0 43 42" fill="none" xmlns="http://www.w3.org/2000/svg">
<g id="WalletConnect" clip-path="url(#clip0_7161_104574)">
<rect id="Vector" x="0.909668" width="41.1803" height="41.1803" rx="7.72131" fill="url(#paint0_radial_7161_104574)"/>
<path id="Vector_2" d="M13.8387 15.9034C17.9809 11.8577 24.7049 11.8577 28.847 15.9034L29.3457 16.394C29.5548 16.5951 29.5548 16.9248 29.3457 17.1259L27.6406 18.7908C27.536 18.8954 27.3671 18.8954 27.2625 18.7908L26.5789 18.1233C23.6834 15.3001 19.0023 15.3001 16.1069 18.1233L15.3749 18.8391C15.2704 18.9436 15.1015 18.9436 14.9969 18.8391L13.2918 17.1742C13.0827 16.9731 13.0827 16.6433 13.2918 16.4423L13.8387 15.9034ZM32.3779 19.3458L33.898 20.8257C34.1072 21.0268 34.1072 21.3566 33.898 21.5576L27.0534 28.2414C26.8443 28.4425 26.5065 28.4425 26.3054 28.2414L21.4474 23.496C21.3992 23.4477 21.3107 23.4477 21.2624 23.496L16.4045 28.2414C16.1953 28.4425 15.8575 28.4425 15.6564 28.2414L8.7877 21.5576C8.57858 21.3566 8.57858 21.0268 8.7877 20.8257L10.3078 19.3458C10.517 19.1447 10.8548 19.1447 11.0558 19.3458L15.9138 24.0912C15.9621 24.1394 16.0506 24.1394 16.0988 24.0912L20.9568 19.3458C21.1659 19.1447 21.5037 19.1447 21.7048 19.3458L26.5628 24.0912C26.6111 24.1394 26.6995 24.1394 26.7478 24.0912L31.6058 19.3458C31.831 19.1447 32.1688 19.1447 32.3779 19.3458Z" fill="#F5F5F5"/>
</g>
<defs>
<radialGradient id="paint0_radial_7161_104574" cx="0" cy="0" r="1" gradientUnits="userSpaceOnUse" gradientTransform="translate(0.909796 20.5908) scale(41.1803)">
<stop stop-color="#5D9DF6"/>
<stop offset="1" stop-color="#006FFF"/>
</radialGradient>
<clipPath id="clip0_7161_104574">
<rect width="41.1803" height="41.1803" fill="white" transform="translate(0.909668)"/>
</clipPath>
</defs>
</svg>
