<svg width="42" height="42" viewBox="0 0 42 42" fill="none" xmlns="http://www.w3.org/2000/svg">
<path fill-rule="evenodd" clip-rule="evenodd" d="M20.9375 0.15625C32.3801 0.15625 41.6562 9.43235 41.6562 20.875C41.6562 32.3176 32.3801 41.5938 20.9375 41.5938C9.49485 41.5938 0.21875 32.3176 0.21875 20.875C0.21875 9.43235 9.49485 0.15625 20.9375 0.15625ZM27.0939 15.1788C27.7873 14.4855 28.9115 14.4855 29.6049 15.1788C30.2983 15.8722 30.2983 16.9964 29.6049 17.6898L19.5611 27.7336C19.2004 28.0943 18.7233 28.2673 18.2508 28.2528C17.7782 28.2674 17.3009 28.0943 16.9402 27.7336L12.2229 23.0164C11.5295 22.323 11.5295 21.1988 12.2229 20.5054C12.9163 19.812 14.0405 19.812 14.7338 20.5054L18.2506 24.0222L27.0939 15.1788Z" fill="#E36103"/>
</svg>
