<svg width="43" height="42" viewBox="0 0 43 42" fill="none" xmlns="http://www.w3.org/2000/svg">
<path fill-rule="evenodd" clip-rule="evenodd" d="M21.625 0.15625C33.0676 0.15625 42.3438 9.43235 42.3437 20.875C42.3437 32.3176 33.0676 41.5938 21.625 41.5938C10.1824 41.5938 0.90625 32.3176 0.90625 20.875C0.90625 9.43235 10.1824 0.15625 21.625 0.15625ZM13.2998 27.85L13.2998 21.325C13.2998 20.8279 12.8969 20.425 12.3998 20.425C11.9028 20.425 11.4998 20.8279 11.4998 21.325L11.4998 28.75C11.4998 29.247 11.9028 29.65 12.3998 29.65C12.4026 29.65 12.4054 29.65 12.4082 29.6499C12.4113 29.65 12.4145 29.65 12.4176 29.65L30.8676 29.65L30.8723 29.65L30.8744 29.65C31.3715 29.65 31.7744 29.247 31.7744 28.75L31.7744 21.325C31.7744 20.8279 31.3715 20.425 30.8744 20.425C30.3774 20.425 29.9744 20.8279 29.9744 21.325L29.9744 27.85L13.2998 27.85ZM29.9744 13.9L13.2998 13.9V17.023L21.6167 21.252L29.9744 16.663V13.9ZM12.4176 12.1C12.2027 12.1 12.0054 12.1753 11.8507 12.3009C11.6373 12.4655 11.4998 12.7237 11.4998 13.014V17.5893C11.4998 17.9986 11.7731 18.3441 12.1471 18.4533L21.2071 23.0602C21.3516 23.1337 21.5071 23.1644 21.6587 23.1568C21.8046 23.1565 21.9524 23.1206 22.0891 23.0456L31.2773 18.0006C31.3781 17.9453 31.464 17.8736 31.5337 17.7906C31.6831 17.6299 31.7744 17.4146 31.7744 17.1778V13.014C31.7744 12.8696 31.7404 12.7331 31.68 12.6122C31.5351 12.3092 31.2258 12.1 30.8676 12.1L12.4176 12.1Z" fill="#E36103"/>
</svg>
