<svg width="113" height="121" viewBox="0 0 113 121" fill="none" xmlns="http://www.w3.org/2000/svg">
<circle cx="55.5453" cy="55.6703" r="54.9539" fill="#181E24"/>
<circle cx="92.1813" cy="99.6338" r="20.7604" fill="#0C192B"/>
<g clip-path="url(#clip0_1144_6730)">
<path d="M84.3104 106.184C84.4566 106.04 84.6576 105.956 84.8707 105.956H104.201C104.554 105.956 104.731 106.376 104.481 106.622L100.662 110.387C100.516 110.531 100.315 110.615 100.102 110.615H80.7721C80.4189 110.615 80.2422 110.195 80.4919 109.949L84.3104 106.184Z" fill="url(#paint0_linear_1144_6730)"/>
<path d="M84.31 92.1273C84.4622 91.9832 84.6632 91.8992 84.8703 91.8992H104.2C104.554 91.8992 104.73 92.3195 104.48 92.5657L100.662 96.3304C100.516 96.4745 100.315 96.5586 100.102 96.5586H80.7716C80.4184 96.5586 80.2418 96.1383 80.4915 95.8921L84.31 92.1273Z" fill="url(#paint1_linear_1144_6730)"/>
<path d="M100.663 99.1106C100.517 98.9665 100.316 98.8824 100.103 98.8824H80.7726C80.4193 98.8824 80.2427 99.3028 80.4924 99.5489L84.3109 103.314C84.4571 103.458 84.6581 103.542 84.8712 103.542H104.201C104.555 103.542 104.731 103.122 104.481 102.875L100.663 99.1106Z" fill="url(#paint2_linear_1144_6730)"/>
</g>
<path fill-rule="evenodd" clip-rule="evenodd" d="M54.4934 40.2235C54.7725 39.9491 55.1508 39.7949 55.5452 39.7949C55.9397 39.7949 56.318 39.9491 56.5971 40.2235L68.5047 51.9475C68.6509 52.0816 68.7682 52.2434 68.8496 52.4232C68.9309 52.6029 68.9747 52.797 68.9782 52.9938C68.9817 53.1905 68.945 53.386 68.8701 53.5685C68.7952 53.751 68.6838 53.9167 68.5425 54.0559C68.4011 54.195 68.2328 54.3048 68.0474 54.3785C67.8621 54.4522 67.6636 54.4884 67.4637 54.4849C67.2639 54.4814 67.0668 54.4383 66.8842 54.3583C66.7016 54.2782 66.5373 54.1627 66.401 54.0187L57.0337 44.7958V72.523C57.0337 72.9117 56.8769 73.2844 56.5977 73.5592C56.3186 73.8341 55.94 73.9885 55.5452 73.9885C55.1505 73.9885 54.7719 73.8341 54.4927 73.5592C54.2136 73.2844 54.0568 72.9117 54.0568 72.523V44.7958L44.6895 54.0187C44.5532 54.1627 44.3889 54.2782 44.2063 54.3583C44.0237 54.4383 43.8266 54.4814 43.6268 54.4849C43.4269 54.4884 43.2284 54.4522 43.0431 54.3785C42.8577 54.3048 42.6894 54.195 42.548 54.0559C42.4067 53.9167 42.2953 53.751 42.2204 53.5685C42.1455 53.386 42.1088 53.1905 42.1123 52.9938C42.1158 52.797 42.1596 52.6029 42.2409 52.4232C42.3223 52.2434 42.4396 52.0816 42.5858 51.9475L54.4934 40.2235Z" fill="#E0F0F9"/>
<defs>
<linearGradient id="paint0_linear_1144_6730" x1="102.354" y1="89.6506" x2="89.2718" y2="115.066" gradientUnits="userSpaceOnUse">
<stop stop-color="#00FFA3"/>
<stop offset="1" stop-color="#DC1FFF"/>
</linearGradient>
<linearGradient id="paint1_linear_1144_6730" x1="96.5042" y1="86.6392" x2="83.4218" y2="112.055" gradientUnits="userSpaceOnUse">
<stop stop-color="#00FFA3"/>
<stop offset="1" stop-color="#DC1FFF"/>
</linearGradient>
<linearGradient id="paint2_linear_1144_6730" x1="99.4113" y1="88.1353" x2="86.3289" y2="113.551" gradientUnits="userSpaceOnUse">
<stop stop-color="#00FFA3"/>
<stop offset="1" stop-color="#DC1FFF"/>
</linearGradient>
<clipPath id="clip0_1144_6730">
<rect width="24.2204" height="18.7158" fill="white" transform="translate(80.3765 91.8992)"/>
</clipPath>
</defs>
</svg>
