<svg width="95" height="95" viewBox="0 0 95 95" fill="none" xmlns="http://www.w3.org/2000/svg">
<circle cx="47.2387" cy="47.503" r="47.0536" fill="#2775CA"/>
<path d="M56.2748 52.3301C56.2748 47.4777 53.3573 45.7945 47.5192 45.1C43.3462 44.545 42.5152 43.432 42.5152 41.488C42.5152 39.544 43.9042 38.2884 46.6822 38.2884C49.1872 38.2884 50.5762 39.1225 51.2707 41.209C51.3453 41.41 51.4799 41.5833 51.6561 41.7053C51.8324 41.8274 52.042 41.8923 52.2564 41.8914H54.4794C54.6081 41.8947 54.7362 41.8718 54.8558 41.824C54.9755 41.7763 55.0841 41.7047 55.1752 41.6136C55.2663 41.5226 55.3378 41.4139 55.3856 41.2943C55.4333 41.1747 55.4562 41.0466 55.4529 40.9178V40.7814C55.1843 39.2748 54.4257 37.8991 53.2948 36.8681C52.164 35.8371 50.7243 35.2084 49.1994 35.0798V31.7438C49.1994 31.1888 48.7808 30.7733 48.0863 30.6338H45.9998C45.4448 30.6338 45.0293 31.0493 44.8898 31.7438V34.9524C40.7077 35.5226 38.0661 38.2884 38.0661 41.764C38.0661 46.3525 40.8472 48.16 46.6852 48.8545C50.5762 49.549 51.8409 50.3709 51.8409 52.6061C51.8409 54.8412 49.8969 56.3606 47.2554 56.3606C43.6403 56.3606 42.403 54.8442 41.9723 52.7456C41.9326 52.5111 41.8119 52.298 41.6312 52.1434C41.4506 51.9888 41.2214 51.9025 40.9837 51.8994H38.609C38.4804 51.8965 38.3525 51.9197 38.2331 51.9676C38.1136 52.0155 38.0052 52.0871 37.9142 52.1781C37.8232 52.2691 37.7516 52.3776 37.7037 52.497C37.6558 52.6164 37.6326 52.7443 37.6355 52.8729V53.0124C38.1935 56.488 40.4165 58.99 45.0051 59.6845V63.0205C45.0051 63.5755 45.4206 63.994 46.1151 64.1335H48.2016C48.7566 64.1335 49.1751 63.715 49.3116 63.0205V59.6845C53.4816 58.99 56.2626 56.0695 56.2626 52.3179L56.2748 52.3301Z" fill="white"/>
<path d="M40.0101 66.9238C36.0106 65.4568 32.5579 62.7973 30.1188 59.3046C27.6796 55.8119 26.3716 51.6545 26.3716 47.3944C26.3716 43.1344 27.6796 38.977 30.1188 35.4843C32.5579 31.9916 36.0106 29.332 40.0101 27.865C40.277 27.7496 40.5011 27.5537 40.6512 27.3047C40.8013 27.0556 40.8698 26.7659 40.8472 26.476V24.529C40.8659 24.2736 40.7914 24.0201 40.6375 23.8155C40.4836 23.6108 40.2607 23.4689 40.0101 23.416C39.8145 23.3956 39.6179 23.445 39.4551 23.5555C34.3947 25.1639 29.9774 28.3409 26.8426 32.6267C23.7078 36.9124 22.0181 42.0846 22.0181 47.3944C22.0181 52.7043 23.7078 57.8764 26.8426 62.1622C29.9774 66.4479 34.3947 69.6249 39.4551 71.2334C39.5707 71.3005 39.7005 71.3393 39.834 71.3466C39.9675 71.3539 40.1007 71.3295 40.2229 71.2753C40.3451 71.2212 40.4528 71.1388 40.537 71.0351C40.6213 70.9313 40.6798 70.8091 40.7077 70.6784C40.8472 70.5389 40.8472 70.3994 40.8472 70.1203V68.1763C40.8472 67.7578 40.4286 67.2028 40.0101 66.9238ZM54.7463 23.5555C54.6305 23.4884 54.5004 23.4497 54.3668 23.4425C54.2331 23.4354 54.0997 23.4601 53.9774 23.5146C53.8552 23.569 53.7476 23.6517 53.6635 23.7559C53.5794 23.86 53.5212 23.9826 53.4937 24.1135C53.3573 24.25 53.3573 24.3895 53.3573 24.6685V26.6125C53.3807 26.8928 53.468 27.1641 53.6126 27.4054C53.7572 27.6467 53.9551 27.8517 54.1913 28.0045C58.1908 29.4715 61.6435 32.1311 64.0826 35.6238C66.5218 39.1165 67.8297 43.2739 67.8297 47.5339C67.8297 51.794 66.5218 55.9514 64.0826 59.4441C61.6435 62.9368 58.1908 65.5963 54.1913 67.0633C53.9247 67.1789 53.7009 67.3749 53.5514 67.624C53.4018 67.8731 53.3339 68.1627 53.3573 68.4523V70.3994C53.3384 70.6543 53.4125 70.9075 53.5658 71.1121C53.7191 71.3167 53.9413 71.4589 54.1913 71.5124C54.3869 71.5328 54.5835 71.4834 54.7463 71.3729C59.8047 69.7422 64.2156 66.5492 67.3446 62.253C70.4735 57.9568 72.1592 52.779 72.1592 47.4642C72.1592 42.1494 70.4735 36.9715 67.3446 32.6754C64.2156 28.3792 59.8047 25.1862 54.7463 23.5555Z" fill="white"/>
</svg>
