<svg width="212" height="47" viewBox="0 0 212 47" fill="none" xmlns="http://www.w3.org/2000/svg">
<path d="M64.0349 36.8409C62.5509 36.8409 61.2209 36.5889 60.0449 36.0849C58.8969 35.5809 57.9729 34.8389 57.2729 33.8589C56.6009 32.8789 56.2649 31.6889 56.2649 30.2889C56.2649 28.8609 56.6009 27.6849 57.2729 26.7609C57.9729 25.8089 58.9109 25.0949 60.0869 24.6189C61.2909 24.1429 62.6489 23.9049 64.1609 23.9049H70.4609V22.5609C70.4609 21.3569 70.0969 20.3909 69.3689 19.6629C68.6409 18.9349 67.5209 18.5709 66.0089 18.5709C64.5249 18.5709 63.3909 18.9209 62.6069 19.6209C61.8229 20.3209 61.3049 21.2309 61.0529 22.3509L57.0209 21.0489C57.3569 19.9289 57.8889 18.9209 58.6169 18.0249C59.3729 17.1009 60.3669 16.3589 61.5989 15.7989C62.8309 15.2389 64.3149 14.9589 66.0509 14.9589C68.7389 14.9589 70.8529 15.6449 72.3929 17.0169C73.9329 18.3889 74.7029 20.3349 74.7029 22.8549V31.3809C74.7029 32.2209 75.0949 32.6409 75.8789 32.6409H77.6429V36.2529H74.4089C73.4289 36.2529 72.6309 36.0009 72.0149 35.4969C71.3989 34.9929 71.0909 34.3069 71.0909 33.4389V33.3129H70.4609C70.2369 33.7329 69.9009 34.2229 69.4529 34.7829C69.0049 35.3429 68.3469 35.8329 67.4789 36.2529C66.6109 36.6449 65.4629 36.8409 64.0349 36.8409ZM64.6649 33.2709C66.4009 33.2709 67.8009 32.7809 68.8649 31.8009C69.9289 30.7929 70.4609 29.4209 70.4609 27.6849V27.2649H64.4129C63.2649 27.2649 62.3409 27.5169 61.6409 28.0209C60.9409 28.4969 60.5909 29.2109 60.5909 30.1629C60.5909 31.1149 60.9549 31.8709 61.6829 32.4309C62.4109 32.9909 63.4049 33.2709 64.6649 33.2709ZM81.8491 36.2529V15.5469H86.0911V17.9829H86.7631C87.1551 17.2549 87.7851 16.6109 88.6531 16.0509C89.5211 15.4909 90.6971 15.2109 92.1811 15.2109C93.7211 15.2109 94.9531 15.5329 95.8771 16.1769C96.8291 16.7929 97.5431 17.5909 98.0191 18.5709H98.6911C99.1671 17.6189 99.8531 16.8209 100.749 16.1769C101.673 15.5329 102.975 15.2109 104.655 15.2109C105.999 15.2109 107.189 15.4909 108.225 16.0509C109.261 16.5829 110.087 17.3949 110.703 18.4869C111.319 19.5509 111.627 20.8809 111.627 22.4769V36.2529H107.301V22.8129C107.301 21.5529 106.951 20.5869 106.251 19.9149C105.579 19.2149 104.613 18.8649 103.353 18.8649C102.009 18.8649 100.931 19.2989 100.119 20.1669C99.3071 21.0349 98.9011 22.2809 98.9011 23.9049V36.2529H94.5751V22.8129C94.5751 21.5529 94.2251 20.5869 93.5251 19.9149C92.8531 19.2149 91.8871 18.8649 90.6271 18.8649C89.2831 18.8649 88.2051 19.2989 87.3931 20.1669C86.5811 21.0349 86.1751 22.2809 86.1751 23.9049V36.2529H81.8491ZM124.287 36.8409C122.803 36.8409 121.473 36.5889 120.297 36.0849C119.149 35.5809 118.225 34.8389 117.525 33.8589C116.853 32.8789 116.517 31.6889 116.517 30.2889C116.517 28.8609 116.853 27.6849 117.525 26.7609C118.225 25.8089 119.163 25.0949 120.339 24.6189C121.543 24.1429 122.901 23.9049 124.413 23.9049H130.713V22.5609C130.713 21.3569 130.349 20.3909 129.621 19.6629C128.893 18.9349 127.773 18.5709 126.261 18.5709C124.777 18.5709 123.643 18.9209 122.859 19.6209C122.075 20.3209 121.557 21.2309 121.305 22.3509L117.273 21.0489C117.609 19.9289 118.141 18.9209 118.869 18.0249C119.625 17.1009 120.619 16.3589 121.851 15.7989C123.083 15.2389 124.567 14.9589 126.303 14.9589C128.991 14.9589 131.105 15.6449 132.645 17.0169C134.185 18.3889 134.955 20.3349 134.955 22.8549V31.3809C134.955 32.2209 135.347 32.6409 136.131 32.6409H137.895V36.2529H134.661C133.681 36.2529 132.883 36.0009 132.267 35.4969C131.651 34.9929 131.343 34.3069 131.343 33.4389V33.3129H130.713C130.489 33.7329 130.153 34.2229 129.705 34.7829C129.257 35.3429 128.599 35.8329 127.731 36.2529C126.863 36.6449 125.715 36.8409 124.287 36.8409ZM124.917 33.2709C126.653 33.2709 128.053 32.7809 129.117 31.8009C130.181 30.7929 130.713 29.4209 130.713 27.6849V27.2649H124.665C123.517 27.2649 122.593 27.5169 121.893 28.0209C121.193 28.4969 120.843 29.2109 120.843 30.1629C120.843 31.1149 121.207 31.8709 121.935 32.4309C122.663 32.9909 123.657 33.2709 124.917 33.2709ZM141.261 36.2529V30.9609L153.483 19.7889V19.2009H141.681V15.5469H158.187V20.8809L145.923 32.0529V32.5989H158.523V36.2529H141.261ZM173.008 36.8409C170.936 36.8409 169.088 36.4209 167.464 35.5809C165.868 34.7129 164.608 33.4809 163.684 31.8849C162.76 30.2889 162.298 28.3989 162.298 26.2149V25.5849C162.298 23.4009 162.76 21.5249 163.684 19.9569C164.608 18.3609 165.868 17.1289 167.464 16.2609C169.088 15.3929 170.936 14.9589 173.008 14.9589C175.08 14.9589 176.928 15.3929 178.552 16.2609C180.176 17.1289 181.45 18.3609 182.374 19.9569C183.298 21.5249 183.76 23.4009 183.76 25.5849V26.2149C183.76 28.3989 183.298 30.2889 182.374 31.8849C181.45 33.4809 180.176 34.7129 178.552 35.5809C176.928 36.4209 175.08 36.8409 173.008 36.8409ZM173.008 32.9769C174.912 32.9769 176.452 32.3749 177.628 31.1709C178.832 29.9389 179.434 28.2449 179.434 26.0889V25.7109C179.434 23.5549 178.846 21.8749 177.67 20.6709C176.494 19.4389 174.94 18.8229 173.008 18.8229C171.132 18.8229 169.592 19.4389 168.388 20.6709C167.212 21.8749 166.624 23.5549 166.624 25.7109V26.0889C166.624 28.2449 167.212 29.9389 168.388 31.1709C169.592 32.3749 171.132 32.9769 173.008 32.9769ZM189.146 36.2529V15.5469H193.388V18.6549H194.06C194.452 17.8149 195.152 17.0309 196.16 16.3029C197.168 15.5749 198.666 15.2109 200.654 15.2109C202.222 15.2109 203.608 15.5609 204.812 16.2609C206.044 16.9609 207.01 17.9549 207.71 19.2429C208.41 20.5029 208.76 22.0289 208.76 23.8209V36.2529H204.434V24.1569C204.434 22.3649 203.986 21.0489 203.09 20.2089C202.194 19.3409 200.962 18.9069 199.394 18.9069C197.602 18.9069 196.16 19.4949 195.068 20.6709C194.004 21.8469 193.472 23.5549 193.472 25.7949V36.2529H189.146Z" fill="#F5F5F5"/>
<path opacity="0.6" d="M38.919 36.6554C38.919 37.9277 38.2106 40.3777 36.6208 41.7234C36.3025 41.9684 35.9824 41.8302 36.1224 41.4732C36.5858 40.3392 37.6475 37.7159 37.149 37.1122C36.7992 36.6537 35.3476 36.6869 34.1093 36.7937C33.5426 36.8654 33.0477 36.8987 32.6611 36.9774C32.3061 37.0072 32.2326 36.6922 32.5894 36.4472C33.0477 36.1234 33.5426 35.8784 34.111 35.6982C36.1224 35.0962 38.4485 35.4584 38.7808 35.8434C38.8438 35.9169 38.9207 36.1234 38.9207 36.6537L38.919 36.6554ZM35.5592 38.9199C35.0974 39.2729 34.6124 39.5945 34.1075 39.8824C30.3962 42.1137 25.59 43.2827 21.4134 43.2827C14.6921 43.2827 8.68084 40.8029 4.1195 36.6537C3.72948 36.3352 4.05304 35.8732 4.50952 36.1234C9.42416 38.9934 15.5071 40.7294 21.8052 40.7294C26.0157 40.7175 30.1875 39.9248 34.1093 38.3914C34.3926 38.2847 34.7109 38.1394 34.989 38.0379C35.6309 37.7492 36.1958 38.4632 35.5592 38.9199ZM24.768 19.6174C24.768 17.7957 24.8397 16.7229 24.2363 15.8024C23.7011 15.0447 22.7794 14.5897 21.4939 14.6614C20.0982 14.7384 18.5993 15.6537 18.2163 17.3319C18.1428 17.7169 17.9172 18.0949 17.4537 18.1772L13.1932 17.6347C12.8889 17.5647 12.4272 17.3319 12.5776 16.7229C13.4923 11.9069 17.6059 10.2287 21.4939 10.0029H22.4086C24.5424 10.0029 27.283 10.6137 29.0372 12.2149C31.1657 14.2029 30.9401 16.8734 30.9401 19.7749V26.6472C30.9401 28.7087 31.7744 29.6222 32.6157 30.6967C32.843 31.0799 32.92 31.5314 32.5369 31.8429C31.4355 32.8263 30.3177 33.7913 29.1842 34.7374C28.8798 34.9702 28.3306 34.9947 28.1173 34.8162C26.7706 33.6874 26.4417 33.0609 25.6075 31.9147C24.1558 33.4389 22.9385 34.2807 21.4886 34.7374C20.469 34.9964 19.4204 35.1234 18.3685 35.1154C14.7131 35.1154 11.8168 32.8352 11.8168 28.3254C11.8168 24.7397 13.7232 22.3019 16.539 21.1487C19.3549 19.9937 23.4475 19.6262 24.7662 19.6192L24.768 19.6174ZM23.932 28.7034C24.8414 27.1774 24.7662 25.9279 24.7662 23.1297C23.6276 23.1297 22.4821 23.2084 21.4939 23.4412C19.6662 23.9714 18.2163 25.1229 18.2163 27.5624C18.2163 29.4699 19.208 30.7684 20.8835 30.7684C21.1144 30.7684 21.3172 30.7404 21.4939 30.6897C22.6657 30.3642 23.3968 29.7762 23.932 28.7034Z" fill="#F5F5F5"/>
</svg>
