<svg width="269" height="49" viewBox="0 0 269 49" fill="none" xmlns="http://www.w3.org/2000/svg">
<path d="M71.1037 36.8409C67.4917 36.8409 64.6217 35.8329 62.4937 33.8169C60.3657 31.7729 59.3017 28.8329 59.3017 24.9969V18.1089C59.3017 14.2729 60.3657 11.3469 62.4937 9.33093C64.6217 7.28693 67.4917 6.26493 71.1037 6.26493C74.7157 6.26493 77.5857 7.28693 79.7137 9.33093C81.8697 11.3469 82.9477 14.2729 82.9477 18.1089V24.9969C82.9477 28.8329 81.8697 31.7729 79.7137 33.8169C77.5857 35.8329 74.7157 36.8409 71.1037 36.8409ZM71.1037 32.7669C73.4277 32.7669 75.2197 32.0949 76.4797 30.7509C77.7397 29.3789 78.3697 27.5169 78.3697 25.1649V17.9409C78.3697 15.5889 77.7397 13.7409 76.4797 12.3969C75.2197 11.0249 73.4277 10.3389 71.1037 10.3389C68.8357 10.3389 67.0577 11.0249 65.7697 12.3969C64.4817 13.7409 63.8377 15.5889 63.8377 17.9409V25.1649C63.8377 27.5169 64.4817 29.3789 65.7697 30.7509C67.0577 32.0949 68.8357 32.7669 71.1037 32.7669ZM88.4435 44.6529V15.5469H92.6855V18.5289H93.3575C93.8895 17.6049 94.6875 16.7789 95.7515 16.0509C96.8435 15.3229 98.3975 14.9589 100.413 14.9589C102.149 14.9589 103.731 15.3789 105.159 16.2189C106.615 17.0589 107.777 18.2769 108.645 19.8729C109.541 21.4409 109.989 23.3449 109.989 25.5849V26.2149C109.989 28.4549 109.555 30.3729 108.687 31.9689C107.819 33.5369 106.657 34.7409 105.201 35.5809C103.745 36.4209 102.149 36.8409 100.413 36.8409C99.0695 36.8409 97.9355 36.6729 97.0115 36.3369C96.0875 36.0009 95.3455 35.5809 94.7855 35.0769C94.2255 34.5449 93.7775 33.9989 93.4415 33.4389H92.7695V44.6529H88.4435ZM99.1535 33.0609C101.057 33.0609 102.611 32.4589 103.815 31.2549C105.019 30.0509 105.621 28.3289 105.621 26.0889V25.7109C105.621 23.4989 105.005 21.7909 103.773 20.5869C102.569 19.3829 101.029 18.7809 99.1535 18.7809C97.3055 18.7809 95.7655 19.3829 94.5335 20.5869C93.3295 21.7909 92.7275 23.4989 92.7275 25.7109V26.0889C92.7275 28.3289 93.3295 30.0509 94.5335 31.2549C95.7655 32.4589 97.3055 33.0609 99.1535 33.0609ZM124.842 36.8409C122.742 36.8409 120.908 36.4069 119.34 35.5389C117.772 34.6429 116.54 33.3969 115.644 31.8009C114.776 30.1769 114.342 28.3009 114.342 26.1729V25.6689C114.342 23.5129 114.776 21.6369 115.644 20.0409C116.512 18.4169 117.716 17.1709 119.256 16.3029C120.824 15.4069 122.63 14.9589 124.674 14.9589C126.662 14.9589 128.398 15.4069 129.882 16.3029C131.394 17.1709 132.57 18.3889 133.41 19.9569C134.25 21.5249 134.67 23.3589 134.67 25.4589V27.0969H118.752C118.808 28.9169 119.41 30.3729 120.558 31.4649C121.734 32.5289 123.19 33.0609 124.926 33.0609C126.55 33.0609 127.768 32.6969 128.58 31.9689C129.42 31.2409 130.064 30.4009 130.512 29.4489L134.082 31.2969C133.69 32.0809 133.116 32.9069 132.36 33.7749C131.632 34.6429 130.666 35.3709 129.462 35.9589C128.258 36.5469 126.718 36.8409 124.842 36.8409ZM118.794 23.7789H130.26C130.148 22.2109 129.588 20.9929 128.58 20.1249C127.572 19.2289 126.256 18.7809 124.632 18.7809C123.008 18.7809 121.678 19.2289 120.642 20.1249C119.634 20.9929 119.018 22.2109 118.794 23.7789ZM139.877 36.2529V15.5469H144.119V18.6549H144.791C145.183 17.8149 145.883 17.0309 146.891 16.3029C147.899 15.5749 149.397 15.2109 151.385 15.2109C152.953 15.2109 154.339 15.5609 155.543 16.2609C156.775 16.9609 157.741 17.9549 158.441 19.2429C159.141 20.5029 159.491 22.0289 159.491 23.8209V36.2529H155.165V24.1569C155.165 22.3649 154.717 21.0489 153.821 20.2089C152.925 19.3409 151.693 18.9069 150.125 18.9069C148.333 18.9069 146.891 19.4949 145.799 20.6709C144.735 21.8469 144.203 23.5549 144.203 25.7949V36.2529H139.877ZM172.913 36.2529C171.653 36.2529 170.645 35.8749 169.889 35.1189C169.161 34.3629 168.797 33.3549 168.797 32.0949V19.2009H163.085V15.5469H168.797V8.70093H173.123V15.5469H179.297V19.2009H173.123V31.3389C173.123 32.1789 173.515 32.5989 174.299 32.5989H178.625V36.2529H172.913ZM190.764 36.8409C189.28 36.8409 187.95 36.5889 186.774 36.0849C185.626 35.5809 184.702 34.8389 184.002 33.8589C183.33 32.8789 182.994 31.6889 182.994 30.2889C182.994 28.8609 183.33 27.6849 184.002 26.7609C184.702 25.8089 185.64 25.0949 186.816 24.6189C188.02 24.1429 189.378 23.9049 190.89 23.9049H197.19V22.5609C197.19 21.3569 196.826 20.3909 196.098 19.6629C195.37 18.9349 194.25 18.5709 192.738 18.5709C191.254 18.5709 190.12 18.9209 189.336 19.6209C188.552 20.3209 188.034 21.2309 187.782 22.3509L183.75 21.0489C184.086 19.9289 184.618 18.9209 185.346 18.0249C186.102 17.1009 187.096 16.3589 188.328 15.7989C189.56 15.2389 191.044 14.9589 192.78 14.9589C195.468 14.9589 197.582 15.6449 199.122 17.0169C200.662 18.3889 201.432 20.3349 201.432 22.8549V31.3809C201.432 32.2209 201.824 32.6409 202.608 32.6409H204.372V36.2529H201.138C200.158 36.2529 199.36 36.0009 198.744 35.4969C198.128 34.9929 197.82 34.3069 197.82 33.4389V33.3129H197.19C196.966 33.7329 196.63 34.2229 196.182 34.7829C195.734 35.3429 195.076 35.8329 194.208 36.2529C193.34 36.6449 192.192 36.8409 190.764 36.8409ZM191.394 33.2709C193.13 33.2709 194.53 32.7809 195.594 31.8009C196.658 30.7929 197.19 29.4209 197.19 27.6849V27.2649H191.142C189.994 27.2649 189.07 27.5169 188.37 28.0209C187.67 28.4969 187.32 29.2109 187.32 30.1629C187.32 31.1149 187.684 31.8709 188.412 32.4309C189.14 32.9909 190.134 33.2709 191.394 33.2709ZM220.548 36.8409C218.532 36.8409 216.978 36.4769 215.886 35.7489C214.822 35.0209 214.024 34.2089 213.492 33.3129H212.82V36.2529H208.578V6.85293H212.904V18.3609H213.576C213.912 17.8009 214.36 17.2689 214.92 16.7649C215.48 16.2329 216.222 15.7989 217.146 15.4629C218.07 15.1269 219.204 14.9589 220.548 14.9589C222.284 14.9589 223.88 15.3789 225.336 16.2189C226.792 17.0589 227.954 18.2769 228.822 19.8729C229.69 21.4689 230.124 23.3729 230.124 25.5849V26.2149C230.124 28.4549 229.676 30.3729 228.78 31.9689C227.912 33.5369 226.75 34.7409 225.294 35.5809C223.866 36.4209 222.284 36.8409 220.548 36.8409ZM219.288 33.0609C221.164 33.0609 222.704 32.4589 223.908 31.2549C225.14 30.0509 225.756 28.3289 225.756 26.0889V25.7109C225.756 23.4989 225.154 21.7909 223.95 20.5869C222.746 19.3829 221.192 18.7809 219.288 18.7809C217.44 18.7809 215.9 19.3829 214.668 20.5869C213.464 21.7909 212.862 23.4989 212.862 25.7109V26.0889C212.862 28.3289 213.464 30.0509 214.668 31.2549C215.9 32.4589 217.44 33.0609 219.288 33.0609ZM235.484 36.2529V6.85293H239.81V36.2529H235.484ZM255.723 36.8409C253.623 36.8409 251.789 36.4069 250.221 35.5389C248.653 34.6429 247.421 33.3969 246.525 31.8009C245.657 30.1769 245.223 28.3009 245.223 26.1729V25.6689C245.223 23.5129 245.657 21.6369 246.525 20.0409C247.393 18.4169 248.597 17.1709 250.137 16.3029C251.705 15.4069 253.511 14.9589 255.555 14.9589C257.543 14.9589 259.279 15.4069 260.763 16.3029C262.275 17.1709 263.451 18.3889 264.291 19.9569C265.131 21.5249 265.551 23.3589 265.551 25.4589V27.0969H249.633C249.689 28.9169 250.291 30.3729 251.439 31.4649C252.615 32.5289 254.071 33.0609 255.807 33.0609C257.431 33.0609 258.649 32.6969 259.461 31.9689C260.301 31.2409 260.945 30.4009 261.393 29.4489L264.963 31.2969C264.571 32.0809 263.997 32.9069 263.241 33.7749C262.513 34.6429 261.547 35.3709 260.343 35.9589C259.139 36.5469 257.599 36.8409 255.723 36.8409ZM249.675 23.7789H261.141C261.029 22.2109 260.469 20.9929 259.461 20.1249C258.453 19.2289 257.137 18.7809 255.513 18.7809C253.889 18.7809 252.559 19.2289 251.523 20.1249C250.515 20.9929 249.899 22.2109 249.675 23.7789Z" fill="#F5F5F5"/>
<path opacity="0.6" d="M40.9805 26.4698C43.0301 26.4698 44.9113 27.1193 46.4548 28.1902C47.4822 26.0971 47.997 23.8291 47.997 21.5619C47.997 14.3251 42.1851 6.25293 32.1437 6.25293C27.7546 6.25293 23.3274 7.91719 20.0249 11.0927L16.0224 14.9393C15.9089 15.1126 15.8335 15.1688 15.728 15.3372L32.6211 31.5307C34.1559 28.5826 37.3046 26.4698 40.9805 26.4698ZM31.7761 33.84L14.3045 17.0921C13.3555 18.6854 12.884 20.3139 12.884 21.8932C12.884 24.0362 13.7414 26.1006 15.3949 27.6897L18.0749 30.2658L11.3104 35.9739C10.7848 36.4129 10.5188 37.0282 10.5188 37.6451C10.5188 38.2086 10.7408 38.7731 11.1898 39.2062L13.6832 41.6068C13.8956 41.8119 14.1483 41.9745 14.4267 42.0854C14.7051 42.1963 15.0036 42.2533 15.3051 42.2529C15.9457 42.2529 16.5843 41.9968 17.0405 41.4906L22.974 34.9733L25.6064 37.503C27.336 39.1652 29.5906 39.9759 31.8577 39.9759C32.1895 39.9759 32.5317 39.9571 32.8623 39.9225C32.0891 38.6163 31.6087 37.1226 31.6087 35.5137C31.6077 34.9631 31.615 34.4296 31.7761 33.84ZM40.9146 28.7791C37.0344 28.7791 33.8857 31.7342 33.8857 35.4544C33.8857 39.1115 37.0337 42.1922 40.9146 42.1922C44.7297 42.1922 47.9435 39.2371 47.9435 35.4544C47.9442 31.7974 44.7956 28.7791 40.9146 28.7791Z" fill="#FF5F08"/>
</svg>
