<svg width="152" height="39" viewBox="0 0 152 39" fill="none" xmlns="http://www.w3.org/2000/svg">
<path d="M10.7121 30.8409C8.08013 30.8409 5.89613 30.2529 4.16013 29.0769C2.42413 27.9009 1.36013 26.1229 0.968133 23.7429L5.00013 22.7769C5.22413 23.9249 5.60213 24.8349 6.13413 25.5069C6.66613 26.1789 7.32413 26.6549 8.10813 26.9349C8.92013 27.2149 9.78813 27.3549 10.7121 27.3549C12.0841 27.3549 13.1341 27.0889 13.8621 26.5569C14.6181 26.0249 14.9961 25.3389 14.9961 24.4989C14.9961 23.6589 14.6461 23.0429 13.9461 22.6509C13.2461 22.2589 12.2101 21.9369 10.8381 21.6849L9.41013 21.4329C8.01013 21.1809 6.73613 20.8169 5.58813 20.3409C4.44013 19.8649 3.53013 19.2069 2.85813 18.3669C2.18613 17.5269 1.85013 16.4489 1.85013 15.1329C1.85013 13.1729 2.57813 11.6609 4.03413 10.5969C5.49013 9.50493 7.42213 8.95893 9.83013 8.95893C12.1541 8.95893 14.0581 9.49093 15.5421 10.5549C17.0541 11.5909 18.0341 13.0049 18.4821 14.7969L14.4501 15.9309C14.1981 14.6709 13.6661 13.7889 12.8541 13.2849C12.0421 12.7529 11.0341 12.4869 9.83013 12.4869C8.65413 12.4869 7.73013 12.7109 7.05813 13.1589C6.38613 13.5789 6.05013 14.1809 6.05013 14.9649C6.05013 15.8049 6.37213 16.4209 7.01613 16.8129C7.68813 17.2049 8.58413 17.4989 9.70413 17.6949L11.1741 17.9469C12.6581 18.1989 14.0161 18.5489 15.2481 18.9969C16.4801 19.4449 17.4461 20.0889 18.1461 20.9289C18.8741 21.7689 19.2381 22.8889 19.2381 24.2889C19.2381 26.3609 18.4681 27.9709 16.9281 29.1189C15.3881 30.2669 13.3161 30.8409 10.7121 30.8409ZM24.2945 30.2529V0.852928H28.6205V12.4869H29.2925C29.5725 11.9549 29.9645 11.4369 30.4685 10.9329C31.0005 10.4289 31.6865 10.0229 32.5265 9.71493C33.3945 9.37893 34.4865 9.21093 35.8025 9.21093C37.3705 9.21093 38.7565 9.56093 39.9605 10.2609C41.1925 10.9609 42.1585 11.9549 42.8585 13.2429C43.5585 14.5029 43.9085 16.0289 43.9085 17.8209V30.2529H39.5825V18.1569C39.5825 16.3649 39.1345 15.0489 38.2385 14.2089C37.3425 13.3409 36.1105 12.9069 34.5425 12.9069C32.7505 12.9069 31.3085 13.4949 30.2165 14.6709C29.1525 15.8469 28.6205 17.5549 28.6205 19.7949V30.2529H24.2945ZM59.8364 30.8409C57.7644 30.8409 55.9164 30.4209 54.2924 29.5809C52.6964 28.7129 51.4364 27.4809 50.5124 25.8849C49.5884 24.2889 49.1264 22.3989 49.1264 20.2149V19.5849C49.1264 17.4009 49.5884 15.5249 50.5124 13.9569C51.4364 12.3609 52.6964 11.1289 54.2924 10.2609C55.9164 9.39293 57.7644 8.95893 59.8364 8.95893C61.9084 8.95893 63.7564 9.39293 65.3804 10.2609C67.0044 11.1289 68.2784 12.3609 69.2024 13.9569C70.1264 15.5249 70.5884 17.4009 70.5884 19.5849V20.2149C70.5884 22.3989 70.1264 24.2889 69.2024 25.8849C68.2784 27.4809 67.0044 28.7129 65.3804 29.5809C63.7564 30.4209 61.9084 30.8409 59.8364 30.8409ZM59.8364 26.9769C61.7404 26.9769 63.2804 26.3749 64.4564 25.1709C65.6604 23.9389 66.2624 22.2449 66.2624 20.0889V19.7109C66.2624 17.5549 65.6744 15.8749 64.4984 14.6709C63.3224 13.4389 61.7684 12.8229 59.8364 12.8229C57.9604 12.8229 56.4204 13.4389 55.2164 14.6709C54.0404 15.8749 53.4524 17.5549 53.4524 19.7109V20.0889C53.4524 22.2449 54.0404 23.9389 55.2164 25.1709C56.4204 26.3749 57.9604 26.9769 59.8364 26.9769ZM75.9742 38.6529V9.54693H80.2162V12.5289H80.8882C81.4202 11.6049 82.2182 10.7789 83.2822 10.0509C84.3742 9.32293 85.9282 8.95893 87.9442 8.95893C89.6802 8.95893 91.2622 9.37893 92.6902 10.2189C94.1462 11.0589 95.3082 12.2769 96.1762 13.8729C97.0722 15.4409 97.5202 17.3449 97.5202 19.5849V20.2149C97.5202 22.4549 97.0862 24.3729 96.2182 25.9689C95.3502 27.5369 94.1882 28.7409 92.7322 29.5809C91.2762 30.4209 89.6802 30.8409 87.9442 30.8409C86.6002 30.8409 85.4662 30.6729 84.5422 30.3369C83.6182 30.0009 82.8762 29.5809 82.3162 29.0769C81.7562 28.5449 81.3082 27.9989 80.9722 27.4389H80.3002V38.6529H75.9742ZM86.6842 27.0609C88.5882 27.0609 90.1422 26.4589 91.3462 25.2549C92.5502 24.0509 93.1522 22.3289 93.1522 20.0889V19.7109C93.1522 17.4989 92.5362 15.7909 91.3042 14.5869C90.1002 13.3829 88.5602 12.7809 86.6842 12.7809C84.8362 12.7809 83.2962 13.3829 82.0642 14.5869C80.8602 15.7909 80.2582 17.4989 80.2582 19.7109V20.0889C80.2582 22.3289 80.8602 24.0509 82.0642 25.2549C83.2962 26.4589 84.8362 27.0609 86.6842 27.0609ZM102.88 30.2529V9.54693H107.206V30.2529H102.88ZM105.064 6.73293C104.224 6.73293 103.51 6.46693 102.922 5.93493C102.362 5.37493 102.082 4.66093 102.082 3.79293C102.082 2.92493 102.362 2.22493 102.922 1.69293C103.51 1.13293 104.224 0.852928 105.064 0.852928C105.932 0.852928 106.646 1.13293 107.206 1.69293C107.766 2.22493 108.046 2.92493 108.046 3.79293C108.046 4.66093 107.766 5.37493 107.206 5.93493C106.646 6.46693 105.932 6.73293 105.064 6.73293ZM117.365 30.2529V13.2009H111.569V9.54693H117.365V5.01093C117.365 3.75093 117.743 2.74293 118.499 1.98693C119.255 1.23093 120.263 0.852928 121.523 0.852928H126.857V4.50693H122.909C122.097 4.50693 121.691 4.92693 121.691 5.76693V9.54693H127.655V13.2009H121.691V30.2529H117.365ZM134.478 38.6529V34.8729H146.028C146.812 34.8729 147.204 34.4529 147.204 33.6129V27.2289H146.532C146.28 27.7889 145.888 28.3349 145.356 28.8669C144.852 29.3709 144.166 29.7909 143.298 30.1269C142.43 30.4629 141.338 30.6309 140.022 30.6309C138.454 30.6309 137.054 30.2809 135.822 29.5809C134.59 28.8809 133.624 27.8869 132.924 26.5989C132.224 25.3109 131.874 23.7849 131.874 22.0209V9.54693H136.2V21.6849C136.2 23.4769 136.648 24.8069 137.544 25.6749C138.44 26.5149 139.686 26.9349 141.282 26.9349C143.046 26.9349 144.46 26.3469 145.524 25.1709C146.616 23.9949 147.162 22.2869 147.162 20.0469V9.54693H151.488V34.4949C151.488 35.7549 151.11 36.7629 150.354 37.5189C149.626 38.2749 148.618 38.6529 147.33 38.6529H134.478Z" fill="#F5F5F5"/>
</svg>
