<svg width="143" height="43" viewBox="0 0 143 43" fill="none" xmlns="http://www.w3.org/2000/svg">
<path d="M49.6645 36.8409C47.0325 36.8409 44.8485 36.2529 43.1125 35.0769C41.3765 33.9009 40.3125 32.1229 39.9205 29.7429L43.9525 28.7769C44.1765 29.9249 44.5545 30.8349 45.0865 31.5069C45.6185 32.1789 46.2765 32.6549 47.0605 32.9349C47.8725 33.2149 48.7405 33.3549 49.6645 33.3549C51.0365 33.3549 52.0865 33.0889 52.8145 32.5569C53.5705 32.0249 53.9485 31.3389 53.9485 30.4989C53.9485 29.6589 53.5985 29.0429 52.8985 28.6509C52.1985 28.2589 51.1625 27.9369 49.7905 27.6849L48.3625 27.4329C46.9625 27.1809 45.6885 26.8169 44.5405 26.3409C43.3925 25.8649 42.4825 25.2069 41.8105 24.3669C41.1385 23.5269 40.8025 22.4489 40.8025 21.1329C40.8025 19.1729 41.5305 17.6609 42.9865 16.5969C44.4425 15.5049 46.3745 14.9589 48.7825 14.9589C51.1065 14.9589 53.0105 15.4909 54.4945 16.5549C56.0065 17.5909 56.9865 19.0049 57.4345 20.7969L53.4025 21.9309C53.1505 20.6709 52.6185 19.7889 51.8065 19.2849C50.9945 18.7529 49.9865 18.4869 48.7825 18.4869C47.6065 18.4869 46.6825 18.7109 46.0105 19.1589C45.3385 19.5789 45.0025 20.1809 45.0025 20.9649C45.0025 21.8049 45.3245 22.4209 45.9685 22.8129C46.6405 23.2049 47.5365 23.4989 48.6565 23.6949L50.1265 23.9469C51.6105 24.1989 52.9685 24.5489 54.2005 24.9969C55.4325 25.4449 56.3985 26.0889 57.0985 26.9289C57.8265 27.7689 58.1905 28.8889 58.1905 30.2889C58.1905 32.3609 57.4205 33.9709 55.8805 35.1189C54.3405 36.2669 52.2685 36.8409 49.6645 36.8409ZM63.2469 36.2529V6.85293H67.5729V36.2529H63.2469ZM80.419 36.8409C78.935 36.8409 77.605 36.5889 76.429 36.0849C75.281 35.5809 74.357 34.8389 73.657 33.8589C72.985 32.8789 72.649 31.6889 72.649 30.2889C72.649 28.8609 72.985 27.6849 73.657 26.7609C74.357 25.8089 75.295 25.0949 76.471 24.6189C77.675 24.1429 79.033 23.9049 80.545 23.9049H86.845V22.5609C86.845 21.3569 86.481 20.3909 85.753 19.6629C85.025 18.9349 83.905 18.5709 82.393 18.5709C80.909 18.5709 79.775 18.9209 78.991 19.6209C78.207 20.3209 77.689 21.2309 77.437 22.3509L73.405 21.0489C73.741 19.9289 74.273 18.9209 75.001 18.0249C75.757 17.1009 76.751 16.3589 77.983 15.7989C79.215 15.2389 80.699 14.9589 82.435 14.9589C85.123 14.9589 87.237 15.6449 88.777 17.0169C90.317 18.3889 91.087 20.3349 91.087 22.8549V31.3809C91.087 32.2209 91.479 32.6409 92.263 32.6409H94.027V36.2529H90.793C89.813 36.2529 89.015 36.0009 88.399 35.4969C87.783 34.9929 87.475 34.3069 87.475 33.4389V33.3129H86.845C86.621 33.7329 86.285 34.2229 85.837 34.7829C85.389 35.3429 84.731 35.8329 83.863 36.2529C82.995 36.6449 81.847 36.8409 80.419 36.8409ZM81.049 33.2709C82.785 33.2709 84.185 32.7809 85.249 31.8009C86.313 30.7929 86.845 29.4209 86.845 27.6849V27.2649H80.797C79.649 27.2649 78.725 27.5169 78.025 28.0209C77.325 28.4969 76.975 29.2109 76.975 30.1629C76.975 31.1149 77.339 31.8709 78.067 32.4309C78.795 32.9909 79.789 33.2709 81.049 33.2709ZM107.359 36.8409C105.371 36.8409 103.565 36.4209 101.941 35.5809C100.345 34.7409 99.0711 33.5229 98.1191 31.9269C97.1951 30.3309 96.7331 28.4129 96.7331 26.1729V25.6269C96.7331 23.3869 97.1951 21.4829 98.1191 19.9149C99.0711 18.3189 100.345 17.1009 101.941 16.2609C103.565 15.3929 105.371 14.9589 107.359 14.9589C109.347 14.9589 111.041 15.3229 112.441 16.0509C113.841 16.7789 114.961 17.7449 115.801 18.9489C116.669 20.1529 117.229 21.4829 117.481 22.9389L113.281 23.8209C113.141 22.8969 112.847 22.0569 112.399 21.3009C111.951 20.5449 111.321 19.9429 110.509 19.4949C109.697 19.0469 108.675 18.8229 107.443 18.8229C106.239 18.8229 105.147 19.1029 104.167 19.6629C103.215 20.1949 102.459 20.9789 101.899 22.0149C101.339 23.0229 101.059 24.2549 101.059 25.7109V26.0889C101.059 27.5449 101.339 28.7909 101.899 29.8269C102.459 30.8629 103.215 31.6469 104.167 32.1789C105.147 32.7109 106.239 32.9769 107.443 32.9769C109.263 32.9769 110.649 32.5149 111.601 31.5909C112.553 30.6389 113.155 29.4349 113.407 27.9789L117.607 28.9449C117.271 30.3729 116.669 31.6889 115.801 32.8929C114.961 34.0969 113.841 35.0629 112.441 35.7909C111.041 36.4909 109.347 36.8409 107.359 36.8409ZM122.597 36.2529V6.85293H126.923V23.6109H127.595L135.743 15.5469H141.497L131.039 25.5849L141.833 36.2529H136.121L127.595 27.6429H126.923V36.2529H122.597Z" fill="#F5F5F5"/>
<g clip-path="url(#clip0_24_6098)">
<path d="M8.79206 26.8874C8.79206 29.0601 7.03616 30.8161 4.8635 30.8161C2.69084 30.8161 0.934937 29.0601 0.934937 26.8874C0.934937 24.7149 2.69084 22.959 4.86365 22.959H8.79192V26.8875L8.79206 26.8874ZM10.7564 26.8874C10.7564 24.7149 12.5123 22.959 14.685 22.959C16.8576 22.959 18.6135 24.7149 18.6135 26.8875V36.7089C18.6135 38.8815 16.8576 40.6376 14.6848 40.6376C12.5125 40.6376 10.7564 38.8815 10.7564 36.7089V26.8875V26.8874Z" fill="#E01E5A"/>
<path d="M14.6847 11.1137C12.512 11.1137 10.756 9.35781 10.756 7.18516C10.756 5.0125 12.5122 3.25659 14.6847 3.25659C16.8572 3.25659 18.6133 5.0125 18.6133 7.18516V11.1139H14.6845L14.6847 11.1137ZM14.6847 13.1078C16.8574 13.1078 18.6133 14.8637 18.6133 17.0364C18.6133 19.209 16.8574 20.9649 14.6845 20.9649H4.83362C2.66082 20.9649 0.904907 19.209 0.904907 17.0362C0.904907 14.8639 2.66082 13.1078 4.83347 13.1078H14.6845H14.6847Z" fill="#353535"/>
<path d="M30.4285 17.0364C30.4285 14.8637 32.1844 13.1077 34.357 13.1077C36.5296 13.1077 38.2857 14.8637 38.2857 17.0364C38.2857 19.209 36.5296 20.9649 34.357 20.9649H30.4285V17.0362V17.0364ZM28.4642 17.0364C28.4642 19.209 26.7081 20.9649 24.5355 20.9649C22.363 20.9649 20.6071 19.209 20.6071 17.0362V7.1853C20.6071 5.0125 22.363 3.25659 24.5355 3.25659C26.708 3.25659 28.464 5.0125 28.464 7.18516V17.0362L28.4642 17.0364Z" fill="#E8E4D8"/>
<path d="M24.5355 32.7805C26.7081 32.7805 28.4642 34.5364 28.4642 36.7089C28.4642 38.8815 26.7081 40.6376 24.5355 40.6376C22.363 40.6376 20.6071 38.8815 20.6071 36.7089V32.7805H24.5356H24.5355ZM24.5355 30.8161C22.363 30.8161 20.6071 29.0601 20.6071 26.8874C20.6071 24.7149 22.363 22.959 24.5356 22.959H34.3867C36.5594 22.959 38.3154 24.7149 38.3154 26.8875C38.3154 29.0601 36.5594 30.8161 34.3867 30.8161H24.5356H24.5355Z" fill="#ECB22E"/>
</g>
<defs>
<clipPath id="clip0_24_6098">
<rect width="37.5" height="37.5" fill="white" transform="translate(0.904907 3.25659)"/>
</clipPath>
</defs>
</svg>
