<svg width="266" height="258" viewBox="0 0 266 258" fill="none" xmlns="http://www.w3.org/2000/svg">
<path d="M1.07004 251.131C-1.7047 248.67 10.624 248.852 16.709 248.738C17.5852 249.969 18.2302 249.991 19.8123 250.276C20.5425 252.156 3.84479 253.591 1.07004 251.131Z" fill="#A0A0A0"/>
<path d="M95.942 65.1465C95.3777 67.1886 94.9572 73.8241 97.1729 79.269" stroke="white" stroke-width="1.66883" stroke-linecap="round"/>
<path d="M117.451 30.1758C122.617 34.2429 130.635 43.0217 122.842 46.593C122.384 46.8022 122.132 47.3086 122.263 47.7915C123.796 53.4694 123.553 65.1938 111.659 73.1336C111.482 73.2515 111.345 73.4271 111.281 73.6289L108.942 80.9494" stroke="white" stroke-width="1.66883" stroke-linecap="round"/>
<path d="M112.338 60.1016C112.154 60.9086 112.631 62.5764 116.003 62.7916" stroke="white" stroke-width="1.66883" stroke-linecap="round"/>
<path d="M94.1467 80.6042C99.4054 78.7198 109.419 76.4138 109.419 82.9324V84.0637C109.419 84.8274 110.292 85.2601 110.895 84.7923" stroke="#A0A0A0" stroke-width="1.66883" stroke-linecap="round"/>
<path d="M110.895 84.7909C119.337 78.2502 136.514 65.1459 142.567 55.2266" stroke="white" stroke-width="1.66883" stroke-linecap="round"/>
<path d="M121.383 38.9177C121.383 40.686 120.848 42.241 120.04 43.3272C119.231 44.4129 118.208 44.9702 117.18 44.9702C116.152 44.9702 115.128 44.4129 114.32 43.3272C113.511 42.241 112.977 40.686 112.977 38.9177C112.977 37.1495 113.511 35.5944 114.32 34.5082C115.128 33.4225 116.152 32.8652 117.18 32.8652C118.208 32.8652 119.231 33.4225 120.04 34.5082C120.848 35.5944 121.383 37.1495 121.383 38.9177Z" stroke="white" stroke-width="1.66883" stroke-linecap="round"/>
<path d="M101.88 44.2984L112.304 40.5996" stroke="white" stroke-width="1.66883" stroke-linecap="round"/>
<path d="M109.95 37.2371C110.216 36.1165 111.193 33.5382 112.977 32.1934" stroke="white" stroke-width="1.66883" stroke-linecap="round"/>
<path d="M117.684 39.9277C118.427 39.9277 119.029 39.476 119.029 38.9189C119.029 38.3618 118.427 37.9102 117.684 37.9102C116.941 37.9102 116.339 38.3618 116.339 38.9189C116.339 39.476 116.941 39.9277 117.684 39.9277Z" fill="white"/>
<path d="M122.806 107.108C129.561 103.208 145.66 88.2461 156.017 59.5977" stroke="white" stroke-width="1.66883" stroke-linecap="round"/>
<path d="M113.11 150.217C112.491 143.606 111.995 129.02 114.968 123.555C117.941 118.089 120.797 110.27 122.806 107.107" stroke="#A0A0A0" stroke-width="1.66883" stroke-linecap="round"/>
<path d="M94.1467 80.2773L55.478 125.671" stroke="#A0A0A0" stroke-width="1.66883" stroke-linecap="round"/>
<path d="M55.478 125.809C58.3449 125.422 65.7975 125.61 72.6771 129.462C81.2769 134.277 90.382 142.745 112.977 150.216" stroke="#A0A0A0" stroke-width="1.66883" stroke-linecap="round"/>
<path d="M112.977 150.217L105.243 155.597" stroke="#A0A0A0" stroke-width="1.66883" stroke-linecap="round"/>
<path d="M55.4823 125.67C54.9585 127.294 54.4385 131.081 58.8403 135.757" stroke="#A0A0A0" stroke-width="1.66883" stroke-linecap="round"/>
<path d="M83.7229 92.7188C77.4654 97.9311 61.5982 108.927 48.1891 111.214C45.0605 112.503 39.6746 116.124 43.1609 120.294C46.6472 124.464 48.9715 129.542 49.698 131.559C50.2567 133.409 51.6474 135.988 54.9997 130.069" stroke="#A0A0A0" stroke-width="1.66883" stroke-linecap="round"/>
<path d="M44.3816 121.973C41.7838 123.505 35.7259 126.432 32.2769 125.887C28.8279 125.342 26.5285 126.795 25.81 127.589C25.4231 128.213 25.1799 129.495 27.3023 129.631C29.4248 129.767 31.9453 129.688 32.9401 129.631" stroke="#A0A0A0" stroke-width="1.66883" stroke-linecap="round"/>
<path d="M35.6392 127.352C34.4757 128.655 30.5198 131.618 24.0041 133.041C22.7298 133.278 21.0122 134.64 23.3393 136.241C25.3338 137.485 30.8522 136.347 33.6446 134.64" stroke="#A0A0A0" stroke-width="1.66883" stroke-linecap="round"/>
<path d="M33.6144 134.414C31.4774 135.49 27.6307 138.354 29.3404 141.207C29.8883 141.773 32.2006 141.818 37.0665 137.471L40.683 134.414" stroke="#A0A0A0" stroke-width="1.66883" stroke-linecap="round"/>
<path d="M40.8639 134.478L37.1714 137.562C36.1084 140.361 34.4859 147.159 38.8498 143.389C42.0388 140.133 41.3674 137.357 42.7101 136.534C44.0528 135.712 47.0739 132.536 48.4167 131.051" stroke="#A0A0A0" stroke-width="1.66883" stroke-linecap="round"/>
<path d="M41.0223 129.033C40.575 130.417 40.2171 133.633 42.3642 135.422" stroke="#A0A0A0" stroke-width="1.66883" stroke-linecap="round"/>
<path d="M81.7054 242.349C83.8206 241.789 88.0842 238.953 88.2176 232.094C88.3514 225.234 91.1678 213.432 92.559 208.388L106.252 147.863" stroke="#A0A0A0" stroke-width="1.66883" stroke-linecap="round"/>
<path d="M111.295 50.3505C111.667 50.3505 111.968 50.1247 111.968 49.8462C111.968 49.5676 111.667 49.3418 111.295 49.3418C110.924 49.3418 110.623 49.5676 110.623 49.8462C110.623 50.1247 110.924 50.3505 111.295 50.3505Z" fill="white"/>
<path d="M113.481 52.3678C113.759 52.3678 113.985 52.2173 113.985 52.0316C113.985 51.8459 113.759 51.6953 113.481 51.6953C113.202 51.6953 112.977 51.8459 112.977 52.0316C112.977 52.2173 113.202 52.3678 113.481 52.3678Z" fill="white"/>
<path d="M108.605 53.7141C108.791 53.7141 108.942 53.4131 108.942 53.0416C108.942 52.6702 108.791 52.3691 108.605 52.3691C108.42 52.3691 108.269 52.6702 108.269 53.0416C108.269 53.4131 108.42 53.7141 108.605 53.7141Z" fill="white"/>
<path d="M58.9227 45.5324C67.0945 30.3436 79.2961 28.434 84.3759 29.3775C94.9253 13.2226 109.494 7.89319 118.369 12.7231C125.469 16.5868 119.653 26.3242 115.857 30.71L112.173 25.3807C109.628 30.3104 102.349 28.4894 98.7768 27.3791C101.847 33.8188 106.748 50.4625 96.4323 65.5182C86.1175 80.5739 73.1563 80.84 66.6253 76.5101C60.597 72.2356 50.7509 60.7216 58.9227 45.5324Z" fill="white"/>
<path d="M54.8054 244.367C55.92 246.112 59.6323 249.404 65.5654 248.619" stroke="#A0A0A0" stroke-width="1.66883" stroke-linecap="round"/>
<path d="M64.1501 126.68C62.0463 132.698 52.1892 145.069 43.3846 160.616C37.5148 170.368 23.5159 192.145 14.4787 201.239C13.2605 202.966 12.1197 206.889 17.3028 208.761C21.2898 210.433 23.084 214.312 23.6156 218.458C24.2801 223.64 32.7525 227.485 38.4008 223.64C42.9028 220.575 55.8479 198.5 65.6276 186.026C68.1176 182.85 70.4024 180.296 72.2904 178.838" stroke="#A0A0A0" stroke-width="1.66883" stroke-linecap="round"/>
<path d="M65.8694 186.195L54.8054 244.366C60.4291 242.866 75.8771 240.033 85.4041 240.033" stroke="#A0A0A0" stroke-width="1.66883" stroke-linecap="round"/>
<path d="M10.8017 239.559C1.63663 221.793 10.1326 209.971 14.7275 207.043C21.8505 209.283 22.0429 216.752 23.198 220.299L20.5321 227.599C18.7482 230.739 19.7888 236.881 20.5321 239.559C23.6134 251.967 18.9628 253.16 16.6805 249.837L10.8017 239.559Z" fill="white"/>
<path d="M59.6676 255.849C56.5804 253.405 62.6863 252.457 68.882 252.1C71.0405 254.03 85.3771 254.688 86.0766 255.135C79.481 257.279 62.3731 257.992 59.6676 255.849Z" fill="#A0A0A0"/>
<path d="M90.6769 254.803C67.2699 258.012 62.412 248.754 62.9089 243.342C66.9344 241.661 78.004 241.05 83.2224 240.668C81.7313 244.183 83.5949 243.724 84.8995 244.679C86.5771 245.825 91.236 247.226 93.8452 247.354C105.586 247.927 96.3922 253.976 90.6769 254.803Z" fill="white"/>
<path d="M145.816 25.6282C146.888 25.0118 149.099 24.7876 149.368 28.8226" stroke="white" stroke-width="1.66883" stroke-linecap="round"/>
<path d="M143.652 36.3884C143.764 34.8194 143.652 31.2438 142.307 29.4953C140.626 27.3097 140.29 23.1066 143.652 23.4429C144.72 23.5496 145.399 24.4364 145.816 25.6285C146.45 27.4405 146.478 29.9579 146.342 31.5128" stroke="white" stroke-width="1.66883" stroke-linecap="round"/>
<path d="M141.539 40.7606C141.402 39.2475 140.828 35.7505 139.617 33.8675C138.104 31.5138 137.936 25.4614 141.13 26.1339" stroke="white" stroke-width="1.66883" stroke-linecap="round"/>
<path d="M143.652 52.1935C142.812 52.1935 141.03 51.3865 140.626 48.1585C140.223 44.9305 138.777 42.8908 138.104 42.2741C137.712 41.3215 137.297 39.3487 138.777 39.0798C139.648 38.9214 140.678 39.7657 141.539 40.761L142.98 42.7785" stroke="white" stroke-width="1.66883" stroke-linecap="round"/>
<path d="M151.386 37.2296C151.778 36.5012 152.159 34.6404 150.545 33.0265C148.528 31.009 149.032 29.1596 150.209 28.6553C151.386 28.1509 153.067 28.4871 154.748 33.5309C156.43 37.9021 158.918 48.9983 156.093 58.4133" stroke="white" stroke-width="1.66883" stroke-linecap="round"/>
<path d="M159.066 10.923L161.704 6.12695" stroke="white" stroke-width="1.66883" stroke-linecap="round"/>
<path d="M136.255 13.1875L140.962 16.2137" stroke="white" stroke-width="1.66883" stroke-linecap="round"/>
<path d="M144.796 1L149.401 11.5888" stroke="white" stroke-width="1.66883" stroke-linecap="round"/>
<path d="M161.097 25.4677C161.097 21.9376 161.918 16.0448 166.188 21.3817C168.816 25.2176 169.801 32.856 167.831 36.7251" stroke="white" stroke-width="1.66883" stroke-linecap="round"/>
<path d="M152.393 28.7192C151.846 26.7735 151.572 23.1489 154.856 24.2162L158.469 31.5544" stroke="white" stroke-width="1.66883" stroke-linecap="round"/>
<path d="M158.469 31.5554L154.856 24.2172C154.583 22.0491 156.006 18.5468 159.455 21.3819L161.097 25.468L162.739 29.554" stroke="white" stroke-width="1.66883" stroke-linecap="round"/>
<path d="M162.819 41.9375C161.922 43.8992 160.969 48.3599 164.332 50.5119" stroke="white" stroke-width="1.66883" stroke-linecap="round"/>
<path d="M167.022 39.0792C167.806 36.8378 170.182 32.388 173.41 32.5225C176.638 32.657 174.083 36.8936 173.41 38.4067L168.703 47.6536C167.694 50.1755 166.181 54.7148 169.712 59.9267C173.242 64.6342 185.417 76.7392 198.531 78.7567" stroke="white" stroke-width="1.66883" stroke-linecap="round"/>
<path d="M196.107 149.031C197.116 152.618 200.815 160.934 207.54 165.507M185.683 143.147L198.965 147.014L185.683 143.147ZM198.293 153.739C199.75 148.975 201.622 137.162 197.452 128.016C192.24 116.583 189.046 101.956 191.568 92.205C193.585 84.4041 200.927 83.2383 204.345 83.6307C209.725 84.248 219.006 90.6919 218.468 108.177C217.795 130.033 212.751 148.695 205.522 163.154L198.293 153.739Z" stroke="#A0A0A0" stroke-width="1.66883" stroke-linecap="round"/>
<path d="M192.913 161.641C192.913 153.066 192.857 147.014 191.904 144.66C204.816 149.502 220.485 148.247 226.706 147.014C226.874 147.406 228.253 151.15 232.422 162.986C237.634 177.781 233.935 227.209 232.422 232.757C230.909 238.306 226.874 238.474 220.99 237.801C216.282 237.263 210.062 224.351 207.54 217.963C195.771 195.938 192.913 171.702 192.913 161.641Z" fill="#DC4F13"/>
<path d="M238.565 116.932C240.233 121.023 244.005 131.424 245.754 140.301C240.934 143.72 227.378 150.209 211.238 148.191L185.683 143.148C184.675 134.685 184.556 113.132 191.281 93.8988C191.281 92.1617 193.047 87.2965 196.948 85.1445" stroke="#A0A0A0" stroke-width="1.66883" stroke-linecap="round"/>
<path d="M237.13 131.548C237.058 130.468 239.05 122.615 238.565 116.933C238.295 113.764 237.949 109.811 237.516 104.996C236.305 91.5459 231.519 81.2345 229.278 77.7597C227.036 74.2852 221.732 72.1998 217.529 73.7129" stroke="#A0A0A0" stroke-width="1.66883" stroke-linecap="round"/>
<path d="M233.902 221.646C235.351 190.113 228.924 160.319 225.361 148.695C234.347 147.483 241.426 143.598 244.023 142.307C246.632 152.144 250.45 177.401 252.02 188.968C255.933 201.635 255.1 219.85 254.194 227.374C254.774 231.955 251.054 233.775 249.121 234.112C238.83 237.481 234.687 227.205 233.902 221.646Z" fill="#DC4F13"/>
<path d="M152.059 28.1504C154.917 32.7458 159.153 43.8868 155.925 59.7577C156.206 63.1764 161.194 74.4807 165.004 79.5964C170.889 87.4983 183.162 96.4089 190.727 98.9308" stroke="white" stroke-width="1.66883" stroke-linecap="round"/>
<path d="M204.222 76.1385C201.997 74.7696 185.266 76.089 182.013 55.0428C176.444 55.1081 173.416 50.5462 177.665 48.5939C182.195 46.258 181.855 41.9695 181.035 39.4426C179.73 36.1288 179.651 32.6496 179.932 31.9219" stroke="white" stroke-width="1.66883" stroke-linecap="round"/>
<path d="M186.634 47.4773C185.838 47.4866 185.182 46.5267 185.168 45.3333C185.154 44.1399 185.787 43.1649 186.583 43.1555C187.379 43.1462 188.035 44.1061 188.049 45.2995C188.063 46.493 187.429 47.468 186.634 47.4773Z" fill="white"/>
<path d="M190.029 40.4949C189.1 39.5019 186.697 38.049 184.52 40.1831" stroke="white" stroke-width="1.66883" stroke-linecap="round"/>
<path d="M196.341 59.8359C194.633 62.4637 192.758 63.2099 189.117 61.5142" stroke="white" stroke-width="1.66883" stroke-linecap="round"/>
<path d="M210.32 41.418C210.716 42.2868 211.047 44.2593 209.208 45.1981" stroke="white" stroke-width="1.66883" stroke-linecap="round"/>
<path d="M229.922 32.4954C232.088 44.35 225.309 53.2737 220.394 60.1339C215.145 57.298 206.542 50.5541 209.841 49.8262C213.309 49.0612 216.967 39.6015 213.599 36.7077C209.648 33.3125 206.086 38.4495 205.407 42.3446L202.225 36.8409C203.124 32.9913 203.477 26.2386 197.69 30.0242C191.902 33.8096 183.412 32.8181 179.89 31.8491C172.947 26.8791 162.159 15.2864 174.556 8.67546C184.867 3.17698 198.284 10.1286 206.474 16.3749C212.02 14.9109 226.967 16.3322 229.922 32.4954Z" fill="white"/>
<path d="M220.008 59.3379C217.502 62.3554 216.257 64.8611 216.412 70.0518" stroke="white" stroke-width="1.66883" stroke-linecap="round"/>
<path d="M235.573 257.889C214.725 258.73 204.806 254.547 204.806 251.669C204.806 250.492 204.133 249.315 208.841 247.634C206.823 250.38 207.563 255.603 226.662 254.527C229.744 254.695 236.682 253.888 239.776 249.315H241.289C256.42 245.448 265.331 248.622 265.331 251.501C265.331 254.379 252.889 257.191 235.573 257.889Z" fill="#A0A0A0"/>
<path d="M239.479 249.242C250.74 250.318 252.16 241.284 251.463 236.633" stroke="#A0A0A0" stroke-width="1.66883" stroke-linecap="round"/>
<path d="M224.563 241.004C224.563 241.733 224.395 243.324 223.723 243.862C222.882 244.535 207.751 242.853 208.087 250.419C207.919 251.484 209.6 253.109 213.635 253.613C219.31 254.323 235.579 256.394 239.48 249.242C239.707 248.826 239.892 248.378 240.031 247.897L241.544 241.508" stroke="#A0A0A0" stroke-width="1.66883" stroke-linecap="round"/>
</svg>
