<svg width="25" height="24" viewBox="0 0 25 24" fill="none" xmlns="http://www.w3.org/2000/svg">
<path d="M22.2119 6.58594H16.3057" stroke="#96B0BD" strokeWidth="1.5" strokeMiterlimit="10" strokeLinecap="round" strokeLinejoin="round"/>
<path d="M6.46191 6.58594H2.52441" stroke="#96B0BD" strokeWidth="1.5" strokeMiterlimit="10" strokeLinecap="round" strokeLinejoin="round"/>
<path d="M10.3994 10.0312C12.3022 10.0312 13.8447 8.48873 13.8447 6.58594C13.8447 4.68314 12.3022 3.14062 10.3994 3.14062C8.49662 3.14062 6.9541 4.68314 6.9541 6.58594C6.9541 8.48873 8.49662 10.0312 10.3994 10.0312Z" stroke="#96B0BD" strokeWidth="1.5" strokeMiterlimit="10" strokeLinecap="round" strokeLinejoin="round"/>
<path d="M22.2119 17.4141H18.2744" stroke="#96B0BD" strokeWidth="1.5" strokeMiterlimit="10" strokeLinecap="round" strokeLinejoin="round"/>
<path d="M8.43066 17.4141H2.52441" stroke="#96B0BD" strokeWidth="1.5" strokeMiterlimit="10" strokeLinecap="round" strokeLinejoin="round"/>
<path d="M14.3369 20.8594C16.2397 20.8594 17.7822 19.3169 17.7822 17.4141C17.7822 15.5113 16.2397 13.9688 14.3369 13.9688C12.4341 13.9688 10.8916 15.5113 10.8916 17.4141C10.8916 19.3169 12.4341 20.8594 14.3369 20.8594Z" stroke="#96B0BD" strokeWidth="1.5" strokeMiterlimit="10" strokeLinecap="round" strokeLinejoin="round"/>
</svg>
