<svg width="2560" height="3755" viewBox="0 0 2560 3755" fill="none" xmlns="http://www.w3.org/2000/svg">
<g clip-path="url(#clip0_1_34)">
<g clip-path="url(#clip1_1_34)">
<path opacity="0.0714286" d="M2781.99 995.81C2781.99 995.81 2471.71 782.807 2173.31 938.19C1883.55 1089.08 2150.83 1511.35 1910.15 1732.26C1549.31 2063.47 928.758 1378.9 685.774 1804.19C512.173 2108.04 700.149 2152.15 559.873 2472.75C356.983 2936.45 -283.793 2582.97 -283.793 2582.97" stroke="url(#paint0_linear_1_34)" stroke-width="3.55556"/>
<path opacity="0.142857" d="M2770.17 1019.43C2770.17 1019.43 2462.9 802.115 2162.36 953.32C1870.52 1100.14 2131.87 1526.11 1888.14 1743.63C1522.71 2069.78 911.772 1376.61 662.874 1798.46C485.047 2099.86 672.39 2146.58 527.651 2465.19C318.306 2926.02 -317.472 2563.63 -317.472 2563.63" stroke="url(#paint1_linear_1_34)" stroke-width="3.55556"/>
<path opacity="0.214286" d="M2757.91 1042.9C2757.91 1042.9 2453.71 821.312 2151.08 968.31C1857.22 1111.04 2112.6 1540.61 1865.85 1754.71C1495.9 2075.72 894.706 1374.09 639.943 1792.43C457.925 2091.31 644.596 2140.65 495.423 2457.21C279.665 2915.07 -350.991 2543.83 -350.991 2543.83" stroke="url(#paint2_linear_1_34)" stroke-width="3.55555"/>
<path opacity="0.285714" d="M2745.21 1066.2C2745.21 1066.2 2444.13 840.386 2139.48 983.14C1843.66 1121.76 2093.01 1554.85 1843.3 1765.49C1468.91 2081.3 877.562 1371.35 616.983 1786.08C430.809 2082.4 616.774 2134.34 463.196 2448.78C241.066 2903.58 -384.346 2523.58 -384.346 2523.58" stroke="url(#paint3_linear_1_34)" stroke-width="3.55556"/>
<path opacity="0.357143" d="M2732.08 1089.33C2732.08 1089.33 2434.17 859.34 2127.56 997.82C1829.83 1132.3 2073.12 1568.83 1820.49 1775.96C1441.72 2086.51 860.348 1368.37 594.003 1779.43C403.711 2073.11 588.932 2127.65 430.979 2439.92C202.52 2891.57 -417.525 2502.87 -417.525 2502.87" stroke="url(#paint4_linear_1_34)" stroke-width="3.55556"/>
<path opacity="0.428571" d="M2718.5 1112.28C2718.5 1112.28 2423.84 878.15 2115.32 1012.34C1815.75 1142.65 2052.91 1582.53 1797.42 1786.12C1414.35 2091.35 843.062 1365.16 571.004 1772.46C376.63 2063.46 561.072 2120.58 398.773 2430.61C164.031 2879.03 -450.526 2481.71 -450.526 2481.71" stroke="url(#paint5_linear_1_34)" stroke-width="3.55555"/>
<path opacity="0.5" d="M2704.49 1135.05C2704.49 1135.05 2413.13 896.83 2102.77 1026.7C1801.41 1152.81 2032.41 1595.96 1774.09 1795.96C1386.8 2095.82 825.706 1361.72 547.988 1765.18C349.57 2053.44 533.196 2113.12 366.585 2420.86C125.604 2865.96 -483.346 2460.1 -483.346 2460.1" stroke="url(#paint6_linear_1_34)" stroke-width="3.55556"/>
<path opacity="0.571429" d="M2690.06 1157.63C2690.06 1157.63 2402.05 915.37 2089.91 1040.89C1786.81 1162.78 2011.6 1609.12 1750.52 1805.49C1359.08 2099.91 808.289 1358.05 524.964 1757.6C322.54 2043.05 505.316 2105.3 334.424 2410.68C87.2525 2852.37 -515.972 2438.05 -515.972 2438.05" stroke="url(#paint7_linear_1_34)" stroke-width="3.55556"/>
<path opacity="0.642857" d="M2675.19 1180.02C2675.19 1180.02 2390.59 933.76 2076.73 1054.91C1771.96 1172.56 1990.5 1621.99 1726.7 1814.69C1331.19 2103.62 790.807 1354.14 501.932 1749.69C295.542 2032.3 477.431 2097.09 302.292 2400.05C48.9776 2838.25 -548.403 2415.55 -548.403 2415.55" stroke="url(#paint8_linear_1_34)" stroke-width="3.55556"/>
<path opacity="0.714286" d="M2659.9 1202.2C2659.9 1202.2 2378.77 951.99 2063.24 1068.75C1756.86 1182.13 1969.1 1634.57 1702.64 1823.57C1303.13 2106.95 773.268 1350 478.898 1741.48C268.583 2021.18 449.549 2088.5 270.197 2388.99C10.7894 2823.61 -580.631 2392.6 -580.631 2392.6" stroke="url(#paint9_linear_1_34)" stroke-width="3.55556"/>
<path opacity="0.785714" d="M2644.19 1224.18C2644.19 1224.18 2366.58 970.07 2049.45 1082.41C1741.52 1191.5 1947.42 1646.86 1678.35 1832.13C1274.92 2109.9 755.679 1345.62 455.872 1732.95C241.672 2009.69 421.68 2079.53 238.151 2377.48C-27.3003 2808.44 -612.645 2369.22 -612.645 2369.22" stroke="url(#paint10_linear_1_34)" stroke-width="3.55556"/>
<path opacity="0.857143" d="M2628.06 1245.95C2628.06 1245.95 2354.02 987.99 2035.36 1095.89C1725.93 1200.67 1925.46 1658.86 1653.82 1840.35C1246.56 2112.46 738.036 1341.01 432.85 1724.12C214.807 1997.83 393.823 2070.18 206.151 2365.54C-65.2909 2792.75 -644.446 2345.4 -644.446 2345.4" stroke="url(#paint11_linear_1_34)" stroke-width="3.55555"/>
<path opacity="0.928571" d="M2611.51 1267.5C2611.51 1267.5 2341.1 1005.74 2020.96 1109.18C1710.1 1209.63 1903.21 1670.56 1629.07 1848.24C1218.04 2114.64 720.344 1336.17 409.839 1714.97C187.996 1985.62 365.984 2060.46 174.207 2353.17C-103.174 2776.55 -676.027 2321.16 -676.027 2321.16" stroke="url(#paint12_linear_1_34)" stroke-width="3.55556"/>
<path d="M2594.55 1288.82C2594.55 1288.82 2327.82 1023.3 2006.27 1122.27C1694.03 1218.37 1880.69 1681.95 1604.09 1855.79C1189.39 2116.42 702.606 1331.07 386.842 1705.51C161.242 1973.03 338.168 2050.35 142.322 2340.36C-140.943 2759.82 -707.382 2296.47 -707.382 2296.47" stroke="url(#paint13_linear_1_34)" stroke-width="3.55556"/>
<g clip-path="url(#clip2_1_34)">
<path opacity="0.0714286" d="M3213.41 3650.33C3213.41 3650.33 3104.43 3263.36 2753.29 3186.83C2412.33 3112.52 2342.92 3641.82 1994.35 3658.53C1471.75 3683.6 1430.6 2697.47 940.386 2880.33C590.149 3010.98 714.25 3175.71 379.907 3342.89C-103.675 3584.69 -387.816 2856.45 -387.816 2856.45" stroke="url(#paint14_linear_1_34)" stroke-width="3.55555"/>
<path opacity="0.142857" d="M3187.56 3661.63C3187.56 3661.63 3084 3273.18 2733.96 3191.75C2394.07 3112.69 2317.27 3640.96 1968.51 3652.81C1445.6 3670.58 1418.23 2683.98 925.51 2859.97C573.482 2985.71 695.271 3152.16 358.627 3314.66C-128.284 3549.68 -402.23 2817.54 -402.23 2817.54" stroke="url(#paint15_linear_1_34)" stroke-width="3.55556"/>
<path opacity="0.214286" d="M3161.45 3672.51C3161.45 3672.51 3063.32 3282.65 2714.46 3196.34C2375.7 3112.54 2291.54 3639.69 1942.64 3646.67C1419.54 3657.13 1405.94 2670.24 910.815 2839.34C557.067 2960.16 676.52 3128.29 337.639 3286.07C-152.506 3514.28 -416.202 2778.38 -416.202 2778.38" stroke="url(#paint16_linear_1_34)" stroke-width="3.55556"/>
<path opacity="0.285714" d="M3135.09 3682.94C3135.09 3682.94 3042.42 3291.75 2694.79 3200.58C2357.24 3112.06 2265.73 3637.98 1916.77 3640.09C1393.57 3643.25 1393.75 2656.27 896.311 2818.44C540.911 2934.3 658.004 3104.09 316.954 3257.12C-176.33 3478.46 -429.726 2738.95 -429.726 2738.95" stroke="url(#paint17_linear_1_34)" stroke-width="3.55556"/>
<path opacity="0.357143" d="M3108.5 3692.94C3108.5 3692.94 3021.3 3300.5 2674.98 3204.48C2338.69 3111.25 2239.84 3635.85 1890.89 3633.08C1367.7 3628.94 1381.66 2642.05 882.006 2797.26C525.022 2908.15 639.734 3079.56 296.58 3227.81C-199.746 3442.24 -442.792 2699.27 -442.792 2699.27" stroke="url(#paint18_linear_1_34)" stroke-width="3.55555"/>
<path opacity="0.428571" d="M3081.67 3702.5C3081.67 3702.5 2999.95 3308.87 2655 3208.03C2320.06 3110.12 2213.89 3633.28 1865.01 3625.65C1341.93 3614.2 1369.67 2627.6 867.895 2775.82C509.398 2881.71 621.705 3054.7 276.515 3198.15C-222.756 3405.63 -455.405 2659.34 -455.405 2659.34" stroke="url(#paint19_linear_1_34)" stroke-width="3.55555"/>
<path opacity="0.5" d="M3054.6 3711.6C3054.6 3711.6 2978.39 3316.88 2634.89 3211.23C2301.34 3108.65 2187.88 3630.28 1839.14 3617.77C1316.27 3599.02 1357.78 2612.91 853.985 2754.1C494.044 2854.98 603.925 3029.52 256.765 3168.14C-245.354 3368.63 -467.561 2619.16 -467.561 2619.16" stroke="url(#paint20_linear_1_34)" stroke-width="3.55556"/>
<path opacity="0.571429" d="M3027.31 3720.26C3027.31 3720.26 2956.62 3324.51 2614.62 3214.08C2282.54 3106.85 2161.81 3626.85 1813.28 3609.47C1290.72 3583.42 1346 2597.98 840.277 2732.13C478.963 2827.98 586.396 3004.04 237.335 3137.79C-267.535 3331.25 -479.255 2578.75 -479.255 2578.75" stroke="url(#paint21_linear_1_34)" stroke-width="3.55555"/>
<path opacity="0.642857" d="M2999.8 3728.47C2999.8 3728.47 2934.64 3331.77 2594.22 3216.57C2263.67 3104.72 2135.69 3622.98 1787.43 3600.74C1265.29 3567.39 1334.32 2582.83 826.78 2709.9C464.162 2800.69 569.127 2978.23 218.232 3107.1C-289.289 3293.49 -490.483 2538.11 -490.483 2538.11" stroke="url(#paint22_linear_1_34)" stroke-width="3.55556"/>
<path opacity="0.714286" d="M2972.08 3736.22C2972.08 3736.22 2912.47 3338.65 2573.69 3218.71C2244.73 3102.25 2109.53 3618.67 1761.62 3591.57C1239.99 3550.94 1322.76 2567.43 813.493 2687.41C449.644 2773.13 552.119 2952.12 199.459 3076.07C-310.615 3255.36 -501.242 2497.24 -501.242 2497.24" stroke="url(#paint23_linear_1_34)" stroke-width="3.55555"/>
<path opacity="0.785714" d="M2944.16 3743.51C2944.16 3743.51 2890.1 3345.15 2553.03 3220.49C2225.73 3099.45 2083.33 3613.93 1735.83 3581.98C1214.82 3534.07 1311.32 2551.81 800.427 2664.67C435.416 2745.29 535.383 2925.7 181.027 3044.72C-331.501 3216.87 -511.525 2456.16 -511.525 2456.16" stroke="url(#paint24_linear_1_34)" stroke-width="3.55555"/>
<path opacity="0.857143" d="M2916.04 3750.35C2916.04 3750.35 2867.55 3351.26 2532.25 3221.92C2206.67 3096.31 2057.1 3608.76 1710.08 3571.96C1189.79 3516.78 1299.99 2535.96 787.575 2641.67C421.474 2717.2 518.912 2898.98 162.929 3013.04C-351.953 3178.01 -521.338 2414.87 -521.338 2414.87" stroke="url(#paint25_linear_1_34)" stroke-width="3.55556"/>
<path opacity="0.928571" d="M2887.72 3756.72C2887.72 3756.72 2844.81 3357 2511.35 3222.98C2187.56 3092.84 2030.85 3603.15 1684.37 3561.51C1164.91 3499.07 1288.79 2519.89 774.946 2618.43C407.826 2688.84 502.717 2871.96 145.176 2981.04C-371.959 3138.81 -530.673 2373.38 -530.673 2373.38" stroke="url(#paint26_linear_1_34)" stroke-width="3.55556"/>
<path d="M2859.22 3762.61C2859.22 3762.61 2821.89 3362.33 2490.34 3223.67C2168.39 3089.03 2004.57 3597.1 1658.72 3550.62C1140.17 3480.93 1277.71 2503.58 762.545 2594.94C394.478 2660.21 486.802 2844.64 127.773 2948.72C-391.514 3099.25 -539.525 2331.68 -539.525 2331.68" stroke="url(#paint27_linear_1_34)" stroke-width="3.55556"/>
</g>
</g>
</g>
<defs>
<linearGradient id="paint0_linear_1_34" x1="512.134" y1="-2732.55" x2="4383.36" y2="-482.25" gradientUnits="userSpaceOnUse">
<stop stop-color="#E8E4D8"/>
<stop offset="1" stop-color="#F28208"/>
</linearGradient>
<linearGradient id="paint1_linear_1_34" x1="552.593" y1="-2740.26" x2="4392.03" y2="-436.129" gradientUnits="userSpaceOnUse">
<stop stop-color="#E8E4D8"/>
<stop offset="1" stop-color="#F28208"/>
</linearGradient>
<linearGradient id="paint2_linear_1_34" x1="593.043" y1="-2747.39" x2="4399.93" y2="-389.875" gradientUnits="userSpaceOnUse">
<stop stop-color="#E8E4D8"/>
<stop offset="1" stop-color="#F28208"/>
</linearGradient>
<linearGradient id="paint3_linear_1_34" x1="633.474" y1="-2753.94" x2="4407.07" y2="-343.51" gradientUnits="userSpaceOnUse">
<stop stop-color="#E8E4D8"/>
<stop offset="1" stop-color="#F28208"/>
</linearGradient>
<linearGradient id="paint4_linear_1_34" x1="673.881" y1="-2759.93" x2="4413.46" y2="-297.038" gradientUnits="userSpaceOnUse">
<stop stop-color="#E8E4D8"/>
<stop offset="1" stop-color="#F28208"/>
</linearGradient>
<linearGradient id="paint5_linear_1_34" x1="714.253" y1="-2765.33" x2="4419.08" y2="-250.474" gradientUnits="userSpaceOnUse">
<stop stop-color="#E8E4D8"/>
<stop offset="1" stop-color="#F28208"/>
</linearGradient>
<linearGradient id="paint6_linear_1_34" x1="754.58" y1="-2770.17" x2="4423.93" y2="-203.83" gradientUnits="userSpaceOnUse">
<stop stop-color="#E8E4D8"/>
<stop offset="1" stop-color="#F28208"/>
</linearGradient>
<linearGradient id="paint7_linear_1_34" x1="794.86" y1="-2774.43" x2="4428.02" y2="-157.108" gradientUnits="userSpaceOnUse">
<stop stop-color="#E8E4D8"/>
<stop offset="1" stop-color="#F28208"/>
</linearGradient>
<linearGradient id="paint8_linear_1_34" x1="835.079" y1="-2778.12" x2="4431.34" y2="-110.328" gradientUnits="userSpaceOnUse">
<stop stop-color="#E8E4D8"/>
<stop offset="1" stop-color="#F28208"/>
</linearGradient>
<linearGradient id="paint9_linear_1_34" x1="875.23" y1="-2781.24" x2="4433.9" y2="-63.4979" gradientUnits="userSpaceOnUse">
<stop stop-color="#E8E4D8"/>
<stop offset="1" stop-color="#F28208"/>
</linearGradient>
<linearGradient id="paint10_linear_1_34" x1="915.312" y1="-2783.8" x2="4435.69" y2="-16.6267" gradientUnits="userSpaceOnUse">
<stop stop-color="#E8E4D8"/>
<stop offset="1" stop-color="#F28208"/>
</linearGradient>
<linearGradient id="paint11_linear_1_34" x1="955.31" y1="-2785.78" x2="4436.7" y2="30.2748" gradientUnits="userSpaceOnUse">
<stop stop-color="#E8E4D8"/>
<stop offset="1" stop-color="#F28208"/>
</linearGradient>
<linearGradient id="paint12_linear_1_34" x1="995.216" y1="-2787.19" x2="4436.95" y2="77.1974" gradientUnits="userSpaceOnUse">
<stop stop-color="#E8E4D8"/>
<stop offset="1" stop-color="#F28208"/>
</linearGradient>
<linearGradient id="paint13_linear_1_34" x1="1035.02" y1="-2788.04" x2="4436.43" y2="124.119" gradientUnits="userSpaceOnUse">
<stop stop-color="#E8E4D8"/>
<stop offset="1" stop-color="#F28208"/>
</linearGradient>
<linearGradient id="paint14_linear_1_34" x1="3004.38" y1="305.919" x2="4340.91" y2="3788.01" gradientUnits="userSpaceOnUse">
<stop stop-color="#F28208"/>
<stop offset="1" stop-color="#E8E4D8"/>
</linearGradient>
<linearGradient id="paint15_linear_1_34" x1="3025.24" y1="314.627" x2="4313.03" y2="3815.04" gradientUnits="userSpaceOnUse">
<stop stop-color="#F28208"/>
<stop offset="1" stop-color="#E8E4D8"/>
</linearGradient>
<linearGradient id="paint16_linear_1_34" x1="3045.88" y1="323.563" x2="4284.67" y2="3841.62" gradientUnits="userSpaceOnUse">
<stop stop-color="#F28208"/>
<stop offset="1" stop-color="#E8E4D8"/>
</linearGradient>
<linearGradient id="paint17_linear_1_34" x1="3066.3" y1="332.712" x2="4255.84" y2="3867.72" gradientUnits="userSpaceOnUse">
<stop stop-color="#F28208"/>
<stop offset="1" stop-color="#E8E4D8"/>
</linearGradient>
<linearGradient id="paint18_linear_1_34" x1="3086.49" y1="342.076" x2="4226.56" y2="3893.35" gradientUnits="userSpaceOnUse">
<stop stop-color="#F28208"/>
<stop offset="1" stop-color="#E8E4D8"/>
</linearGradient>
<linearGradient id="paint19_linear_1_34" x1="3106.44" y1="351.653" x2="4196.82" y2="3918.49" gradientUnits="userSpaceOnUse">
<stop stop-color="#F28208"/>
<stop offset="1" stop-color="#E8E4D8"/>
</linearGradient>
<linearGradient id="paint20_linear_1_34" x1="3126.16" y1="361.429" x2="4166.63" y2="3943.15" gradientUnits="userSpaceOnUse">
<stop stop-color="#F28208"/>
<stop offset="1" stop-color="#E8E4D8"/>
</linearGradient>
<linearGradient id="paint21_linear_1_34" x1="3145.63" y1="371.417" x2="4135.99" y2="3967.31" gradientUnits="userSpaceOnUse">
<stop stop-color="#F28208"/>
<stop offset="1" stop-color="#E8E4D8"/>
</linearGradient>
<linearGradient id="paint22_linear_1_34" x1="3164.87" y1="381.602" x2="4104.93" y2="3990.98" gradientUnits="userSpaceOnUse">
<stop stop-color="#F28208"/>
<stop offset="1" stop-color="#E8E4D8"/>
</linearGradient>
<linearGradient id="paint23_linear_1_34" x1="3183.87" y1="391.981" x2="4073.44" y2="4014.13" gradientUnits="userSpaceOnUse">
<stop stop-color="#F28208"/>
<stop offset="1" stop-color="#E8E4D8"/>
</linearGradient>
<linearGradient id="paint24_linear_1_34" x1="3202.62" y1="402.559" x2="4041.53" y2="4036.77" gradientUnits="userSpaceOnUse">
<stop stop-color="#F28208"/>
<stop offset="1" stop-color="#E8E4D8"/>
</linearGradient>
<linearGradient id="paint25_linear_1_34" x1="3221.12" y1="413.326" x2="4009.2" y2="4058.9" gradientUnits="userSpaceOnUse">
<stop stop-color="#F28208"/>
<stop offset="1" stop-color="#E8E4D8"/>
</linearGradient>
<linearGradient id="paint26_linear_1_34" x1="3239.36" y1="424.281" x2="3976.47" y2="4080.5" gradientUnits="userSpaceOnUse">
<stop stop-color="#F28208"/>
<stop offset="1" stop-color="#E8E4D8"/>
</linearGradient>
<linearGradient id="paint27_linear_1_34" x1="3257.36" y1="435.41" x2="3943.35" y2="4101.57" gradientUnits="userSpaceOnUse">
<stop stop-color="#F28208"/>
<stop offset="1" stop-color="#E8E4D8"/>
</linearGradient>
<clipPath id="clip0_1_34">
<rect width="2560" height="3755" fill="white"/>
</clipPath>
<clipPath id="clip1_1_34">
<rect width="2560" height="3903" fill="white" transform="translate(0 -148)"/>
</clipPath>
<clipPath id="clip2_1_34">
<rect width="2560" height="4045" fill="white" transform="translate(0 1211)"/>
</clipPath>
</defs>
</svg>
