<svg width="2560" height="4045" viewBox="0 0 2560 4045" fill="none" xmlns="http://www.w3.org/2000/svg">
<path opacity="0.0714286" d="M3213.41 2439.33C3213.41 2439.33 3104.43 2052.36 2753.29 1975.83C2412.33 1901.52 2342.92 2430.82 1994.35 2447.53C1471.75 2472.6 1430.6 1486.47 940.386 1669.33C590.149 1799.98 714.25 1964.71 379.907 2131.89C-103.675 2373.69 -387.816 1645.45 -387.816 1645.45" stroke="url(#paint0_linear_36_24839)" strokeWidth="3.55555"/>
<path opacity="0.142857" d="M3187.56 2450.63C3187.56 2450.63 3084 2062.18 2733.96 1980.75C2394.07 1901.69 2317.27 2429.96 1968.51 2441.81C1445.6 2459.58 1418.23 1472.98 925.51 1648.97C573.482 1774.71 695.271 1941.16 358.627 2103.66C-128.284 2338.68 -402.23 1606.54 -402.23 1606.54" stroke="url(#paint1_linear_36_24839)" strokeWidth="3.55556"/>
<path opacity="0.214286" d="M3161.45 2461.51C3161.45 2461.51 3063.32 2071.65 2714.46 1985.34C2375.7 1901.54 2291.54 2428.69 1942.64 2435.67C1419.54 2446.13 1405.94 1459.24 910.815 1628.34C557.067 1749.16 676.52 1917.29 337.639 2075.07C-152.506 2303.28 -416.202 1567.38 -416.202 1567.38" stroke="url(#paint2_linear_36_24839)" strokeWidth="3.55556"/>
<path opacity="0.285714" d="M3135.09 2471.94C3135.09 2471.94 3042.42 2080.75 2694.79 1989.58C2357.24 1901.06 2265.73 2426.98 1916.77 2429.09C1393.57 2432.25 1393.75 1445.27 896.311 1607.44C540.911 1723.3 658.004 1893.09 316.954 2046.12C-176.33 2267.46 -429.726 1527.95 -429.726 1527.95" stroke="url(#paint3_linear_36_24839)" strokeWidth="3.55556"/>
<path opacity="0.357143" d="M3108.5 2481.94C3108.5 2481.94 3021.3 2089.5 2674.98 1993.48C2338.69 1900.25 2239.84 2424.85 1890.89 2422.08C1367.7 2417.94 1381.66 1431.05 882.006 1586.26C525.022 1697.15 639.734 1868.56 296.58 2016.81C-199.746 2231.24 -442.792 1488.27 -442.792 1488.27" stroke="url(#paint4_linear_36_24839)" strokeWidth="3.55555"/>
<path opacity="0.428571" d="M3081.67 2491.5C3081.67 2491.5 2999.95 2097.87 2655 1997.03C2320.06 1899.12 2213.89 2422.28 1865.01 2414.65C1341.93 2403.2 1369.67 1416.6 867.895 1564.82C509.398 1670.71 621.705 1843.7 276.515 1987.15C-222.756 2194.63 -455.405 1448.34 -455.405 1448.34" stroke="url(#paint5_linear_36_24839)" strokeWidth="3.55555"/>
<path opacity="0.5" d="M3054.6 2500.6C3054.6 2500.6 2978.39 2105.88 2634.89 2000.23C2301.34 1897.65 2187.88 2419.28 1839.14 2406.77C1316.27 2388.02 1357.78 1401.91 853.985 1543.1C494.044 1643.98 603.925 1818.52 256.765 1957.14C-245.354 2157.63 -467.561 1408.16 -467.561 1408.16" stroke="url(#paint6_linear_36_24839)" strokeWidth="3.55556"/>
<path opacity="0.571429" d="M3027.31 2509.26C3027.31 2509.26 2956.62 2113.51 2614.62 2003.08C2282.54 1895.85 2161.81 2415.85 1813.28 2398.47C1290.72 2372.42 1346 1386.98 840.277 1521.13C478.963 1616.98 586.396 1793.04 237.335 1926.79C-267.535 2120.25 -479.255 1367.75 -479.255 1367.75" stroke="url(#paint7_linear_36_24839)" strokeWidth="3.55555"/>
<path opacity="0.642857" d="M2999.8 2517.47C2999.8 2517.47 2934.64 2120.77 2594.22 2005.57C2263.67 1893.72 2135.69 2411.98 1787.43 2389.74C1265.29 2356.39 1334.32 1371.83 826.78 1498.9C464.162 1589.69 569.127 1767.23 218.232 1896.1C-289.289 2082.49 -490.483 1327.11 -490.483 1327.11" stroke="url(#paint8_linear_36_24839)" strokeWidth="3.55556"/>
<path opacity="0.714286" d="M2972.08 2525.22C2972.08 2525.22 2912.47 2127.65 2573.69 2007.71C2244.73 1891.25 2109.53 2407.67 1761.62 2380.57C1239.99 2339.94 1322.76 1356.43 813.493 1476.41C449.644 1562.13 552.119 1741.12 199.459 1865.07C-310.615 2044.36 -501.242 1286.24 -501.242 1286.24" stroke="url(#paint9_linear_36_24839)" strokeWidth="3.55555"/>
<path opacity="0.785714" d="M2944.16 2532.51C2944.16 2532.51 2890.1 2134.15 2553.03 2009.49C2225.73 1888.45 2083.33 2402.93 1735.83 2370.98C1214.82 2323.07 1311.32 1340.81 800.427 1453.67C435.416 1534.29 535.383 1714.7 181.027 1833.72C-331.501 2005.87 -511.525 1245.16 -511.525 1245.16" stroke="url(#paint10_linear_36_24839)" strokeWidth="3.55555"/>
<path opacity="0.857143" d="M2916.04 2539.35C2916.04 2539.35 2867.55 2140.26 2532.25 2010.92C2206.67 1885.31 2057.1 2397.76 1710.08 2360.96C1189.79 2305.78 1299.99 1324.96 787.575 1430.67C421.474 1506.2 518.912 1687.98 162.929 1802.04C-351.953 1967.01 -521.338 1203.87 -521.338 1203.87" stroke="url(#paint11_linear_36_24839)" strokeWidth="3.55556"/>
<path opacity="0.928571" d="M2887.72 2545.72C2887.72 2545.72 2844.81 2146 2511.35 2011.98C2187.56 1881.84 2030.85 2392.15 1684.37 2350.51C1164.91 2288.07 1288.79 1308.89 774.946 1407.43C407.826 1477.84 502.717 1660.96 145.176 1770.04C-371.959 1927.81 -530.673 1162.38 -530.673 1162.38" stroke="url(#paint12_linear_36_24839)" strokeWidth="3.55556"/>
<path d="M2859.22 2551.61C2859.22 2551.61 2821.89 2151.33 2490.34 2012.67C2168.39 1878.03 2004.57 2386.1 1658.72 2339.62C1140.17 2269.93 1277.71 1292.58 762.545 1383.94C394.478 1449.21 486.802 1633.64 127.773 1737.72C-391.514 1888.25 -539.525 1120.68 -539.525 1120.68" stroke="url(#paint13_linear_36_24839)" strokeWidth="3.55556"/>
<defs>
<linearGradient id="paint0_linear_36_24839" x1="3004.38" y1="-905.081" x2="4340.91" y2="2577.01" gradientUnits="userSpaceOnUse">
<stop stop-color="#F28208"/>
<stop offset="1" stop-color="#E8E4D8"/>
</linearGradient>
<linearGradient id="paint1_linear_36_24839" x1="3025.24" y1="-896.374" x2="4313.03" y2="2604.04" gradientUnits="userSpaceOnUse">
<stop stop-color="#F28208"/>
<stop offset="1" stop-color="#E8E4D8"/>
</linearGradient>
<linearGradient id="paint2_linear_36_24839" x1="3045.88" y1="-887.437" x2="4284.67" y2="2630.62" gradientUnits="userSpaceOnUse">
<stop stop-color="#F28208"/>
<stop offset="1" stop-color="#E8E4D8"/>
</linearGradient>
<linearGradient id="paint3_linear_36_24839" x1="3066.3" y1="-878.288" x2="4255.84" y2="2656.72" gradientUnits="userSpaceOnUse">
<stop stop-color="#F28208"/>
<stop offset="1" stop-color="#E8E4D8"/>
</linearGradient>
<linearGradient id="paint4_linear_36_24839" x1="3086.49" y1="-868.924" x2="4226.56" y2="2682.35" gradientUnits="userSpaceOnUse">
<stop stop-color="#F28208"/>
<stop offset="1" stop-color="#E8E4D8"/>
</linearGradient>
<linearGradient id="paint5_linear_36_24839" x1="3106.44" y1="-859.347" x2="4196.82" y2="2707.49" gradientUnits="userSpaceOnUse">
<stop stop-color="#F28208"/>
<stop offset="1" stop-color="#E8E4D8"/>
</linearGradient>
<linearGradient id="paint6_linear_36_24839" x1="3126.16" y1="-849.571" x2="4166.63" y2="2732.15" gradientUnits="userSpaceOnUse">
<stop stop-color="#F28208"/>
<stop offset="1" stop-color="#E8E4D8"/>
</linearGradient>
<linearGradient id="paint7_linear_36_24839" x1="3145.63" y1="-839.583" x2="4135.99" y2="2756.31" gradientUnits="userSpaceOnUse">
<stop stop-color="#F28208"/>
<stop offset="1" stop-color="#E8E4D8"/>
</linearGradient>
<linearGradient id="paint8_linear_36_24839" x1="3164.87" y1="-829.398" x2="4104.93" y2="2779.98" gradientUnits="userSpaceOnUse">
<stop stop-color="#F28208"/>
<stop offset="1" stop-color="#E8E4D8"/>
</linearGradient>
<linearGradient id="paint9_linear_36_24839" x1="3183.87" y1="-819.019" x2="4073.44" y2="2803.13" gradientUnits="userSpaceOnUse">
<stop stop-color="#F28208"/>
<stop offset="1" stop-color="#E8E4D8"/>
</linearGradient>
<linearGradient id="paint10_linear_36_24839" x1="3202.62" y1="-808.441" x2="4041.53" y2="2825.77" gradientUnits="userSpaceOnUse">
<stop stop-color="#F28208"/>
<stop offset="1" stop-color="#E8E4D8"/>
</linearGradient>
<linearGradient id="paint11_linear_36_24839" x1="3221.12" y1="-797.674" x2="4009.2" y2="2847.9" gradientUnits="userSpaceOnUse">
<stop stop-color="#F28208"/>
<stop offset="1" stop-color="#E8E4D8"/>
</linearGradient>
<linearGradient id="paint12_linear_36_24839" x1="3239.36" y1="-786.719" x2="3976.47" y2="2869.5" gradientUnits="userSpaceOnUse">
<stop stop-color="#F28208"/>
<stop offset="1" stop-color="#E8E4D8"/>
</linearGradient>
<linearGradient id="paint13_linear_36_24839" x1="3257.36" y1="-775.59" x2="3943.35" y2="2890.57" gradientUnits="userSpaceOnUse">
<stop stop-color="#F28208"/>
<stop offset="1" stop-color="#E8E4D8"/>
</linearGradient>
</defs>
</svg>
