<svg width="1440" height="720" viewBox="0 0 1440 720" fill="none" xmlns="http://www.w3.org/2000/svg">
<g opacity="0.31">
<path opacity="0.0526316" d="M944.386 1084.69C998.625 1084.52 1110.7 1047.95 1125.07 903.1C1143.03 722.033 1001.18 564.587 985.54 384.374C973.996 251.364 1022.05 -59.586 1217.82 -139.607" stroke="url(#paint0_linear_2126_17184)" stroke-width="0.7"/>
<path opacity="0.105263" d="M846.212 1058.62C901.37 1063.62 1019.68 1038.73 1051.64 899.235C1091.59 724.86 966.258 558.234 971.949 381.488C976.149 251.037 1062.25 -46.782 1270.85 -105.955" stroke="url(#paint1_linear_2126_17184)" stroke-width="0.7"/>
<path opacity="0.157895" d="M750.276 1026.14C805.748 1036.25 928.994 1023.32 978.2 890.701C1039.71 724.928 932.259 550.947 959.219 379.605C979.118 253.143 1102.33 -28.2826 1321.47 -65.9587" stroke="url(#paint2_linear_2126_17184)" stroke-width="0.7"/>
<path opacity="0.210526" d="M657.381 987.629C712.56 1002.75 839.395 1001.91 905.304 877.627C987.689 722.273 899.307 542.843 947.241 378.782C982.62 257.694 1141.59 -4.25452 1368.87 -20.021" stroke="url(#paint3_linear_2126_17184)" stroke-width="0.7"/>
<path opacity="0.263158" d="M568.304 943.55C622.585 963.507 751.62 974.774 833.51 860.188C935.871 716.955 867.523 534.042 935.906 379.06C986.377 264.672 1179.36 25.0709 1412.29 31.3867" stroke="url(#paint4_linear_2126_17184)" stroke-width="0.7"/>
<path opacity="0.315789" d="M483.768 894.419C536.557 918.997 666.378 942.245 763.351 838.611C884.567 709.068 837.001 524.676 925.083 380.471C990.095 274.037 1214.97 59.4081 1451.01 87.737" stroke="url(#paint5_linear_2126_17184)" stroke-width="0.7"/>
<path opacity="0.368421" d="M404.458 840.808C455.176 869.739 584.36 904.713 695.354 813.166C834.096 698.732 807.834 514.882 914.651 383.034C993.49 285.72 1247.81 98.4143 1484.35 148.446" stroke="url(#paint6_linear_2126_17184)" stroke-width="0.7"/>
<path opacity="0.421053" d="M330.999 783.338C379.09 816.304 506.222 862.621 630.021 784.164C784.77 686.093 780.1 504.799 904.481 386.752C996.284 299.624 1277.25 141.695 1511.71 212.881" stroke="url(#paint7_linear_2126_17184)" stroke-width="0.7"/>
<path opacity="0.473684" d="M263.946 722.671C308.884 759.31 432.571 816.462 567.819 751.955C736.878 671.322 753.851 494.57 894.433 391.617C998.194 315.63 1302.73 188.807 1532.55 280.368" stroke="url(#paint8_linear_2126_17184)" stroke-width="0.7"/>
<path opacity="0.526316" d="M203.79 659.505C245.082 699.417 363.969 766.778 509.184 716.928C690.702 654.615 729.131 484.342 884.375 397.612C998.957 333.599 1323.73 239.271 1546.38 350.203" stroke="url(#paint9_linear_2126_17184)" stroke-width="0.7"/>
<path opacity="0.578947" d="M150.944 594.568C188.138 637.315 300.923 714.147 454.513 679.5C646.501 636.191 705.966 474.262 874.171 404.705C998.318 353.366 1339.77 292.568 1552.81 421.656" stroke="url(#paint10_linear_2126_17184)" stroke-width="0.7"/>
<path opacity="0.631579" d="M105.742 528.602C138.43 573.716 243.877 659.177 404.16 640.112C604.515 616.282 684.364 464.471 863.686 412.849C996.039 374.747 1350.42 348.144 1551.53 493.974" stroke="url(#paint11_linear_2126_17184)" stroke-width="0.7"/>
<path opacity="0.684211" d="M68.4337 462.368C96.2579 509.354 193.211 602.509 358.432 599.235C564.957 595.144 664.316 455.115 852.79 421.993C991.899 397.546 1355.33 405.43 1542.3 566.404" stroke="url(#paint12_linear_2126_17184)" stroke-width="0.7"/>
<path opacity="0.736842" d="M39.1789 396.618C61.8344 444.962 149.232 544.788 317.579 557.343C528.013 573.035 645.793 446.322 841.355 432.063C985.695 421.539 1354.2 463.823 1524.98 638.177" stroke="url(#paint13_linear_2126_17184)" stroke-width="0.7"/>
<path opacity="0.789474" d="M18.0594 332.111C35.298 381.283 112.182 486.689 281.812 514.933C493.849 550.237 628.759 438.228 829.266 442.989C977.256 446.502 1346.8 522.723 1499.51 708.548" stroke="url(#paint14_linear_2126_17184)" stroke-width="0.7"/>
<path opacity="0.842105" d="M5.05485 269.59C16.6876 319.051 82.2165 428.88 251.27 472.504C462.586 527.035 613.149 430.957 816.405 454.685C966.423 472.198 1332.95 581.52 1465.92 776.779" stroke="url(#paint15_linear_2126_17184)" stroke-width="0.7"/>
<path opacity="0.894737" d="M0.0632464 209.766C5.96278 258.975 59.4181 372.024 226.043 430.551C434.324 503.709 598.89 424.615 802.667 467.05C953.07 498.371 1312.56 639.598 1424.35 842.152" stroke="url(#paint16_linear_2126_17184)" stroke-width="0.7"/>
<path opacity="0.947368" d="M2.89385 153.335C2.9955 201.753 43.7916 316.784 206.163 389.572C409.126 480.556 585.891 419.313 787.957 479.99C937.097 524.775 1285.62 696.359 1374.99 903.988" stroke="url(#paint17_linear_2126_17184)" stroke-width="0.7"/>
<path d="M13.2725 100.944C7.57513 148.039 35.265 263.792 191.603 350.043C387.026 457.857 574.054 415.135 772.195 493.39C918.438 551.149 1252.17 751.21 1318.15 961.64" stroke="url(#paint18_linear_2126_17184)" stroke-width="0.7"/>
</g>
<defs>
<linearGradient id="paint0_linear_2126_17184" x1="984.685" y1="1096.31" x2="1331.55" y2="-106.819" gradientUnits="userSpaceOnUse">
<stop stop-color="#10191D"/>
<stop offset="0.5" stop-color="white"/>
<stop offset="1" stop-color="#10191D"/>
</linearGradient>
<linearGradient id="paint1_linear_2126_17184" x1="885.786" y1="1073.76" x2="1328.58" y2="-83.8723" gradientUnits="userSpaceOnUse">
<stop stop-color="#10191D"/>
<stop offset="0.5" stop-color="white"/>
<stop offset="1" stop-color="#10191D"/>
</linearGradient>
<linearGradient id="paint2_linear_2126_17184" x1="788.691" y1="1044.63" x2="1322.91" y2="-65.266" gradientUnits="userSpaceOnUse">
<stop stop-color="#10191D"/>
<stop offset="0.5" stop-color="white"/>
<stop offset="1" stop-color="#10191D"/>
</linearGradient>
<linearGradient id="paint3_linear_2126_17184" x1="694.217" y1="1009.27" x2="1316.86" y2="-50.5748" gradientUnits="userSpaceOnUse">
<stop stop-color="#10191D"/>
<stop offset="0.5" stop-color="white"/>
<stop offset="1" stop-color="#10191D"/>
</linearGradient>
<linearGradient id="paint4_linear_2126_17184" x1="603.157" y1="968.104" x2="1312.57" y2="-38.8671" gradientUnits="userSpaceOnUse">
<stop stop-color="#10191D"/>
<stop offset="0.5" stop-color="white"/>
<stop offset="1" stop-color="#10191D"/>
</linearGradient>
<linearGradient id="paint5_linear_2126_17184" x1="516.256" y1="921.617" x2="1311.87" y2="-28.7418" gradientUnits="userSpaceOnUse">
<stop stop-color="#10191D"/>
<stop offset="0.5" stop-color="white"/>
<stop offset="1" stop-color="#10191D"/>
</linearGradient>
<linearGradient id="paint6_linear_2126_17184" x1="434.225" y1="870.353" x2="1316.29" y2="-18.3595" gradientUnits="userSpaceOnUse">
<stop stop-color="#10191D"/>
<stop offset="0.5" stop-color="white"/>
<stop offset="1" stop-color="#10191D"/>
</linearGradient>
<linearGradient id="paint7_linear_2126_17184" x1="357.719" y1="814.906" x2="1326.89" y2="-5.46345" gradientUnits="userSpaceOnUse">
<stop stop-color="#10191D"/>
<stop offset="0.5" stop-color="white"/>
<stop offset="1" stop-color="#10191D"/>
</linearGradient>
<linearGradient id="paint8_linear_2126_17184" x1="287.327" y1="755.915" x2="1344.22" y2="12.5932" gradientUnits="userSpaceOnUse">
<stop stop-color="#10191D"/>
<stop offset="0.5" stop-color="white"/>
<stop offset="1" stop-color="#10191D"/>
</linearGradient>
<linearGradient id="paint9_linear_2126_17184" x1="223.574" y1="694.061" x2="1368.08" y2="38.7874" gradientUnits="userSpaceOnUse">
<stop stop-color="#10191D"/>
<stop offset="0.5" stop-color="white"/>
<stop offset="1" stop-color="#10191D"/>
</linearGradient>
<linearGradient id="paint10_linear_2126_17184" x1="166.916" y1="630.058" x2="1397.38" y2="76.2929" gradientUnits="userSpaceOnUse">
<stop stop-color="#10191D"/>
<stop offset="0.5" stop-color="white"/>
<stop offset="1" stop-color="#10191D"/>
</linearGradient>
<linearGradient id="paint11_linear_2126_17184" x1="117.727" y1="564.637" x2="1429.89" y2="128.237" gradientUnits="userSpaceOnUse">
<stop stop-color="#10191D"/>
<stop offset="0.5" stop-color="white"/>
<stop offset="1" stop-color="#10191D"/>
</linearGradient>
<linearGradient id="paint12_linear_2126_17184" x1="76.2994" y1="498.554" x2="1462.07" y2="197.325" gradientUnits="userSpaceOnUse">
<stop stop-color="#10191D"/>
<stop offset="0.5" stop-color="white"/>
<stop offset="1" stop-color="#10191D"/>
</linearGradient>
<linearGradient id="paint13_linear_2126_17184" x1="42.8396" y1="432.557" x2="1489.03" y2="285.253" gradientUnits="userSpaceOnUse">
<stop stop-color="#10191D"/>
<stop offset="0.5" stop-color="white"/>
<stop offset="1" stop-color="#10191D"/>
</linearGradient>
<linearGradient id="paint14_linear_2126_17184" x1="17.4749" y1="367.411" x2="1504.75" y2="392.037" gradientUnits="userSpaceOnUse">
<stop stop-color="#10191D"/>
<stop offset="0.5" stop-color="white"/>
<stop offset="1" stop-color="#10191D"/>
</linearGradient>
<linearGradient id="paint15_linear_2126_17184" x1="0.231566" y1="303.863" x2="1502.72" y2="515.31" gradientUnits="userSpaceOnUse">
<stop stop-color="#10191D"/>
<stop offset="0.5" stop-color="white"/>
<stop offset="1" stop-color="#10191D"/>
</linearGradient>
<linearGradient id="paint16_linear_2126_17184" x1="-8.94598" y1="242.637" x2="1477.04" y2="649.914" gradientUnits="userSpaceOnUse">
<stop stop-color="#10191D"/>
<stop offset="0.5" stop-color="white"/>
<stop offset="1" stop-color="#10191D"/>
</linearGradient>
<linearGradient id="paint17_linear_2126_17184" x1="-10.2026" y1="184.444" x2="1423.76" y2="788.134" gradientUnits="userSpaceOnUse">
<stop stop-color="#10191D"/>
<stop offset="0.5" stop-color="white"/>
<stop offset="1" stop-color="#10191D"/>
</linearGradient>
<linearGradient id="paint18_linear_2126_17184" x1="-3.76775" y1="129.949" x2="1342.2" y2="920.688" gradientUnits="userSpaceOnUse">
<stop stop-color="#10191D"/>
<stop offset="0.5" stop-color="white"/>
<stop offset="1" stop-color="#10191D"/>
</linearGradient>
</defs>
</svg>
