<svg width="1440" height="3145" viewBox="0 0 1440 3145" fill="none" xmlns="http://www.w3.org/2000/svg">
<g clip-path="url(#clip0_2_32)">
<g clip-path="url(#clip1_2_32)">
<path opacity="0.0714286" d="M1692.82 1294.76C1692.82 1294.76 1570.1 1084.12 1352.34 1092.49C1140.89 1100.62 1180.48 1421.89 978.381 1484.61C675.375 1578.66 501.533 1005.97 241.495 1187.73C55.7092 1317.59 153.572 1395.47 -17.3374 1544.37C-264.535 1759.73 -541.889 1375.32 -541.889 1375.32" stroke="url(#paint0_linear_2_32)" stroke-opacity="0.6" stroke-width="2"/>
<path opacity="0.142857" d="M1679.36 1305.32C1679.36 1305.32 1559.59 1092.98 1341.73 1098.31C1130.19 1103.49 1165.29 1425.28 962.34 1485.18C658.05 1574.98 492.221 999.925 229.671 1178.04C42.0898 1305.29 138.855 1384.53 -34.1159 1531.02C-284.296 1742.91 -556.256 1354.67 -556.256 1354.67" stroke="url(#paint1_linear_2_32)" stroke-opacity="0.6" stroke-width="2"/>
<path opacity="0.214286" d="M1665.68 1315.66C1665.68 1315.66 1548.89 1101.68 1330.98 1103.97C1119.39 1106.19 1149.99 1428.44 946.223 1485.5C640.708 1571.04 482.924 993.727 217.913 1168.16C28.5731 1292.78 124.223 1373.36 -50.7769 1517.43C-303.89 1725.8 -570.404 1333.8 -570.404 1333.8" stroke="url(#paint2_linear_2_32)" stroke-opacity="0.6" stroke-width="2"/>
<path opacity="0.285714" d="M1651.79 1325.79C1651.79 1325.79 1538 1110.2 1320.08 1109.44C1108.48 1108.71 1134.58 1431.36 930.033 1485.56C623.354 1566.84 473.646 987.372 206.225 1158.08C15.1636 1280.05 109.679 1361.96 -67.3152 1503.57C-323.314 1708.39 -584.328 1312.7 -584.328 1312.7" stroke="url(#paint3_linear_2_32)" stroke-opacity="0.6" stroke-width="2"/>
<path opacity="0.357143" d="M1637.69 1335.7C1637.69 1335.7 1526.93 1118.54 1309.04 1114.74C1097.46 1111.05 1119.06 1434.03 913.776 1485.38C605.992 1562.36 464.389 980.863 194.611 1147.83C1.86511 1267.11 95.228 1350.33 -83.7264 1489.46C-342.559 1690.68 -598.023 1291.39 -598.023 1291.39" stroke="url(#paint4_linear_2_32)" stroke-opacity="0.6" stroke-width="2"/>
<path opacity="0.428571" d="M1623.39 1345.38C1623.39 1345.38 1515.67 1126.7 1297.85 1119.85C1086.35 1113.21 1103.43 1436.47 897.454 1484.94C588.625 1557.62 455.155 974.199 183.072 1137.38C-11.3206 1253.96 80.8713 1338.48 -100.008 1475.09C-361.626 1672.68 -611.49 1269.86 -611.49 1269.86" stroke="url(#paint5_linear_2_32)" stroke-opacity="0.6" stroke-width="2"/>
<path opacity="0.5" d="M1608.88 1354.83C1608.88 1354.83 1504.23 1134.67 1286.53 1124.79C1075.14 1115.19 1087.71 1438.65 881.069 1484.24C571.256 1552.6 445.945 967.378 171.61 1126.74C-24.3911 1240.6 66.612 1326.39 -116.158 1460.47C-380.509 1654.39 -624.724 1248.12 -624.724 1248.12" stroke="url(#paint6_linear_2_32)" stroke-opacity="0.6" stroke-width="2"/>
<path opacity="0.571429" d="M1594.18 1364.06C1594.18 1364.06 1492.6 1142.45 1275.06 1129.54C1063.83 1116.99 1071.88 1440.59 864.627 1483.3C553.89 1547.32 436.762 960.406 160.228 1115.93C-37.343 1227.04 52.4531 1314.09 -132.171 1445.6C-399.203 1635.81 -637.723 1226.17 -637.723 1226.17" stroke="url(#paint7_linear_2_32)" stroke-opacity="0.6" stroke-width="2"/>
<path opacity="0.642857" d="M1579.27 1373.05C1579.27 1373.05 1480.8 1150.05 1263.46 1134.1C1052.43 1118.6 1055.96 1442.29 848.13 1482.09C536.529 1541.77 427.607 953.278 148.929 1104.92C-50.1754 1213.26 38.3967 1301.56 -148.045 1430.48C-417.707 1616.94 -650.484 1204.02 -650.484 1204.02" stroke="url(#paint8_linear_2_32)" stroke-opacity="0.6" stroke-width="2"/>
<path opacity="0.714286" d="M1564.18 1381.81C1564.18 1381.81 1468.83 1157.45 1251.74 1138.47C1040.93 1120.03 1039.95 1443.73 831.582 1480.63C519.178 1535.96 418.483 945.996 137.715 1093.73C-62.8821 1199.29 24.4485 1288.81 -163.775 1415.12C-436.015 1597.79 -663.003 1181.66 -663.003 1181.66" stroke="url(#paint9_linear_2_32)" stroke-opacity="0.6" stroke-width="2"/>
<path opacity="0.785714" d="M1548.89 1390.33C1548.89 1390.33 1456.69 1164.67 1239.88 1142.65C1029.35 1121.27 1023.85 1444.93 814.989 1478.91C501.843 1529.87 409.395 938.563 126.592 1082.37C-75.46 1185.11 10.6121 1275.84 -179.356 1399.51C-454.12 1578.37 -675.276 1159.1 -675.276 1159.1" stroke="url(#paint10_linear_2_32)" stroke-opacity="0.6" stroke-width="2"/>
<path opacity="0.857143" d="M1533.42 1398.61C1533.42 1398.61 1444.37 1171.68 1227.89 1146.64C1017.69 1122.32 1007.66 1445.87 798.35 1476.94C484.524 1523.52 400.341 930.978 115.557 1070.82C-87.9086 1170.73 -3.11183 1262.66 -194.789 1383.66C-472.023 1558.66 -687.304 1136.35 -687.304 1136.35" stroke="url(#paint11_linear_2_32)" stroke-opacity="0.6" stroke-width="2"/>
<path opacity="0.928571" d="M1517.76 1406.65C1517.76 1406.65 1431.89 1178.5 1215.78 1150.43C1005.94 1123.19 991.399 1446.56 781.671 1474.71C467.224 1516.9 391.323 923.241 104.615 1059.09C-100.227 1156.15 -16.7216 1249.26 -210.069 1367.57C-489.72 1538.68 -699.083 1113.41 -699.083 1113.41" stroke="url(#paint12_linear_2_32)" stroke-opacity="0.6" stroke-width="2"/>
<path d="M1501.93 1414.44C1501.93 1414.44 1419.25 1185.11 1203.55 1154.03C994.11 1123.85 975.056 1447 764.956 1472.21C449.951 1510.01 382.346 915.347 93.7681 1047.18C-112.408 1141.37 -30.2112 1235.63 -225.191 1351.23C-507.204 1518.43 -710.609 1090.27 -710.609 1090.27" stroke="url(#paint13_linear_2_32)" stroke-opacity="0.6" stroke-width="2"/>
</g>
<g clip-path="url(#clip2_2_32)">
<path opacity="0.0714286" d="M2603.04 2590.43C2603.04 2590.43 2453.54 2294.35 2117.36 2320.59C1790.94 2346.08 1792.2 2807.26 1470.02 2910.94C986.974 3066.4 826.04 2251.03 392.755 2530.31C83.1903 2729.84 219.128 2835.89 -71.1065 3061.94C-490.891 3388.88 -845.799 2852.03 -845.799 2852.03" stroke="url(#paint14_linear_2_32)" stroke-opacity="0.6" stroke-width="2"/>
<path opacity="0.142857" d="M2580.4 2606.54C2580.4 2606.54 2435.75 2307.83 2099.99 2329.69C1773.97 2350.91 1768.24 2813.14 1445.27 2912.8C961.035 3062.22 812.853 2242.9 376.383 2517.08C64.5439 2712.97 198.544 2821.05 -94.414 3043.77C-518.138 3365.89 -864.046 2823.15 -864.046 2823.15" stroke="url(#paint15_linear_2_32)" stroke-opacity="0.6" stroke-width="2"/>
<path opacity="0.214286" d="M2557.47 2622.37C2557.47 2622.37 2417.69 2321.08 2082.42 2338.55C1756.87 2355.52 1744.14 2818.7 1420.44 2914.31C935.117 3057.66 799.717 2234.56 360.148 2503.59C46.0942 2695.79 178.131 2805.88 -117.494 3025.22C-545.075 3342.47 -881.915 2793.95 -881.915 2793.95" stroke="url(#paint16_linear_2_32)" stroke-opacity="0.6" stroke-width="2"/>
<path opacity="0.285714" d="M2534.25 2637.89C2534.25 2637.89 2399.38 2334.09 2064.65 2347.16C1739.63 2359.86 1719.91 2823.91 1395.55 2915.46C909.229 3052.72 786.637 2225.99 344.055 2489.81C27.848 2678.29 157.895 2790.37 -140.338 3006.3C-571.693 3318.6 -899.4 2764.4 -899.4 2764.4" stroke="url(#paint17_linear_2_32)" stroke-opacity="0.6" stroke-width="2"/>
<path opacity="0.357143" d="M2510.75 2653.11C2510.75 2653.11 2380.82 2346.84 2046.71 2355.53C1722.28 2363.96 1695.57 2828.78 1370.61 2916.25C883.383 3047.38 773.622 2217.2 328.113 2475.75C9.81525 2660.48 137.848 2774.53 -162.937 2986.99C-597.981 3294.29 -916.491 2734.53 -916.491 2734.53" stroke="url(#paint18_linear_2_32)" stroke-opacity="0.6" stroke-width="2"/>
<path opacity="0.428571" d="M2486.98 2668.02C2486.98 2668.02 2362 2359.35 2028.57 2363.64C1704.8 2367.8 1671.11 2833.31 1345.61 2916.68C857.576 3041.67 760.669 2208.18 312.319 2461.42C-8.00803 2642.35 117.985 2758.35 -185.291 2967.31C-623.94 3269.55 -933.191 2704.33 -933.191 2704.33" stroke="url(#paint19_linear_2_32)" stroke-opacity="0.6" stroke-width="2"/>
<path opacity="0.5" d="M2462.94 2682.61C2462.94 2682.61 2342.94 2371.6 2010.25 2371.49C1687.2 2371.39 1646.54 2837.49 1320.56 2916.74C831.816 3035.56 747.78 2198.93 296.678 2446.81C-25.6156 2623.91 98.3132 2741.84 -207.397 2947.26C-649.565 3244.37 -949.496 2673.8 -949.496 2673.8" stroke="url(#paint20_linear_2_32)" stroke-opacity="0.6" stroke-width="2"/>
<path opacity="0.571429" d="M2438.62 2696.88C2438.62 2696.88 2323.64 2383.6 1991.75 2379.09C1669.49 2374.72 1621.86 2841.32 1295.47 2916.44C806.108 3029.06 734.961 2189.46 281.194 2431.94C-43.0043 2605.17 78.8362 2725 -229.247 2926.83C-674.848 3218.77 -965.402 2642.96 -965.402 2642.96" stroke="url(#paint21_linear_2_32)" stroke-opacity="0.6" stroke-width="2"/>
<path opacity="0.642857" d="M2414.06 2710.83C2414.06 2710.83 2304.1 2395.33 1973.09 2386.43C1651.67 2377.79 1597.08 2844.8 1270.34 2915.77C780.46 3022.18 722.215 2179.77 265.872 2416.79C-60.1671 2586.13 59.5613 2707.83 -250.835 2906.04C-699.782 3192.74 -980.902 2611.81 -980.902 2611.81" stroke="url(#paint22_linear_2_32)" stroke-opacity="0.6" stroke-width="2"/>
<path opacity="0.714286" d="M2389.23 2724.46C2389.23 2724.46 2284.32 2406.8 1954.25 2393.5C1633.75 2380.59 1572.2 2847.92 1245.18 2914.74C754.876 3014.91 709.545 2169.85 250.714 2401.37C-77.1015 2566.78 40.4915 2690.33 -272.158 2884.89C-724.364 3166.29 -995.994 2580.35 -995.994 2580.35" stroke="url(#paint23_linear_2_32)" stroke-opacity="0.6" stroke-width="2"/>
<path opacity="0.785714" d="M2364.17 2737.75C2364.17 2737.75 2264.33 2418 1935.26 2400.31C1615.72 2383.14 1547.25 2850.7 1220.01 2913.34C729.368 3007.25 696.959 2159.71 235.73 2385.68C-93.7983 2547.13 21.6364 2672.51 -293.205 2863.37C-748.581 3139.42 -1010.67 2548.59 -1010.67 2548.59" stroke="url(#paint24_linear_2_32)" stroke-opacity="0.6" stroke-width="2"/>
<path opacity="0.857143" d="M2338.85 2750.71C2338.85 2750.71 2244.11 2428.92 1916.1 2406.85C1597.6 2385.42 1522.2 2853.11 1194.8 2911.57C703.932 2999.21 684.452 2149.35 220.915 2369.73C-110.263 2527.18 2.99179 2654.37 -313.981 2841.49C-772.439 3112.14 -1024.93 2516.53 -1024.93 2516.53" stroke="url(#paint25_linear_2_32)" stroke-opacity="0.6" stroke-width="2"/>
<path opacity="0.928571" d="M2313.31 2763.33C2313.31 2763.33 2223.66 2439.57 1896.79 2413.12C1579.39 2387.43 1497.08 2855.17 1169.59 2909.43C678.578 2990.78 672.031 2138.77 206.276 2353.51C-126.487 2506.94 -15.4358 2635.91 -334.477 2819.26C-795.927 3084.45 -1038.78 2484.18 -1038.78 2484.18" stroke="url(#paint26_linear_2_32)" stroke-opacity="0.6" stroke-width="2"/>
<path d="M2287.53 2775.6C2287.53 2775.6 2203.01 2449.94 1877.33 2419.1C1561.09 2389.16 1471.89 2856.86 1144.37 2906.91C653.312 2981.96 659.699 2127.96 191.817 2337.03C-142.465 2486.4 -33.6385 2617.12 -354.686 2796.66C-819.038 3056.35 -1052.2 2451.53 -1052.2 2451.53" stroke="url(#paint27_linear_2_32)" stroke-opacity="0.6" stroke-width="2"/>
</g>
</g>
<defs>
<linearGradient id="paint0_linear_2_32" x1="1395.93" y1="-1516.96" x2="3039.79" y2="872.618" gradientUnits="userSpaceOnUse">
<stop stop-color="#E8E4D8"/>
<stop offset="1" stop-color="#F28208"/>
</linearGradient>
<linearGradient id="paint1_linear_2_32" x1="1421.76" y1="-1510.27" x2="3032.09" y2="902.025" gradientUnits="userSpaceOnUse">
<stop stop-color="#E8E4D8"/>
<stop offset="1" stop-color="#F28208"/>
</linearGradient>
<linearGradient id="paint2_linear_2_32" x1="1447.42" y1="-1503.25" x2="3023.91" y2="931.298" gradientUnits="userSpaceOnUse">
<stop stop-color="#E8E4D8"/>
<stop offset="1" stop-color="#F28208"/>
</linearGradient>
<linearGradient id="paint3_linear_2_32" x1="1472.91" y1="-1495.89" x2="3015.26" y2="960.427" gradientUnits="userSpaceOnUse">
<stop stop-color="#E8E4D8"/>
<stop offset="1" stop-color="#F28208"/>
</linearGradient>
<linearGradient id="paint4_linear_2_32" x1="1498.23" y1="-1488.21" x2="3006.13" y2="989.407" gradientUnits="userSpaceOnUse">
<stop stop-color="#E8E4D8"/>
<stop offset="1" stop-color="#F28208"/>
</linearGradient>
<linearGradient id="paint5_linear_2_32" x1="1523.36" y1="-1480.2" x2="2996.53" y2="1018.23" gradientUnits="userSpaceOnUse">
<stop stop-color="#E8E4D8"/>
<stop offset="1" stop-color="#F28208"/>
</linearGradient>
<linearGradient id="paint6_linear_2_32" x1="1548.32" y1="-1471.86" x2="2986.45" y2="1046.89" gradientUnits="userSpaceOnUse">
<stop stop-color="#E8E4D8"/>
<stop offset="1" stop-color="#F28208"/>
</linearGradient>
<linearGradient id="paint7_linear_2_32" x1="1573.09" y1="-1463.21" x2="2975.91" y2="1075.38" gradientUnits="userSpaceOnUse">
<stop stop-color="#E8E4D8"/>
<stop offset="1" stop-color="#F28208"/>
</linearGradient>
<linearGradient id="paint8_linear_2_32" x1="1597.66" y1="-1454.23" x2="2964.91" y2="1103.69" gradientUnits="userSpaceOnUse">
<stop stop-color="#E8E4D8"/>
<stop offset="1" stop-color="#F28208"/>
</linearGradient>
<linearGradient id="paint9_linear_2_32" x1="1622.03" y1="-1444.94" x2="2953.43" y2="1131.82" gradientUnits="userSpaceOnUse">
<stop stop-color="#E8E4D8"/>
<stop offset="1" stop-color="#F28208"/>
</linearGradient>
<linearGradient id="paint10_linear_2_32" x1="1646.21" y1="-1435.34" x2="2941.5" y2="1159.76" gradientUnits="userSpaceOnUse">
<stop stop-color="#E8E4D8"/>
<stop offset="1" stop-color="#F28208"/>
</linearGradient>
<linearGradient id="paint11_linear_2_32" x1="1670.18" y1="-1425.43" x2="2929.12" y2="1187.51" gradientUnits="userSpaceOnUse">
<stop stop-color="#E8E4D8"/>
<stop offset="1" stop-color="#F28208"/>
</linearGradient>
<linearGradient id="paint12_linear_2_32" x1="1693.94" y1="-1415.2" x2="2916.27" y2="1215.06" gradientUnits="userSpaceOnUse">
<stop stop-color="#E8E4D8"/>
<stop offset="1" stop-color="#F28208"/>
</linearGradient>
<linearGradient id="paint13_linear_2_32" x1="1717.49" y1="-1404.68" x2="2902.97" y2="1242.39" gradientUnits="userSpaceOnUse">
<stop stop-color="#E8E4D8"/>
<stop offset="1" stop-color="#F28208"/>
</linearGradient>
<linearGradient id="paint14_linear_2_32" x1="1992.61" y1="-156.994" x2="3676.55" y2="2410.73" gradientUnits="userSpaceOnUse">
<stop stop-color="#F28208"/>
<stop offset="1" stop-color="#E8E4D8"/>
</linearGradient>
<linearGradient id="paint15_linear_2_32" x1="2013.1" y1="-155.069" x2="3667.08" y2="2432.3" gradientUnits="userSpaceOnUse">
<stop stop-color="#F28208"/>
<stop offset="1" stop-color="#E8E4D8"/>
</linearGradient>
<linearGradient id="paint16_linear_2_32" x1="2033.41" y1="-152.894" x2="3657.29" y2="2453.91" gradientUnits="userSpaceOnUse">
<stop stop-color="#F28208"/>
<stop offset="1" stop-color="#E8E4D8"/>
</linearGradient>
<linearGradient id="paint17_linear_2_32" x1="2053.54" y1="-150.483" x2="3647.16" y2="2475.58" gradientUnits="userSpaceOnUse">
<stop stop-color="#F28208"/>
<stop offset="1" stop-color="#E8E4D8"/>
</linearGradient>
<linearGradient id="paint18_linear_2_32" x1="2073.49" y1="-147.834" x2="3636.71" y2="2497.29" gradientUnits="userSpaceOnUse">
<stop stop-color="#F28208"/>
<stop offset="1" stop-color="#E8E4D8"/>
</linearGradient>
<linearGradient id="paint19_linear_2_32" x1="2093.24" y1="-144.947" x2="3625.91" y2="2519.06" gradientUnits="userSpaceOnUse">
<stop stop-color="#F28208"/>
<stop offset="1" stop-color="#E8E4D8"/>
</linearGradient>
<linearGradient id="paint20_linear_2_32" x1="2112.8" y1="-141.831" x2="3614.75" y2="2540.87" gradientUnits="userSpaceOnUse">
<stop stop-color="#F28208"/>
<stop offset="1" stop-color="#E8E4D8"/>
</linearGradient>
<linearGradient id="paint21_linear_2_32" x1="2132.16" y1="-138.478" x2="3603.23" y2="2562.73" gradientUnits="userSpaceOnUse">
<stop stop-color="#F28208"/>
<stop offset="1" stop-color="#E8E4D8"/>
</linearGradient>
<linearGradient id="paint22_linear_2_32" x1="2151.32" y1="-134.896" x2="3591.34" y2="2584.64" gradientUnits="userSpaceOnUse">
<stop stop-color="#F28208"/>
<stop offset="1" stop-color="#E8E4D8"/>
</linearGradient>
<linearGradient id="paint23_linear_2_32" x1="2170.28" y1="-131.089" x2="3579.07" y2="2606.6" gradientUnits="userSpaceOnUse">
<stop stop-color="#F28208"/>
<stop offset="1" stop-color="#E8E4D8"/>
</linearGradient>
<linearGradient id="paint24_linear_2_32" x1="2189.04" y1="-127.055" x2="3566.42" y2="2628.6" gradientUnits="userSpaceOnUse">
<stop stop-color="#F28208"/>
<stop offset="1" stop-color="#E8E4D8"/>
</linearGradient>
<linearGradient id="paint25_linear_2_32" x1="2207.59" y1="-122.796" x2="3553.36" y2="2650.65" gradientUnits="userSpaceOnUse">
<stop stop-color="#F28208"/>
<stop offset="1" stop-color="#E8E4D8"/>
</linearGradient>
<linearGradient id="paint26_linear_2_32" x1="2225.93" y1="-118.315" x2="3539.89" y2="2672.73" gradientUnits="userSpaceOnUse">
<stop stop-color="#F28208"/>
<stop offset="1" stop-color="#E8E4D8"/>
</linearGradient>
<linearGradient id="paint27_linear_2_32" x1="2244.05" y1="-113.622" x2="3526.01" y2="2694.85" gradientUnits="userSpaceOnUse">
<stop stop-color="#F28208"/>
<stop offset="1" stop-color="#E8E4D8"/>
</linearGradient>
<clipPath id="clip0_2_32">
<rect width="1440" height="3145" fill="white"/>
</clipPath>
<clipPath id="clip1_2_32">
<rect width="1440" height="2644" fill="white"/>
</clipPath>
<clipPath id="clip2_2_32">
<rect width="1440" height="3338" fill="white" transform="translate(0 780)"/>
</clipPath>
</defs>
</svg>
