<svg width="2560" height="2201" viewBox="0 0 2560 2201" fill="none" xmlns="http://www.w3.org/2000/svg">
<path opacity="0.97" d="M-679 16.4496C-679 16.4496 -216.001 -5.13852 -9.41357 188.855C287.82 467.968 -144.171 863.427 74.0259 1211.92C323.968 1611.11 1015.62 1526.66 998.429 1788.85C981.237 2051.05 834.444 2231.04 1097.1 2536C1359.75 2840.97 1641.21 2824.52 1900.23 2953.61M-661.608 34.8865C-661.608 34.8865 -201.527 -5.54152 11.2339 180.68C317.349 448.612 -98.1403 862.819 131.848 1203.55C395.297 1593.85 1080.67 1481.09 1073.19 1744.8C1065.7 2008.51 926.188 2195.01 1198.83 2490.28C1471.48 2785.54 1751.04 2757.63 2013.61 2876.62M-643.469 52.8045C-643.469 52.8045 -186.984 -6.40377 31.6366 171.772C346.183 428.127 -52.1934 860.471 189.248 1192.93C465.816 1573.77 1143.91 1432.87 1146.14 1697.71C1148.36 1962.55 1016.34 2155.29 1298.57 2440.42C1580.81 2725.54 1858.06 2686.21 2123.79 2794.93M-624.605 70.1718C-624.605 70.1718 -172.389 -7.72957 51.7691 162.137C374.283 406.537 -6.39333 856.381 246.144 1180.09C535.424 1550.9 1205.23 1382.07 1217.17 1647.64C1229.11 1913.21 1104.77 2111.91 1396.17 2386.48C1687.58 2661.06 1962.11 2610.36 2230.62 2708.64M-605.04 86.9571C-605.04 86.9571 -157.759 -9.52229 71.6054 151.785C401.611 383.871 39.1964 850.551 302.459 1165.03C604.023 1525.27 1264.56 1328.75 1286.19 1594.67C1307.83 1860.58 1191.35 2064.94 1491.5 2328.55C1791.64 2592.17 2063.06 2530.18 2333.94 2617.88M-584.798 103.131C-584.798 103.131 -143.113 -11.7849 91.1208 140.725C428.131 360.154 84.5131 842.983 358.112 1147.77C671.516 1496.9 1321.8 1272.99 1353.1 1538.86C1384.4 1804.73 1275.96 2014.44 1584.4 2266.71C1892.85 2518.97 2160.75 2445.79 2433.6 2522.78M-563.905 118.662C-563.905 118.662 -128.466 -14.5196 110.291 128.969C453.81 335.417 129.494 833.682 413.026 1128.33C737.809 1465.84 1376.89 1214.87 1417.81 1480.29C1458.72 1745.72 1358.47 1960.48 1674.77 2201.03C1991.06 2441.57 2255.04 2357.3 2529.47 2423.47M-542.388 133.524C-542.388 133.524 -113.837 -17.7278 129.092 116.527C478.613 309.69 174.078 822.658 467.124 1106.72C802.807 1432.12 1429.74 1154.45 1480.21 1419.05C1530.68 1683.64 1438.78 1903.14 1762.45 2131.61C2086.12 2360.08 2345.8 2264.84 2621.4 2320.09M-520.274 147.689C-520.274 147.689 -99.2426 -21.4102 147.5 103.413C502.507 283.007 218.202 809.921 520.332 1082.99C866.419 1395.79 1480.28 1091.84 1540.24 1355.21C1600.19 1618.58 1516.77 1842.49 1847.34 2058.55C2177.91 2274.61 2432.89 2168.54 2709.26 2212.79M-497.591 161.13C-497.591 161.13 -84.7001 -25.5671 165.492 89.6412C525.463 255.4 261.806 795.484 572.574 1057.15C928.555 1356.89 1528.44 1027.11 1597.79 1288.87C1667.13 1550.63 1592.32 1778.62 1929.3 1981.95C2266.29 2185.28 2516.21 2068.55 2792.93 2101.72M-474.368 173.822C-474.368 173.822 -70.2268 -30.1976 183.046 75.2254C547.45 226.906 304.83 779.363 623.778 1029.25C989.129 1315.49 1574.16 960.351 1652.79 1220.12C1731.43 1479.88 1665.33 1711.62 2008.23 1901.92C2351.13 2092.22 2595.62 1964.98 2872.29 1987.05M-450.636 185.741C-450.636 185.741 -55.8397 -35.3006 200.141 60.1819C568.44 197.56 347.216 761.576 673.872 999.307C1048.05 1271.63 1617.36 891.662 1705.17 1149.05C1792.98 1406.44 1735.69 1641.57 2084.01 1818.56C2432.32 1995.55 2671.01 1858.01 2947.22 1868.93M-426.425 196.864C-426.425 196.864 -41.5558 -40.874 216.755 44.5272C588.407 167.401 388.904 742.144 722.788 967.371C1105.25 1225.37 1657.99 821.137 1754.85 1075.77C1851.71 1330.4 1803.31 1568.59 2156.52 1732.01C2509.74 1895.42 2742.29 1747.78 3017.63 1747.52M-401.767 207.169C-401.767 207.169 -27.3918 -46.915 232.868 28.279C607.325 136.466 429.837 721.089 770.457 933.482C1160.63 1176.78 1696 748.873 1801.76 1000.37C1907.52 1251.86 1868.09 1492.76 2225.68 1642.37C2583.27 1791.97 2809.33 1634.44 3083.4 1623.02M-376.693 216.635C-376.693 216.635 -13.3644 -53.4202 248.461 11.4557C625.171 104.798 469.96 698.439 816.813 897.682C1214.13 1125.91 1731.33 674.971 1845.84 922.963C1960.35 1170.95 1929.94 1414.2 2291.38 1549.77C2652.83 1685.35 2872.06 1518.15 3144.45 1495.59" stroke="url(#paint0_linear_36_24806)" strokeWidth="1.77778"/>
<defs>
<linearGradient id="paint0_linear_36_24806" x1="2996.74" y1="-3984.37" x2="4552.95" y2="2764.41" gradientUnits="userSpaceOnUse">
<stop stop-color="#E8E4D8"/>
<stop offset="1" stop-color="#F28208"/>
</linearGradient>
</defs>
</svg>
