<svg width="320" height="277" viewBox="0 0 320 277" fill="none" xmlns="http://www.w3.org/2000/svg">
<g clip-path="url(#clip0_1_33)">
<g clip-path="url(#clip1_1_33)">
<path opacity="0.0714286" d="M396.848 13.059C396.848 13.059 350.144 -19.004 305.226 4.386C261.61 27.098 301.842 90.66 265.614 123.913C211.299 173.769 117.889 70.724 81.3142 134.74C55.1828 180.477 83.478 187.116 62.3629 235.375C31.8228 305.174 -64.6302 251.966 -64.6302 251.966" stroke="url(#paint0_linear_1_33)" stroke-width="0.444444"/>
<path opacity="0.142857" d="M395.069 16.613C395.069 16.613 348.817 -16.098 303.577 6.66201C259.649 28.763 298.989 92.881 262.301 125.625C207.294 174.717 115.333 70.378 77.8672 133.877C51.0998 179.245 79.2996 186.279 57.5127 234.238C26.001 303.604 -69.6997 249.055 -69.6997 249.055" stroke="url(#paint1_linear_1_33)" stroke-width="0.444444"/>
<path opacity="0.214286" d="M393.224 20.146C393.224 20.146 347.433 -13.208 301.88 8.91901C257.647 30.404 296.088 95.065 258.946 127.293C203.259 175.613 112.764 70 74.4155 132.97C47.0172 177.959 75.116 185.386 52.6617 233.036C20.1846 301.956 -74.7452 246.075 -74.7452 246.075" stroke="url(#paint2_linear_1_33)" stroke-width="0.444444"/>
<path opacity="0.285714" d="M391.312 23.653C391.312 23.653 345.991 -10.337 300.134 11.152C255.605 32.017 293.14 97.209 255.552 128.915C199.196 176.453 110.183 69.586 70.9596 132.015C42.9358 176.617 70.9282 184.436 47.8108 231.768C14.3745 300.227 -79.7658 243.027 -79.7658 243.027" stroke="url(#paint3_linear_1_33)" stroke-width="0.444444"/>
<path opacity="0.357143" d="M389.334 27.135C389.334 27.135 344.493 -7.484 298.339 13.362C253.524 33.603 290.144 99.313 252.118 130.491C195.103 177.237 107.592 69.139 67.5003 131.013C38.8564 175.22 66.737 183.429 42.9609 230.433C8.5721 298.419 -84.7604 239.91 -84.7604 239.91" stroke="url(#paint4_linear_1_33)" stroke-width="0.444444"/>
<path opacity="0.428571" d="M387.292 30.59C387.292 30.59 342.938 -4.65301 296.498 15.547C251.405 35.161 287.104 101.375 248.646 132.019C190.984 177.965 104.991 68.655 64.039 129.964C34.7808 173.767 62.544 182.364 38.114 229.032C2.7793 296.531 -89.7272 236.724 -89.7272 236.724" stroke="url(#paint5_linear_1_33)" stroke-width="0.444444"/>
<path opacity="0.5" d="M385.183 34.017C385.183 34.017 341.325 -1.841 294.608 17.708C249.245 36.691 284.016 103.397 245.134 133.501C186.836 178.637 102.377 68.137 60.5737 128.868C30.7068 172.258 58.3472 181.242 33.268 227.565C-3.00566 294.563 -94.6681 233.471 -94.6681 233.471" stroke="url(#paint6_linear_1_33)" stroke-width="0.444444"/>
<path opacity="0.571429" d="M383.009 37.416C383.009 37.416 339.657 0.950008 292.671 19.845C247.048 38.192 280.884 105.377 241.585 134.936C182.663 179.253 99.7554 67.585 57.1078 127.726C26.638 170.695 54.1503 180.064 28.4268 226.032C-8.77885 292.518 -99.5794 230.152 -99.5794 230.152" stroke="url(#paint7_linear_1_33)" stroke-width="0.444444"/>
<path opacity="0.642857" d="M380.772 40.787C380.772 40.787 337.933 3.71801 290.688 21.955C244.812 39.664 277.708 107.314 238 136.322C178.465 179.812 97.1242 66.997 53.6411 126.537C22.5743 169.077 49.9531 178.829 23.5903 224.433C-14.54 290.393 -104.461 226.765 -104.461 226.765" stroke="url(#paint8_linear_1_33)" stroke-width="0.444444"/>
<path opacity="0.714286" d="M378.47 44.126C378.47 44.126 336.152 6.462 288.658 24.038C242.539 41.104 274.487 109.208 234.378 137.658C174.241 180.313 94.4839 66.373 50.1737 125.301C18.5159 167.402 45.7559 177.535 18.759 222.767C-20.2885 288.188 -109.312 223.311 -109.312 223.311" stroke="url(#paint9_linear_1_33)" stroke-width="0.444444"/>
<path opacity="0.785714" d="M376.105 47.434C376.105 47.434 334.318 9.184 286.582 26.095C240.23 42.515 271.224 111.058 230.721 138.945C169.995 180.757 91.8363 65.714 46.7077 124.017C14.4652 165.672 41.5611 176.185 13.9352 221.035C-26.0219 285.905 -114.131 219.791 -114.131 219.791" stroke="url(#paint10_linear_1_33)" stroke-width="0.444444"/>
<path opacity="0.857143" d="M373.677 50.711C373.677 50.711 332.428 11.881 284.461 28.123C237.884 43.895 267.917 112.864 227.029 140.183C165.726 181.143 89.1806 65.02 43.2423 122.688C10.4214 163.888 37.3678 174.778 9.11844 219.239C-31.7405 283.544 -118.918 216.207 -118.918 216.207" stroke="url(#paint11_linear_1_33)" stroke-width="0.444444"/>
<path opacity="0.928571" d="M371.186 53.954C371.186 53.954 330.483 14.552 282.294 30.124C235.501 45.244 264.569 114.625 223.304 141.371C161.434 181.47 86.5177 64.29 39.7787 121.311C6.38573 162.049 33.1775 173.314 4.3101 217.376C-37.4427 281.104 -123.672 212.556 -123.672 212.556" stroke="url(#paint12_linear_1_33)" stroke-width="0.444444"/>
<path d="M368.633 57.164C368.633 57.164 328.484 17.197 280.082 32.094C233.083 46.559 261.179 116.34 219.544 142.507C157.121 181.739 83.848 63.524 36.3175 119.886C2.35899 160.154 28.9908 171.793 -0.488937 215.447C-43.1275 278.586 -128.391 208.841 -128.391 208.841" stroke="url(#paint13_linear_1_33)" stroke-width="0.444444"/>
</g>
</g>
<defs>
<linearGradient id="paint0_linear_1_33" x1="55.1769" y1="-548.154" x2="637.895" y2="-209.427" gradientUnits="userSpaceOnUse">
<stop stop-color="#E8E4D8"/>
<stop offset="1" stop-color="#F28208"/>
</linearGradient>
<linearGradient id="paint1_linear_1_33" x1="61.2672" y1="-549.315" x2="639.199" y2="-202.485" gradientUnits="userSpaceOnUse">
<stop stop-color="#E8E4D8"/>
<stop offset="1" stop-color="#F28208"/>
</linearGradient>
<linearGradient id="paint2_linear_1_33" x1="67.3559" y1="-550.387" x2="640.389" y2="-195.522" gradientUnits="userSpaceOnUse">
<stop stop-color="#E8E4D8"/>
<stop offset="1" stop-color="#F28208"/>
</linearGradient>
<linearGradient id="paint3_linear_1_33" x1="73.4419" y1="-551.375" x2="641.465" y2="-188.543" gradientUnits="userSpaceOnUse">
<stop stop-color="#E8E4D8"/>
<stop offset="1" stop-color="#F28208"/>
</linearGradient>
<linearGradient id="paint4_linear_1_33" x1="79.5239" y1="-552.275" x2="642.425" y2="-181.548" gradientUnits="userSpaceOnUse">
<stop stop-color="#E8E4D8"/>
<stop offset="1" stop-color="#F28208"/>
</linearGradient>
<linearGradient id="paint5_linear_1_33" x1="85.6017" y1="-553.089" x2="643.272" y2="-174.539" gradientUnits="userSpaceOnUse">
<stop stop-color="#E8E4D8"/>
<stop offset="1" stop-color="#F28208"/>
</linearGradient>
<linearGradient id="paint6_linear_1_33" x1="91.6712" y1="-553.817" x2="644.002" y2="-167.518" gradientUnits="userSpaceOnUse">
<stop stop-color="#E8E4D8"/>
<stop offset="1" stop-color="#F28208"/>
</linearGradient>
<linearGradient id="paint7_linear_1_33" x1="97.7341" y1="-554.459" x2="644.617" y2="-160.485" gradientUnits="userSpaceOnUse">
<stop stop-color="#E8E4D8"/>
<stop offset="1" stop-color="#F28208"/>
</linearGradient>
<linearGradient id="paint8_linear_1_33" x1="103.788" y1="-555.014" x2="645.117" y2="-153.443" gradientUnits="userSpaceOnUse">
<stop stop-color="#E8E4D8"/>
<stop offset="1" stop-color="#F28208"/>
</linearGradient>
<linearGradient id="paint9_linear_1_33" x1="109.832" y1="-555.484" x2="645.501" y2="-146.394" gradientUnits="userSpaceOnUse">
<stop stop-color="#E8E4D8"/>
<stop offset="1" stop-color="#F28208"/>
</linearGradient>
<linearGradient id="paint10_linear_1_33" x1="115.865" y1="-555.868" x2="645.771" y2="-139.339" gradientUnits="userSpaceOnUse">
<stop stop-color="#E8E4D8"/>
<stop offset="1" stop-color="#F28208"/>
</linearGradient>
<linearGradient id="paint11_linear_1_33" x1="121.886" y1="-556.166" x2="645.924" y2="-132.279" gradientUnits="userSpaceOnUse">
<stop stop-color="#E8E4D8"/>
<stop offset="1" stop-color="#F28208"/>
</linearGradient>
<linearGradient id="paint12_linear_1_33" x1="127.893" y1="-556.379" x2="645.962" y2="-125.216" gradientUnits="userSpaceOnUse">
<stop stop-color="#E8E4D8"/>
<stop offset="1" stop-color="#F28208"/>
</linearGradient>
<linearGradient id="paint13_linear_1_33" x1="133.885" y1="-556.507" x2="645.883" y2="-118.153" gradientUnits="userSpaceOnUse">
<stop stop-color="#E8E4D8"/>
<stop offset="1" stop-color="#F28208"/>
</linearGradient>
<clipPath id="clip0_1_33">
<rect width="320" height="277" fill="white"/>
</clipPath>
<clipPath id="clip1_1_33">
<rect width="320" height="586" fill="white" transform="translate(0 -157.5)"/>
</clipPath>
</defs>
</svg>
