<svg width="320" height="183" viewBox="0 0 320 183" fill="none" xmlns="http://www.w3.org/2000/svg">
<g clip-path="url(#clip0_1_32)">
<g clip-path="url(#clip1_1_32)">
<path opacity="0.0714286" d="M440.381 131.274C440.381 131.274 408.392 58.802 337.766 53.608C269.188 48.564 270.322 153.749 202.784 166.675C101.524 186.055 66.1541 -5.18598 -24.4114 44.079C-89.1167 79.278 -60.3382 107.975 -120.93 149.86C-208.567 210.441 -284.192 76.247 -284.192 76.247" stroke="url(#paint0_linear_1_32)" stroke-width="0.444444"/>
<path opacity="0.142857" d="M435.65 134.194C435.65 134.194 404.676 61.283 334.13 55.103C265.628 49.102 265.294 154.292 197.582 166.274C96.061 184.239 63.3648 -7.47799 -27.8798 40.519C-93.0702 74.81 -64.6952 103.906 -125.866 144.941C-214.34 204.293 -288.084 69.056 -288.084 69.056" stroke="url(#paint1_linear_1_32)" stroke-width="0.444444"/>
<path opacity="0.214286" d="M430.864 137.04C430.864 137.04 400.911 63.704 330.458 56.54C262.047 49.583 260.244 154.759 192.371 165.794C90.6095 182.34 60.5933 -9.81498 -31.3125 36.903C-96.9754 70.28 -69.0094 99.77 -130.747 139.947C-220.041 198.058 -291.89 61.804 -291.89 61.804" stroke="url(#paint2_linear_1_32)" stroke-width="0.444444"/>
<path opacity="0.285714" d="M426.01 139.808C426.01 139.808 397.083 66.061 326.737 57.913C258.43 50.002 255.159 155.142 187.139 165.229C85.1558 180.352 57.8254 -12.203 -34.7237 33.227C-100.846 65.685 -73.2947 95.562 -135.587 134.873C-225.684 191.731 -295.624 54.488 -295.624 54.488" stroke="url(#paint3_linear_1_32)" stroke-width="0.444444"/>
<path opacity="0.357143" d="M421.098 142.495C421.098 142.495 393.204 68.351 322.978 59.222C254.788 50.358 250.049 155.442 181.895 164.578C79.711 178.276 55.0718 -14.642 -38.1027 29.491C-104.672 61.023 -77.5402 91.282 -140.375 129.72C-231.258 185.314 -299.274 47.108 -299.274 47.108" stroke="url(#paint4_linear_1_32)" stroke-width="0.444444"/>
<path opacity="0.428571" d="M416.128 145.104C416.128 145.104 389.272 70.578 319.181 60.47C251.122 50.654 244.916 155.662 176.641 163.846C74.2753 176.115 52.332 -17.128 -41.4495 25.7C-108.453 56.299 -81.7459 86.934 -145.112 124.491C-236.761 178.811 -302.841 39.668 -302.841 39.668" stroke="url(#paint5_linear_1_32)" stroke-width="0.444444"/>
<path opacity="0.5" d="M411.101 147.63C411.101 147.63 385.288 72.736 315.345 61.65C247.429 50.886 239.757 155.796 171.375 163.026C68.8479 173.865 49.6048 -19.666 -44.7656 21.849C-112.189 51.509 -85.913 82.514 -149.797 119.182C-242.196 172.218 -306.327 32.166 -306.327 32.166" stroke="url(#paint6_linear_1_32)" stroke-width="0.444444"/>
<path opacity="0.571429" d="M406.017 150.075C406.017 150.075 381.252 74.828 311.47 62.767C243.711 51.055 234.576 155.848 166.099 162.122C63.4309 171.529 46.8919 -22.252 -48.0489 17.941C-115.88 46.658 -90.0394 78.026 -154.429 113.799C-247.56 165.539 -309.729 24.605 -309.729 24.605" stroke="url(#paint7_linear_1_32)" stroke-width="0.444444"/>
<path opacity="0.642857" d="M400.878 152.44C400.878 152.44 377.166 76.855 307.56 63.82C239.971 51.164 229.373 155.819 160.815 161.137C58.0258 169.109 44.1939 -24.884 -51.2988 13.98C-119.524 41.746 -94.1241 73.472 -159.007 108.342C-252.851 158.777 -313.046 16.989 -313.046 16.989" stroke="url(#paint8_linear_1_32)" stroke-width="0.444444"/>
<path opacity="0.714286" d="M395.685 154.721C395.685 154.721 373.031 78.812 303.613 64.807C236.208 51.207 224.15 155.705 155.524 160.064C52.6335 166.601 41.5116 -27.566 -54.5144 9.95999C-123.121 36.771 -98.1662 68.849 -163.529 102.81C-258.069 151.93 -316.278 9.315 -316.278 9.315" stroke="url(#paint9_linear_1_32)" stroke-width="0.444444"/>
<path opacity="0.785714" d="M390.44 156.918C390.44 156.918 368.848 80.7 299.633 65.727C232.424 51.188 218.908 155.507 150.228 158.908C47.2564 164.007 38.8466 -30.296 -57.6941 5.88599C-126.668 31.736 -102.164 64.159 -167.995 97.204C-263.211 144.999 -319.424 1.586 -319.424 1.586" stroke="url(#paint10_linear_1_32)" stroke-width="0.444444"/>
<path opacity="0.857143" d="M385.142 159.03C385.142 159.03 364.616 82.518 295.617 66.58C228.617 51.104 213.646 155.224 144.926 157.666C41.8927 161.327 36.1965 -33.075 -60.8399 1.75601C-130.168 26.641 -106.119 59.403 -172.405 91.526C-268.279 137.986 -322.484 -6.198 -322.484 -6.198" stroke="url(#paint11_linear_1_32)" stroke-width="0.444444"/>
<path opacity="0.928571" d="M379.796 161.059C379.796 161.059 360.341 84.267 291.571 67.368C224.794 50.958 208.37 154.859 139.623 156.341C36.5484 158.563 33.5671 -35.9 -63.9462 -2.427C-133.615 21.487 -110.026 54.582 -176.754 85.776C-273.267 130.894 -325.454 -14.034 -325.454 -14.034" stroke="url(#paint12_linear_1_32)" stroke-width="0.444444"/>
<path d="M374.397 162.999C374.397 162.999 356.016 85.944 287.489 68.085C220.947 50.745 203.075 154.406 134.313 154.928C31.218 155.711 30.952 -38.774 -67.0191 -6.66699C-137.015 16.273 -113.89 49.694 -181.047 79.953C-278.181 123.719 -328.339 -21.923 -328.339 -21.923" stroke="url(#paint13_linear_1_32)" stroke-width="0.444444"/>
</g>
</g>
<defs>
<linearGradient id="paint0_linear_1_32" x1="306.87" y1="-515.39" x2="664.162" y2="126.871" gradientUnits="userSpaceOnUse">
<stop stop-color="#F28208"/>
<stop offset="1" stop-color="#E8E4D8"/>
</linearGradient>
<linearGradient id="paint1_linear_1_32" x1="311.181" y1="-514.272" x2="659.471" y2="132.916" gradientUnits="userSpaceOnUse">
<stop stop-color="#F28208"/>
<stop offset="1" stop-color="#E8E4D8"/>
</linearGradient>
<linearGradient id="paint2_linear_1_32" x1="315.462" y1="-513.099" x2="654.681" y2="138.888" gradientUnits="userSpaceOnUse">
<stop stop-color="#F28208"/>
<stop offset="1" stop-color="#E8E4D8"/>
</linearGradient>
<linearGradient id="paint3_linear_1_32" x1="319.696" y1="-511.88" x2="649.779" y2="144.781" gradientUnits="userSpaceOnUse">
<stop stop-color="#F28208"/>
<stop offset="1" stop-color="#E8E4D8"/>
</linearGradient>
<linearGradient id="paint4_linear_1_32" x1="323.893" y1="-510.613" x2="644.776" y2="150.592" gradientUnits="userSpaceOnUse">
<stop stop-color="#F28208"/>
<stop offset="1" stop-color="#E8E4D8"/>
</linearGradient>
<linearGradient id="paint5_linear_1_32" x1="328.052" y1="-509.298" x2="639.672" y2="156.323" gradientUnits="userSpaceOnUse">
<stop stop-color="#F28208"/>
<stop offset="1" stop-color="#E8E4D8"/>
</linearGradient>
<linearGradient id="paint6_linear_1_32" x1="332.17" y1="-507.938" x2="634.465" y2="161.969" gradientUnits="userSpaceOnUse">
<stop stop-color="#F28208"/>
<stop offset="1" stop-color="#E8E4D8"/>
</linearGradient>
<linearGradient id="paint7_linear_1_32" x1="336.247" y1="-506.531" x2="629.159" y2="167.531" gradientUnits="userSpaceOnUse">
<stop stop-color="#F28208"/>
<stop offset="1" stop-color="#E8E4D8"/>
</linearGradient>
<linearGradient id="paint8_linear_1_32" x1="340.282" y1="-505.076" x2="623.755" y2="173.01" gradientUnits="userSpaceOnUse">
<stop stop-color="#F28208"/>
<stop offset="1" stop-color="#E8E4D8"/>
</linearGradient>
<linearGradient id="paint9_linear_1_32" x1="344.275" y1="-503.577" x2="618.253" y2="178.401" gradientUnits="userSpaceOnUse">
<stop stop-color="#F28208"/>
<stop offset="1" stop-color="#E8E4D8"/>
</linearGradient>
<linearGradient id="paint10_linear_1_32" x1="348.227" y1="-502.034" x2="612.656" y2="183.703" gradientUnits="userSpaceOnUse">
<stop stop-color="#F28208"/>
<stop offset="1" stop-color="#E8E4D8"/>
</linearGradient>
<linearGradient id="paint11_linear_1_32" x1="352.133" y1="-500.447" x2="606.962" y2="188.915" gradientUnits="userSpaceOnUse">
<stop stop-color="#F28208"/>
<stop offset="1" stop-color="#E8E4D8"/>
</linearGradient>
<linearGradient id="paint12_linear_1_32" x1="355.999" y1="-498.815" x2="601.178" y2="194.038" gradientUnits="userSpaceOnUse">
<stop stop-color="#F28208"/>
<stop offset="1" stop-color="#E8E4D8"/>
</linearGradient>
<linearGradient id="paint13_linear_1_32" x1="359.815" y1="-497.143" x2="595.297" y2="199.066" gradientUnits="userSpaceOnUse">
<stop stop-color="#F28208"/>
<stop offset="1" stop-color="#E8E4D8"/>
</linearGradient>
<clipPath id="clip0_1_32">
<rect width="320" height="183" fill="white"/>
</clipPath>
<clipPath id="clip1_1_32">
<rect width="320" height="839" fill="white" transform="translate(0 -319.5)"/>
</clipPath>
</defs>
</svg>
