<svg width="1440" height="982" viewBox="0 0 1440 982" fill="none" xmlns="http://www.w3.org/2000/svg">
<path opacity="0.97" d="M-440 247.176C-440 247.176 -229.201 123.671 -85.258 163.598C121.845 221.045 17.1126 511.444 204.324 620.632C418.773 745.705 720.886 536.844 777.098 663.427C833.31 790.009 808.895 909.975 1006.19 987.957C1203.49 1065.94 1330.82 989.308 1483.33 986.1M-427.366 251.52C-427.366 251.52 -222.545 119.937 -77.6243 154.724C130.884 204.776 38.4464 499.882 229.26 602.56C447.834 720.175 740.085 499.64 801.197 624.552C862.309 749.463 842.888 870.685 1042.47 941.693C1242.06 1012.7 1365.69 931.184 1517.39 922.393M-414.511 255.439C-414.511 255.439 -215.969 115.971 -70.2846 145.568C139.323 188.152 59.3151 487.53 253.449 583.545C475.828 693.529 757.784 461.645 823.706 584.702C889.628 707.758 875.229 830.057 1076.81 893.986C1278.38 957.915 1398.14 871.633 1548.8 857.271M-401.452 258.923C-401.452 258.923 -209.482 111.777 -63.2489 136.139C147.148 171.192 79.6887 474.401 276.857 563.612C502.712 665.802 773.958 422.912 844.593 543.932C915.228 664.952 905.873 788.147 1109.14 844.903C1312.41 901.66 1428.12 810.739 1577.52 790.828M-388.208 261.964C-388.208 261.964 -203.093 107.356 -56.5272 126.448C154.349 153.918 99.5376 460.511 299.45 542.786C528.448 637.032 788.584 383.493 863.827 502.298C939.071 621.104 934.774 745.014 1139.44 794.514C1344.1 844.013 1455.59 748.589 1603.5 723.157M-374.799 264.553C-374.799 264.553 -196.812 102.712 -50.1286 116.505C160.916 136.351 118.833 445.877 321.195 521.095C552.998 607.258 801.641 343.444 881.382 459.859C961.124 576.275 961.89 700.718 1167.65 742.887C1373.41 785.057 1480.51 685.269 1626.72 654.355M-361.243 266.683C-361.243 266.683 -190.646 97.8473 -44.0619 106.322C166.84 118.515 137.548 430.516 342.06 498.567C576.328 576.519 813.11 302.819 897.232 416.673C981.354 530.527 987.183 655.319 1193.73 690.097C1400.28 724.875 1502.84 620.871 1647.13 584.52M-347.559 268.348C-347.559 268.348 -184.604 92.766 -38.3354 95.9093C172.113 100.432 155.655 414.449 362.017 475.232C598.402 544.859 822.976 261.676 911.354 372.801C999.732 483.925 1010.62 608.882 1217.65 636.217C1424.68 663.552 1522.54 555.484 1664.7 513.75M-333.768 269.541C-333.768 269.541 -178.695 87.4719 -32.9569 85.2792C176.728 82.1245 173.128 397.694 381.035 451.12C619.19 512.319 831.224 220.071 923.728 328.302C1016.23 436.534 1032.15 561.471 1239.37 581.323C1446.58 601.174 1539.6 489.203 1679.42 442.147M-319.889 270.257C-319.889 270.257 -172.926 81.9691 -27.9338 74.4437C180.679 63.6163 189.942 380.273 399.087 426.263C638.661 478.944 837.842 178.061 934.336 283.24C1030.83 388.419 1051.77 513.153 1258.86 525.492C1465.95 537.831 1553.99 422.121 1691.26 369.813M-305.941 270.491C-305.941 270.491 -167.306 76.2621 -23.2727 63.4151C183.959 44.931 206.072 362.209 416.148 400.694C656.788 444.779 842.823 135.706 943.164 237.677C1043.5 339.648 1069.42 463.995 1276.08 468.803C1482.74 473.611 1565.68 354.333 1700.21 296.85M-291.945 270.24C-291.945 270.24 -161.841 70.3558 -18.98 52.206C186.566 26.0925 221.496 343.523 432.193 374.448C673.544 409.872 846.158 93.0642 950.198 191.677C1054.24 290.29 1085.1 414.067 1291.03 411.336C1496.95 408.606 1574.66 285.936 1706.24 223.362M-277.92 269.5C-277.92 269.5 -156.54 64.2552 -15.0612 40.8295C188.496 7.12506 236.192 324.241 447.198 347.559C688.905 374.27 847.844 50.1943 955.43 145.304C1063.02 240.413 1098.78 363.437 1303.67 353.173C1508.55 342.908 1580.91 217.027 1709.36 149.455M-263.888 268.268C-263.888 268.268 -151.41 57.9658 -11.5215 29.2986C189.747 -11.9471 250.138 304.387 461.143 320.064C702.848 338.023 847.878 7.15643 958.852 98.6222C1069.83 190.088 1110.44 312.177 1313.98 294.394C1517.53 276.611 1584.44 147.704 1709.55 75.2327M-249.866 266.543C-249.866 266.543 -146.457 51.4931 -8.36556 17.6268C190.317 -31.0993 263.314 283.986 474.008 291.999C715.356 301.179 846.262 -35.9899 960.46 51.6974C1074.66 139.385 1120.06 260.359 1321.96 235.084C1523.87 209.808 1585.23 78.0654 1706.83 0.802141" stroke="url(#paint0_linear_18_4)"/>
<defs>
<linearGradient id="paint0_linear_18_4" x1="352.618" y1="-1680.14" x2="2273.04" y2="440.625" gradientUnits="userSpaceOnUse">
<stop stop-color="#F28208"/>
<stop offset="0.854" stop-color="#E8E4D8"/>
</linearGradient>
</defs>
</svg>
