<svg width="2560" height="1330" viewBox="0 0 2560 1330" fill="none" xmlns="http://www.w3.org/2000/svg">
<path opacity="0.97" d="M-371 324.297C-371 324.297 -50.832 152.194 174.789 219.771C499.408 317 353.231 743.672 649.894 916.853C989.72 1115.23 1446.79 821.125 1541.14 1012.84C1635.5 1204.56 1604.37 1381.88 1914.92 1509.15C2225.48 1636.41 2418.76 1529.43 2655.26 1533.24M-351.15 331.478C-351.15 331.478 -40.7126 147.006 186.135 206.983C512.52 293.276 385.686 727.652 687.573 891.337C1033.38 1078.84 1474.48 766.788 1576.35 956.292C1678.22 1145.8 1654.9 1325.27 1968.62 1442.28C2282.33 1559.28 2469.6 1444.82 2704.51 1440.26M-330.98 338.039C-330.98 338.039 -30.7308 141.47 197.01 193.758C524.679 268.988 417.375 710.427 724.04 864.376C1075.32 1040.72 1499.81 711.189 1609.04 898.2C1718.26 1085.21 1702.8 1266.57 2019.21 1373.15C2335.62 1479.72 2516.61 1357.94 2749.59 1345.03M-310.519 343.964C-310.519 343.964 -20.9005 135.587 207.397 180.109C535.867 244.165 448.252 692.017 759.243 836.002C1115.48 1000.93 1522.73 654.403 1639.16 838.647C1755.58 1022.89 1748 1205.87 2066.63 1301.86C2385.26 1397.84 2559.7 1268.92 2790.41 1247.67M-289.796 349.239C-289.796 349.239 -11.2356 129.362 217.282 166.052C546.07 218.84 478.272 672.444 793.13 806.253C1153.8 959.529 1543.21 596.51 1666.66 777.714C1790.11 958.918 1790.42 1143.25 2110.81 1228.5C2431.2 1313.76 2598.83 1177.89 2826.93 1148.34M-268.842 353.851C-268.842 353.851 -1.74946 122.798 226.652 151.602C555.272 193.044 507.391 651.732 825.653 775.167C1190.22 916.56 1561.22 537.589 1691.51 715.486C1821.81 893.384 1830.01 1078.79 2151.68 1153.19C2473.35 1227.59 2633.93 1084.98 2859.08 1047.16M-247.685 357.787C-247.685 357.787 7.54487 115.899 235.493 136.774C563.461 166.809 535.569 629.905 856.765 742.784C1224.69 872.087 1576.73 477.722 1713.68 652.051C1850.63 826.379 1866.7 1012.59 2189.18 1076.02C2511.67 1139.45 2664.96 990.307 2886.82 944.283M-226.357 361.037C-226.357 361.037 16.6344 108.67 243.794 121.586C570.626 140.17 562.763 606.991 886.419 709.148C1257.17 826.169 1589.72 416.992 1733.12 587.494C1876.52 757.997 1900.45 944.741 2223.27 997.112C2546.08 1049.48 2691.86 894.019 2910.12 839.857M-204.889 363.591C-204.889 363.591 25.5064 101.117 251.542 106.055C576.757 113.159 588.934 583.017 914.574 674.302C1287.59 778.868 1600.18 355.483 1749.82 521.908C1899.46 688.333 1931.2 875.332 2253.88 916.566C2576.56 957.801 2714.6 796.249 2928.93 734.028M-183.31 365.438C-183.31 365.438 34.1486 93.2447 258.727 90.1972C581.845 85.8127 614.045 558.015 941.189 638.293C1315.93 730.25 1608.08 293.28 1763.75 455.382C1919.41 617.485 1958.92 804.463 2280.98 834.5C2603.04 864.537 2733.15 697.136 2943.23 626.947M-161.653 366.573C-161.653 366.573 42.5492 85.0601 265.339 74.0318C585.884 58.1644 638.06 532.015 966.225 601.167C1342.14 680.381 1613.43 230.469 1774.88 388.01C1936.33 545.551 1983.55 732.233 2304.52 751.028C2625.49 769.823 2747.47 596.82 2953 518.768M-139.948 366.986C-139.948 366.986 50.6966 76.5699 271.37 57.5768C588.869 30.25 660.943 505.05 989.646 562.975C1366.17 629.328 1616.2 167.139 1783.21 319.886C1950.21 472.633 2005.07 658.744 2324.48 666.269C2643.88 673.794 2757.56 495.444 2958.23 409.643M-118.226 366.673C-118.226 366.673 58.5795 67.7811 276.81 40.8514C590.796 2.10543 682.662 477.155 1011.42 523.767C1388.01 577.161 1616.41 103.377 1788.71 251.105C1961.02 398.833 2023.45 584.097 2340.82 580.342C2658.18 576.586 2763.39 393.152 2958.9 299.728M-96.5188 365.628C-96.5188 365.628 66.187 58.7014 281.654 23.8747C591.664 -26.2333 703.186 448.365 1031.51 483.596C1407.6 523.953 1614.04 39.2709 1791.4 181.762C1968.76 324.253 2038.65 508.399 2353.52 493.368C2668.38 478.338 2764.96 290.089 2955.03 189.181M-74.8576 363.848C-74.8576 363.848 73.5089 49.3388 285.895 6.66643C591.471 -54.7297 722.486 418.719 1049.89 442.516C1424.94 469.776 1609.1 -25.0892 1791.25 111.955C1973.4 248.999 2050.66 431.755 2362.56 405.471C2674.46 379.187 2762.26 186.402 2946.61 78.159" stroke="url(#paint0_linear_33_16621)" stroke-width="1.77778"/>
<defs>
<linearGradient id="paint0_linear_33_16621" x1="750.501" y1="-2501.95" x2="3685.93" y2="906.502" gradientUnits="userSpaceOnUse">
<stop stop-color="#F28208"/>
<stop offset="0.854" stop-color="#E8E4D8"/>
</linearGradient>
</defs>
</svg>
