<svg width="59" height="28" viewBox="0 0 59 28" fill="none" xmlns="http://www.w3.org/2000/svg">
<g id="IBM_logo 1">
<g id="Group">
<g id="Group_2">
<path id="Rectangle-path" d="M3.07031 23.3115H13.3794V24.8102H3.07031V23.3115Z" fill="#F5F5F5"/>
<path id="Rectangle-path_1_" d="M3.07031 20.4375H13.3794V21.9415H3.07031V20.4375Z" fill="#F5F5F5"/>
<path id="Rectangle-path_2_" d="M6.01172 17.5674H10.4336V19.0714H6.01172V17.5674Z" fill="#F5F5F5"/>
<path id="Rectangle-path_3_" d="M6.01172 14.6982H10.4336V16.2022H6.01172V14.6982Z" fill="#F5F5F5"/>
<path id="Rectangle-path_4_" d="M6.01172 11.8291H10.4336V13.3331H6.01172V11.8291Z" fill="#F5F5F5"/>
<path id="Rectangle-path_5_" d="M6.01172 8.9541H10.4336V10.4581H6.01172V8.9541Z" fill="#F5F5F5"/>
<path id="Rectangle-path_6_" d="M13.3794 6.08496H3.07031V7.58897H13.3794V6.08496Z" fill="#F5F5F5"/>
<path id="Rectangle-path_7_" d="M13.3794 3.21582H3.07031V4.71983H13.3794V3.21582Z" fill="#F5F5F5"/>
</g>
<g id="Group_3">
<path id="Shape_16_" d="M14.8496 21.9415H30.7045C30.9723 21.4775 31.1719 20.9708 31.2927 20.4375H14.8496V21.9415Z" fill="#F5F5F5"/>
<path id="Shape_17_" d="M29.4704 14.6982H17.7959V16.2022H30.7046C30.3685 15.6262 29.9536 15.1196 29.4704 14.6982Z" fill="#F5F5F5"/>
<path id="Shape_18_" d="M17.7959 11.8291V13.3331H29.4704C29.9641 12.9118 30.379 12.4051 30.7046 11.8291H17.7959Z" fill="#F5F5F5"/>
<path id="Shape_19_" d="M30.7046 6.08496H14.8496V7.58897H31.2927C31.1562 7.05563 30.9566 6.549 30.7046 6.08496Z" fill="#F5F5F5"/>
<path id="Shape_20_" d="M25.831 3.21582H14.8496V4.71983H29.6174C28.6301 3.7918 27.2909 3.21582 25.831 3.21582Z" fill="#F5F5F5"/>
<path id="Rectangle-path_8_" d="M22.2126 8.9541H17.7959V10.4581H22.2126V8.9541Z" fill="#F5F5F5"/>
<path id="Shape_21_" d="M26.6338 10.4581H31.2553C31.3866 9.97813 31.4549 9.47145 31.4549 8.9541H26.6338V10.4581Z" fill="#F5F5F5"/>
<path id="Rectangle-path_9_" d="M17.7959 17.5674H22.2126V19.0714H17.7959V17.5674Z" fill="#F5F5F5"/>
<path id="Shape_22_" d="M26.6338 17.5674V19.0714H31.4549C31.4549 18.554 31.3866 18.0474 31.2553 17.5674H26.6338Z" fill="#F5F5F5"/>
<path id="Shape_23_" d="M14.8496 24.7995L25.831 24.8155C27.3014 24.8155 28.6301 24.2395 29.6227 23.3115H14.8496V24.7995Z" fill="#F5F5F5"/>
</g>
<g id="Group_4">
<path id="Rectangle-path_10_" d="M32.5273 23.3115H39.8902V24.8102H32.5273V23.3115Z" fill="#F5F5F5"/>
<path id="Rectangle-path_11_" d="M32.5273 20.4375H39.8902V21.9415H32.5273V20.4375Z" fill="#F5F5F5"/>
<path id="Rectangle-path_12_" d="M35.4688 17.5674H39.8907V19.0714H35.4688V17.5674Z" fill="#F5F5F5"/>
<path id="Rectangle-path_13_" d="M35.4688 14.6982H39.8907V16.2022H35.4688V14.6982Z" fill="#F5F5F5"/>
<path id="Shape_24_" d="M41.9384 6.08496H32.5273V7.58897H42.4478L41.9384 6.08496Z" fill="#F5F5F5"/>
<path id="Shape_25_" d="M40.9615 3.21582H32.5273V4.71983H41.471L40.9615 3.21582Z" fill="#F5F5F5"/>
<path id="Rectangle-path_14_" d="M48.7236 23.3115H56.0918V24.8102H48.7236V23.3115Z" fill="#F5F5F5"/>
<path id="Rectangle-path_15_" d="M48.7236 20.4375H56.0918V21.9415H48.7236V20.4375Z" fill="#F5F5F5"/>
<path id="Rectangle-path_16_" d="M48.7236 17.5674H53.1456V19.0714H48.7236V17.5674Z" fill="#F5F5F5"/>
<path id="Rectangle-path_17_" d="M48.7236 14.6982H53.1456V16.2022H48.7236V14.6982Z" fill="#F5F5F5"/>
<path id="Shape_26_" d="M48.7241 13.3331H53.146V11.8291H48.7241H44.7223L44.3074 13.0451L43.8925 11.8291H39.8907H35.4688V13.3331H39.8907V11.9518L40.3581 13.3331H48.2567L48.7241 11.9518V13.3331Z" fill="#F5F5F5"/>
<path id="Shape_27_" d="M53.1458 8.9541H45.6989L45.1895 10.4581H53.1458V8.9541Z" fill="#F5F5F5"/>
<path id="Shape_28_" d="M47.6579 3.21582L47.1484 4.71983H56.0921V3.21582H47.6579Z" fill="#F5F5F5"/>
<path id="Shape_29_" d="M44.3073 24.7995L44.8167 23.3115H43.7979L44.3073 24.7995Z" fill="#F5F5F5"/>
<path id="Shape_30_" d="M43.3305 21.9415H45.2841L45.8093 20.4375H42.8105L43.3305 21.9415Z" fill="#F5F5F5"/>
<path id="Shape_31_" d="M42.3373 19.0714H46.2761L46.796 17.5674H41.8174L42.3373 19.0714Z" fill="#F5F5F5"/>
<path id="Shape_32_" d="M41.3502 16.2022H47.2689L47.7731 14.6982H40.8408L41.3502 16.2022Z" fill="#F5F5F5"/>
<path id="Shape_33_" d="M35.4688 10.4581H43.4251L42.9157 8.9541H35.4688V10.4581Z" fill="#F5F5F5"/>
<path id="Shape_34_" d="M46.1709 7.58897H56.0914V6.08496H46.6751L46.1709 7.58897Z" fill="#F5F5F5"/>
</g>
</g>
</g>
</svg>
