<svg width="91" height="26" viewBox="0 0 91 26" fill="none" xmlns="http://www.w3.org/2000/svg">
<path d="M13.6785 4.40137C12.5462 4.40137 11.1023 5.78101 11.1023 8.18297V9.35417C10.3544 8.89761 9.48179 8.64947 8.39106 8.64947C5.30585 8.65939 2.90625 10.982 2.90625 13.8603C2.90625 16.7387 5.20198 19.0613 8.37029 19.0613C9.89729 19.0613 11.1023 18.5352 11.8918 17.8107C12.4112 18.4955 13.0552 18.8727 13.6162 18.8727C14.0524 18.8727 14.2706 18.6444 14.2706 18.1382V5.08622C14.2706 4.62965 14.0524 4.40137 13.6785 4.40137ZM8.6092 16.3318C7.08218 16.3318 6.11611 15.2698 6.11611 13.8504C6.11611 12.4311 7.08218 11.369 8.6092 11.369C10.1362 11.369 11.1023 12.4311 11.1023 13.8504C11.1023 15.2797 10.1362 16.3318 8.6092 16.3318ZM25.9673 9.03656H24.8974C24.1287 9.03656 23.8482 9.33432 23.8482 10.039V13.7809C23.8482 15.2896 23.038 16.1829 21.7291 16.1829C20.3787 16.1829 19.6931 15.3293 19.6931 13.7412V10.039C19.6931 9.30455 19.3814 9.03656 18.6439 9.03656H17.5739C16.8364 9.03656 16.5248 9.30455 16.5248 10.039V13.8206C16.5248 17.0563 18.2284 19.0613 21.2201 19.0613C22.5497 19.0613 23.734 18.565 24.565 17.7015C25.0637 18.4558 25.7491 18.8727 26.3621 18.8727C26.7361 18.8727 27.0164 18.6444 27.0164 18.1382V10.039C27.0164 9.30455 26.7048 9.03656 25.9673 9.03656ZM34.4024 19.0613C37.6122 19.0613 40.0013 16.7387 40.0013 13.8603C40.0013 10.9125 37.6019 8.65939 34.4024 8.65939C31.2132 8.65939 28.8033 10.982 28.8033 13.8603C28.8033 16.8082 31.2132 19.0613 34.4024 19.0613ZM34.4024 16.3318C32.9585 16.3318 32.0028 15.2698 32.0028 13.8504C32.0028 12.4311 32.948 11.369 34.4024 11.369C35.8671 11.369 36.802 12.4311 36.802 13.8504C36.7915 15.2797 35.8671 16.3318 34.4024 16.3318ZM42.7957 18.6841H43.8656C44.5928 18.6841 44.9148 18.4161 44.9148 17.6816V5.13585C44.9148 4.62965 44.6968 4.40137 44.2604 4.40137C43.1905 4.40137 41.7466 5.78101 41.7466 8.18297V17.6816C41.7466 18.4161 42.0582 18.6841 42.7957 18.6841ZM48.9557 7.65691C49.9219 7.65691 50.7426 6.94229 50.7426 6.02914C50.7426 5.116 49.9219 4.40137 48.9557 4.40137C47.9689 4.40137 47.1691 5.116 47.1691 6.02914C47.1691 6.94229 47.9584 7.65691 48.9557 7.65691ZM48.4156 18.6841H49.4855C50.2543 18.6841 50.5347 18.3863 50.5347 17.6816V10.039C50.5347 9.33432 50.2543 9.03656 49.4855 9.03656H48.4156C47.6468 9.03656 47.3665 9.33432 47.3665 10.039V17.6816C47.3665 18.3764 47.6468 18.6841 48.4156 18.6841ZM58.8658 8.65939C57.5569 8.65939 56.3104 9.1656 55.4378 10.0589C54.9183 9.26484 54.2329 8.84797 53.6407 8.84797C53.2043 8.84797 52.9861 9.07627 52.9861 9.58246V17.6816C52.9861 18.4161 53.298 18.6841 54.0355 18.6841H55.1054C55.874 18.6841 56.1546 18.3863 56.1546 17.6816V13.9298C56.1546 12.4311 57.0687 11.5279 58.4086 11.5279C59.7696 11.5279 60.4863 12.4013 60.4863 13.9695V17.6816C60.4863 18.4161 60.798 18.6841 61.5355 18.6841H62.6054C63.3429 18.6841 63.6545 18.4161 63.6545 17.6816V13.8206C63.6545 10.6643 61.9719 8.65939 58.8658 8.65939ZM74.1463 15.6966C75.0812 15.0315 75.6526 14.0291 75.6526 12.8777C75.6526 12.4013 75.5487 11.9745 75.3513 11.5576C76.4006 11.0614 76.7952 10.1581 76.7952 9.30455C76.7952 8.45095 76.442 8.20281 75.9227 8.43111C74.0632 9.24499 73.8036 9.2847 72.5779 9.07627C71.8091 8.94723 71.2482 8.84797 70.5002 8.84797C69.1186 8.84797 67.9863 9.26484 67.0306 10.0192C66.1373 10.7338 65.6802 11.776 65.6802 12.8777C65.6802 14.0291 66.2308 15.0315 67.1865 15.6966C65.9399 16.3218 65.0674 17.6419 65.0674 19.2102C65.0674 21.8007 67.2488 23.5972 70.6457 23.5972C74.2087 23.5972 76.2448 21.6121 76.2448 19.0216C76.2656 17.4534 75.3929 16.2822 74.1463 15.6966ZM70.6665 11.3095C71.8196 11.3095 72.5258 11.8752 72.5258 13.0167C72.5258 13.9199 71.7364 14.7239 70.6665 14.7239C69.5966 14.7239 68.8278 13.9298 68.8278 13.0167C68.8278 11.9447 69.555 11.3095 70.6665 11.3095ZM70.6665 21.1059C69.2849 21.1059 68.2564 20.2523 68.2564 19.1605C68.2564 17.9496 69.2226 17.2151 70.6665 17.2151C72.1312 17.2151 73.0972 17.9496 73.0972 19.1605C73.0972 20.2722 72.0896 21.1059 70.6665 21.1059ZM83.0384 19.0613C86.2484 19.0613 88.6375 16.7387 88.6375 13.8603C88.6375 10.9125 86.2379 8.65939 83.0384 8.65939C79.8494 8.65939 77.4393 10.982 77.4393 13.8603C77.4393 16.8082 79.8494 19.0613 83.0384 19.0613ZM83.0384 16.3318C81.5945 16.3318 80.6388 15.2698 80.6388 13.8504C80.6388 12.4311 81.5842 11.369 83.0384 11.369C84.5031 11.369 85.438 12.4311 85.438 13.8504C85.438 15.2797 84.5031 16.3318 83.0384 16.3318Z" fill="#F5F5F5"/>
</svg>
