<svg width="67" height="24" viewBox="0 0 67 24" fill="none" xmlns="http://www.w3.org/2000/svg">
<g id="logo 1">
<path id="path2" d="M32.1627 19.3285L27.7521 12.9932L31.9834 6.97559H28.7203L24.8835 12.3403V6.97559H22.0146V19.3285H24.8835V13.6109L28.8996 19.3285H32.1627Z" fill="#F5F5F5"/>
<path id="path4" d="M39.0934 10.5049V15.3225C39.0934 16.5755 38.4122 17.1402 37.4259 17.1402C36.5654 17.1402 35.8661 16.6284 35.8661 15.5343V10.5049H33.1768V15.9225C33.1768 18.3049 34.7186 19.5755 36.5294 19.5755C37.7129 19.5755 38.6094 19.1519 39.0934 18.499V19.3284H41.7829V10.5049H39.0934Z" fill="#F5F5F5"/>
<path id="path6" d="M49.5111 10.2578C48.3278 10.2578 47.4313 10.6813 46.9471 11.3343V10.5049H44.2578V19.3284H46.9471V14.5108C46.9471 13.2578 47.6285 12.6931 48.6146 12.6931C49.4752 12.6931 50.1744 13.2049 50.1744 14.299V19.3284H52.8639V13.9108C52.8639 11.5284 51.322 10.2578 49.5111 10.2578Z" fill="#F5F5F5"/>
<path id="path8" d="M61.7223 10.5049V11.3343C61.1307 10.6637 60.2521 10.2578 59.0507 10.2578C56.702 10.2578 54.7656 12.2872 54.7656 14.9166C54.7656 17.5461 56.702 19.5755 59.0507 19.5755C60.2521 19.5755 61.1307 19.1696 61.7223 18.499V19.3284H64.4116V10.5049H61.7223ZM59.5887 17.0696C58.3516 17.0696 57.4551 16.2402 57.4551 14.9166C57.4551 13.5931 58.3516 12.7637 59.5887 12.7637C60.8258 12.7637 61.7223 13.5931 61.7223 14.9166C61.7223 16.2402 60.8258 17.0696 59.5887 17.0696Z" fill="#F5F5F5"/>
<path id="path10" d="M14.5985 22.0098C16.5368 22.0098 17.674 19.8699 16.5647 18.3102L12.3823 12.4293C12.0935 12.0232 12.0948 11.483 12.3855 11.0782L16.2354 5.71833C17.355 4.15957 16.219 2.00977 14.2757 2.00977H4.80977C3.48558 2.00977 2.41211 3.06321 2.41211 4.3627C2.41211 4.3627 2.41212 18.3039 2.41211 19.6568C2.4121 21.0098 3.33727 22.0098 4.80212 22.0098C6.26698 22.0098 14.5985 22.0098 14.5985 22.0098Z" fill="#F5F5F5"/>
<path id="path12" fill-rule="evenodd" clip-rule="evenodd" d="M2.41211 19.6568C2.4121 20.9321 3.23408 21.8938 4.55521 22.0001C8.4509 16.5709 12.3394 11.1423 16.2354 5.71833C17.355 4.15957 16.219 2.00977 14.2757 2.00977H4.80977C3.48558 2.00977 2.41211 3.06321 2.41211 4.3627V19.6568Z" fill="#F5F5F5"/>
</g>
</svg>
