<svg width="70" height="22" viewBox="0 0 70 22" fill="none" xmlns="http://www.w3.org/2000/svg">
<path d="M44.0848 8.82632C43.0563 7.77281 41.8145 7.25782 40.379 7.25782C38.9632 7.25782 37.7214 7.77347 36.6923 8.82632C35.6638 9.85696 35.141 11.2915 35.141 13.1292C35.141 14.967 35.6638 16.4002 36.6923 17.4537C37.7208 18.4844 38.9632 19 40.379 19C41.8145 19 43.0563 18.4844 44.0848 17.4537C45.1328 16.4002 45.6557 14.9663 45.6557 13.1292C45.6557 11.2921 45.1323 9.85696 44.0848 8.82632ZM38.4397 15.4813C37.8972 14.8768 37.6239 14.0919 37.6239 13.1286C37.6239 12.1653 37.8949 11.381 38.4397 10.7981C38.6923 10.5074 38.9945 10.278 39.3278 10.124C39.6611 9.96993 40.0186 9.89442 40.3785 9.90205C40.7414 9.89434 41.1019 9.96973 41.4385 10.1237C41.7751 10.2776 42.0808 10.507 42.3374 10.7981C42.8989 11.381 43.1722 12.1646 43.1722 13.1286C43.1722 14.0926 42.9012 14.8762 42.3374 15.4813C41.7949 16.0636 41.1348 16.3551 40.3785 16.3551C40.0204 16.3616 39.6648 16.2877 39.3321 16.1377C38.9994 15.9878 38.6961 15.7647 38.4397 15.4813ZM49.3246 18.6856V3.30913H46.8802V18.6856H49.3246ZM57.214 7.57152V13.707C57.214 15.1853 56.5222 16.1656 55.2055 16.1656C53.8662 16.1656 53.1929 15.1866 53.1929 13.707V7.57152H50.7439V14.1775C50.7439 16.7368 52.1408 18.9993 55.2055 18.9993H55.2245C58.2701 18.9993 59.6647 16.6865 59.6647 14.1775V7.57152H57.214ZM32.5398 7.57152L30.0954 15.1003L27.6511 7.57152H25.0516L28.9522 18.6863H31.2421L35.1421 7.57152H32.5398ZM25.0632 12.8149C25.0632 11.2019 24.6175 9.87983 23.7441 8.82632C22.8707 7.77281 21.7471 7.25782 20.3693 7.25782C18.9534 7.25782 17.7497 7.81856 16.7604 8.91586C15.7896 10.0145 15.3059 11.4032 15.3059 13.1286C15.3059 14.8539 15.7907 16.2662 16.7414 17.3635C17.7122 18.4621 18.8762 18.9993 20.2534 18.9993C22.3692 18.9993 23.8623 17.9236 24.7726 15.7499L22.9497 14.5396C22.3496 15.9061 21.475 16.5786 20.2921 16.5786C18.8375 16.5786 17.8091 15.5029 17.6534 13.8004H25.0626V12.8142L25.0632 12.8149ZM20.2903 9.40863C21.6676 9.40863 22.5802 10.3046 22.8125 11.7392H17.6523C18.0218 10.417 19.0295 9.40863 20.2909 9.40863H20.2903ZM15.3053 18.6856L12.0256 12.0535C14.1004 11.1797 15.1289 9.65632 15.1289 7.43755C15.1312 4.726 13.2674 3 10.2996 3H4.5V18.6856H7.06081V12.3221H9.23421L12.3761 18.6863L15.3053 18.6856ZM10.2996 5.59913C11.8129 5.59913 12.5698 6.29385 12.5698 7.6604C12.5698 9.02696 11.8123 9.72167 10.2996 9.72167H7.06081V5.59913H10.2996ZM63.8086 18.9993C62.2353 18.9993 60.9595 17.525 60.9595 15.7055V4.5685H63.4039V7.57544H65.5V9.86088H63.4039V15.5238C63.4039 16.0571 63.778 16.4891 64.2404 16.4891H65.5V18.9993H63.8086Z" fill="#F5F5F5"/>
</svg>
