<svg width="81" height="40" viewBox="0 0 81 40" fill="none" xmlns="http://www.w3.org/2000/svg">
<mask id="mask0_6542_125153" style="mask-type:luminance" maskUnits="userSpaceOnUse" x="4" y="13" width="74" height="19">
<path d="M4.02734 13.1357H77.3609V31.3457H4.02734V13.1357Z" fill="white"/>
</mask>
<g mask="url(#mask0_6542_125153)">
<path fill-rule="evenodd" clip-rule="evenodd" d="M11.9936 18.5577L15.0919 15.4287L15.978 16.3238L12.8797 19.4528L11.9936 18.5577ZM10.7382 21.7553C10.1319 21.7553 9.64062 21.2573 9.64062 20.6424C9.64062 20.0282 10.1318 19.5295 10.7382 19.5295C11.3446 19.5295 11.8357 20.0281 11.8357 20.6424C11.8357 21.2574 11.3446 21.7553 10.7382 21.7553ZM15.9931 24.9872L15.107 25.8828L12.0087 22.7538L12.8948 21.8581L15.9931 24.9872Z" fill="#F5F5F5"/>
<path fill-rule="evenodd" clip-rule="evenodd" d="M72.5694 29.2447C72.2845 29.8944 71.8761 30.4078 71.3441 30.7825C70.8117 31.1579 70.2232 31.3453 69.5802 31.3453C68.6759 31.3453 67.8591 31.0138 67.1291 30.3513L68.0764 28.6445C68.5096 29.0573 68.9586 29.2638 69.4229 29.2638C69.8871 29.2638 70.2645 29.094 70.5557 28.7568C70.8462 28.4196 70.9923 28.0504 70.9923 27.6509C70.9923 27.4756 69.661 24.0563 66.9996 17.3924H69.2278L72.1803 24.7435L75.1335 17.3924H77.3609L72.5694 29.2447ZM64.9077 15.0104C64.4621 15.0104 64.1152 15.1508 63.8688 15.4321C63.6206 15.7136 63.4971 16.0921 63.4971 16.5664V17.3923H66.0971V19.0801H63.4963V27.3695H61.4164V19.0802H60.1726V17.3925H61.4164V16.6232C61.4164 15.5732 61.7296 14.7386 62.3544 14.1199C62.9791 13.5007 63.7344 13.1912 64.6192 13.1912C65.5043 13.1912 66.3115 13.5228 67.0426 14.1853L66.188 15.6666C65.7803 15.2295 65.3525 15.0104 64.9077 15.0104ZM56.9417 15.7974C56.5827 15.7974 56.2732 15.6659 56.0128 15.4036C55.7531 15.1413 55.6229 14.8288 55.6229 14.4661C55.6229 14.1034 55.7531 13.7909 56.0128 13.5286C56.2725 13.2656 56.5827 13.1348 56.9417 13.1348C57.3002 13.1348 57.6104 13.2656 57.8701 13.5286C58.1298 13.7909 58.26 14.1034 58.26 14.4661C58.26 14.8288 58.1298 15.1413 57.8701 15.4036C57.6104 15.6659 57.3002 15.7974 56.9417 15.7974ZM51.5452 27.3696L48.6119 22.9995L47.1074 24.5373V27.3696H45.0273V13.4536H47.1074V21.6305L51.1189 17.3925H53.7925L50.0414 21.3491L54.0711 27.3696H51.5452ZM40.0066 25.6063C40.4965 25.6063 40.972 25.4824 41.433 25.2417L42.7607 26.5832C41.8286 27.2063 40.8028 27.5195 39.6813 27.5195C38.3063 27.5195 37.1245 27.0475 36.1345 26.1036C35.1439 25.1597 34.6489 23.9248 34.6489 22.3998C34.6489 20.8747 35.1659 19.6336 36.1993 18.6768C37.2327 17.72 38.4931 17.2419 39.9781 17.2419C40.9849 17.2419 41.8857 17.4814 42.6827 17.9578L41.1957 19.4587C40.7788 19.2828 40.3605 19.1925 39.9403 19.1925C39.0736 19.1925 38.322 19.4834 37.6842 20.0646C37.0465 20.6459 36.7282 21.396 36.7282 22.3151C36.7282 23.2336 37.044 24.0124 37.6749 24.6502C38.3063 25.2872 39.0831 25.607 40.0058 25.607L40.0066 25.6063ZM27.7767 27.5195C26.2911 27.5195 25.0535 27.0222 24.0627 26.0288C23.0721 25.0347 22.5771 23.8189 22.5771 22.3808C22.5771 20.9433 23.0721 19.7269 24.0627 18.7334C25.0535 17.7393 26.2911 17.2419 27.7767 17.2419C29.2623 17.2419 30.5 17.7393 31.4908 18.7334C32.4814 19.7268 32.9764 20.9433 32.9764 22.3808C32.9764 23.8189 32.4814 25.0347 31.4908 26.0288C30.5 27.0222 29.2623 27.5195 27.7767 27.5195ZM30.0146 20.0272C29.4264 19.4206 28.6806 19.1167 27.7767 19.1167C26.8729 19.1167 26.127 19.4197 25.5395 20.0272C24.9508 20.6339 24.6571 21.4184 24.6571 22.3806C24.6571 23.3436 24.9508 24.1281 25.5395 24.734C26.1277 25.3407 26.8729 25.6445 27.7767 25.6445C28.6806 25.6445 29.4265 25.3415 30.0146 24.734C30.6028 24.1281 30.8964 23.3436 30.8964 22.3806C30.8964 21.4184 30.6021 20.6339 30.0146 20.0272ZM18.335 13.4536H20.4151V27.3695H18.335V13.4536ZM10.7706 25.4552C11.3952 25.4552 11.9901 25.3294 12.5354 25.1058L14.0479 26.6347C13.0462 27.2004 11.9175 27.497 10.7698 27.4961C7.04624 27.496 4.02734 24.4471 4.02734 20.6866C4.02734 16.9255 7.04624 13.8767 10.7698 13.8767C11.9061 13.8753 13.0241 14.1655 14.019 14.7202L12.5309 16.2237C11.9863 16.0015 11.3931 15.8765 10.7698 15.8765C8.16214 15.8765 6.04898 18.021 6.04898 20.6667C6.04898 23.3116 8.1629 25.456 10.7698 25.456L10.7706 25.4552ZM57.964 27.3697H55.8839V17.3925H57.964V27.3697Z" fill="#F5F5F5"/>
</g>
</svg>
