<svg width="97" height="32" viewBox="0 0 97 32" fill="none" xmlns="http://www.w3.org/2000/svg">
<path fill-rule="evenodd" clip-rule="evenodd" d="M13.5566 10.7422H9.39856V14.9351H5.22656V19.1281V23.321H9.38456H13.5426H17.7006V19.1281V14.9351V10.7422H13.5566ZM13.5566 14.9351V17.1092V19.1281H11.4006H9.39856V16.954V14.9351H13.5566Z" fill="#F5F5F5"/>
<path fill-rule="evenodd" clip-rule="evenodd" d="M5.22656 10.7418H9.38456V6.54883H5.22656V10.7418Z" fill="#F5F5F5"/>
<path fill-rule="evenodd" clip-rule="evenodd" d="M33.3796 16.7422V16.6998C34.5556 16.2763 35.0456 15.401 35.0456 14.0175C35.0456 11.7587 33.7576 10.7422 30.9296 10.7422H26.0156V23.321H31.3216C34.1636 23.321 35.4516 22.234 35.4516 19.8057C35.4516 18.154 34.8496 17.1798 33.3796 16.7422ZM28.2696 12.7045H30.7476C32.2736 12.7045 32.8336 13.1281 32.8336 14.314C32.8336 15.514 32.2596 15.9375 30.6636 15.9375H28.2556V12.7045H28.2696ZM30.9576 21.3587H28.2556V17.8998H30.7336C32.5676 17.8998 33.2116 18.3657 33.2116 19.6363C33.2256 20.8787 32.6096 21.3587 30.9576 21.3587Z" fill="#F5F5F5"/>
<path d="M39.7214 10.7422H37.4814V23.321H39.7214V10.7422Z" fill="#F5F5F5"/>
<path fill-rule="evenodd" clip-rule="evenodd" d="M41.0938 12.761H44.5938V23.321H46.8338V12.761H50.3337V10.7422H41.0938V12.761Z" fill="#F5F5F5"/>
<path fill-rule="evenodd" clip-rule="evenodd" d="M51.7197 23.321H53.9457V17.9563H59.0137V15.9798H53.9457V12.7187H59.9377V10.7422H51.7197V23.321Z" fill="#F5F5F5"/>
<path fill-rule="evenodd" clip-rule="evenodd" d="M68.2812 19.0857C68.2812 20.8928 67.6372 21.5704 65.9012 21.5704C64.1513 21.5704 63.5213 20.9069 63.5213 19.0857V10.7422H61.2812V19.1422C61.2812 22.2198 62.6532 23.5469 65.8732 23.5469C69.1072 23.5469 70.4652 22.2198 70.4652 19.1422V10.7422H68.2952V19.0857H68.2812Z" fill="#F5F5F5"/>
<path fill-rule="evenodd" clip-rule="evenodd" d="M81.5395 14.6104C81.5395 11.8716 80.3494 10.7422 77.3954 10.7422H72.4395V23.321H74.6795V18.4504H76.7375L79.4534 23.321H82.0154L79.1595 18.2669C80.8255 17.8434 81.5395 16.6998 81.5395 14.6104ZM77.1854 16.5022H74.6934V12.7328H77.1854C78.7674 12.7328 79.3134 13.2551 79.3134 14.6245C79.3134 15.9516 78.7534 16.5022 77.1854 16.5022Z" fill="#F5F5F5"/>
<path fill-rule="evenodd" clip-rule="evenodd" d="M89.814 10.7422L86.972 15.7398L84.116 10.7422H81.54L85.768 18.0128V23.321H88.008V17.9704L92.222 10.7422H89.814Z" fill="#F5F5F5"/>
</svg>
