<svg width="29" height="34" viewBox="0 0 29 34" fill="none" xmlns="http://www.w3.org/2000/svg">
<g id="Group 58">
<g id="Group">
<g id="Group_2">
<path id="Vector" d="M27.172 28.538L27.0923 28.53C27.1002 28.1234 27.1082 27.6928 27.1082 27.1826C27.1082 15.1274 20.7298 11.2366 16.4802 9.64197H11.9276C7.973 11.2366 1.5946 14.3301 1.5946 27.1826C1.5946 27.6849 1.60256 28.1314 1.61054 28.53L1.53083 28.546C0.653797 28.6815 0 29.4389 0 30.3319C0 31.2647 0.709588 32.0381 1.63446 32.1258L5.13462 32.3172C7.45476 33.0826 10.7237 33.5689 14.3514 33.5689C17.9791 33.5689 21.248 33.0906 23.5682 32.3172L27.0684 32.1258C27.9932 32.0381 28.7028 31.2568 28.7028 30.3319C28.7028 29.431 28.049 28.6735 27.172 28.538ZM13.7773 19.4169L15.8503 20.4853C16.9745 21.0673 17.5805 22.2553 17.3732 23.523C17.2057 24.5674 16.5201 25.3807 15.5793 25.7235V26.1859C15.5793 26.7361 15.1328 27.1826 14.5826 27.1826C14.0325 27.1826 13.586 26.7361 13.586 26.1859V25.7873C12.5814 25.5162 11.7283 24.8066 11.2898 23.81C11.0665 23.3077 11.2977 22.7177 11.808 22.4944C12.3103 22.2792 12.9003 22.5104 13.1156 23.0127C13.3707 23.6107 13.9767 23.9695 14.6225 23.9057L14.7182 23.8977C15.2444 23.818 15.364 23.3874 15.3959 23.212C15.4437 22.8931 15.348 22.4785 14.9255 22.2632L12.8525 21.1948C11.7123 20.6048 11.1064 19.3611 11.3456 18.1013C11.5688 16.9213 12.4299 16.0682 13.57 15.845V15.4224C13.57 14.8723 14.0165 14.4258 14.5667 14.4258C15.1168 14.4258 15.5633 14.8723 15.5633 15.4224V16.0682C16.3765 16.411 17.0383 17.0409 17.4051 17.8781C17.6283 18.3804 17.3971 18.9704 16.8868 19.1857C16.3845 19.4089 15.7945 19.1697 15.5793 18.6674C15.3241 18.0774 14.7182 17.7106 14.0723 17.7744C13.4744 17.8382 13.3388 18.3246 13.3069 18.4681C13.283 18.6116 13.2352 19.1378 13.7773 19.4169Z" fill="#96B0BD"/>
<path id="Vector_2" d="M17.7399 1.05598C17.0463 0.617462 15.8663 1.048 14.8696 1.99679C14.3833 2.45923 13.6418 2.45923 13.1634 1.99679C12.1668 1.048 10.9948 0.633408 10.2931 1.05598C7.973 2.45923 11.0984 7.35465 11.3854 7.6337H16.6476C16.9347 7.35465 19.9325 2.45923 17.7399 1.05598Z" fill="#96B0BD"/>
</g>
</g>
</g>
</svg>
