<svg width="41" height="42" viewBox="0 0 41 42" fill="none" xmlns="http://www.w3.org/2000/svg">
<g id="Group">
<path id="Path" d="M25.6274 29.455H32.4615C34.3486 29.455 35.8785 27.9252 35.8785 26.038V13.1459C35.8785 11.7865 35.3384 10.4828 34.3772 9.52158L31.8929 7.03724C30.9317 6.07602 29.628 5.53601 28.2686 5.53601H18.72C16.8328 5.53601 15.303 7.06585 15.303 8.95301V12.37" stroke="#96B0BD" strokeWidth="2.56275" stroke-linecap="round" stroke-linejoin="round"/>
<path id="Path_2" fill-rule="evenodd" clip-rule="evenodd" d="M24.1263 16.3556L21.6419 13.8712C20.6807 12.91 19.377 12.37 18.0176 12.37H8.54249C6.65533 12.37 5.12549 13.8998 5.12549 15.787V32.872C5.12549 34.7592 6.65533 36.289 8.54249 36.289H22.2105C24.0977 36.289 25.6275 34.7592 25.6275 32.872V19.9798C25.6275 18.6205 25.0875 17.3168 24.1263 16.3556Z" stroke="#96B0BD" strokeWidth="2.56275" stroke-linecap="round" stroke-linejoin="round"/>
</g>
</svg>
