<svg width="41" height="42" viewBox="0 0 41 42" fill="none" xmlns="http://www.w3.org/2000/svg">
<g id="Group">
<g id="Group_2">
<path id="Path" fill-rule="evenodd" clip-rule="evenodd" d="M34.17 34.7905V10.4922C34.17 8.81443 32.81 7.45447 31.1323 7.45447H9.8717C8.19395 7.45447 6.83398 8.81443 6.83398 10.4922V28.7168C6.83398 30.3945 8.19395 31.7545 9.8717 31.7545H28.4756L34.17 34.7905Z" stroke="#96B0BD" strokeWidth="2.27794" strokeLinecap="round" strokeLinejoin="round"/>
<path id="Path_2" d="M20.4985 25.8908C20.3345 25.8908 20.2013 26.0241 20.203 26.1881C20.203 26.3521 20.3362 26.4854 20.5002 26.4854C20.6643 26.4854 20.7975 26.3521 20.7975 26.1881C20.7992 26.0241 20.666 25.8908 20.4985 25.8908" stroke="#96B0BD" strokeWidth="2.56275" strokeLinecap="round" strokeLinejoin="round"/>
<path id="Path_3" d="M20.5003 21.2522V20.8422C20.5003 19.4976 21.3306 18.7698 22.1644 18.2111C22.9776 17.6644 23.7926 16.9502 23.7926 15.633C23.7926 13.8151 22.3198 12.3424 20.502 12.3424C18.6842 12.3424 17.2097 13.8117 17.2097 15.6296" stroke="#96B0BD" strokeWidth="2.56275" strokeLinecap="round" strokeLinejoin="round"/>
</g>
</g>
</svg>
