<svg width="41" height="42" viewBox="0 0 41 42" fill="none" xmlns="http://www.w3.org/2000/svg">
<g id="Group">
<g id="Group_2">
<path id="Path" fill-rule="evenodd" clip-rule="evenodd" d="M31.4603 11.6324L26.6287 6.80074C25.988 6.16005 25.1184 5.79956 24.2128 5.79956H11.9595C10.0716 5.79956 8.54248 7.32867 8.54248 9.21656V33.1356C8.54248 35.0235 10.0716 36.5526 11.9595 36.5526H29.0445C30.9324 36.5526 32.4615 35.0235 32.4615 33.1356V14.0482C32.4615 13.1427 32.101 12.2731 31.4603 11.6324V11.6324Z" stroke="#96B0BD" stroke-width="2.56275" stroke-linecap="round" stroke-linejoin="round"/>
<path id="Path_2" d="M32.4614 14.3421H25.6274C24.6844 14.3421 23.9189 13.5767 23.9189 12.6336V5.79956" stroke="#96B0BD" stroke-width="2.56275" stroke-linecap="round" stroke-linejoin="round"/>
<path id="Path_3" d="M27.3361 19.6726H19.2207" stroke="#96B0BD" stroke-width="2.56275" stroke-linecap="round" stroke-linejoin="round"/>
<path id="Path_4" d="M27.3361 24.593H19.2207" stroke="#96B0BD" stroke-width="2.56275" stroke-linecap="round" stroke-linejoin="round"/>
<path id="Path_5" d="M27.3361 29.5136H19.2207" stroke="#96B0BD" stroke-width="2.56275" stroke-linecap="round" stroke-linejoin="round"/>
<path id="Path_6" d="M13.8816 19.4676C13.7637 19.4676 13.668 19.5633 13.668 19.6812C13.668 19.799 13.7637 19.8947 13.8816 19.8947C13.9995 19.8947 14.0952 19.799 14.0952 19.6812C14.0952 19.5633 13.9995 19.4676 13.8816 19.4676" stroke="#96B0BD" stroke-width="2.56275" stroke-linecap="round" stroke-linejoin="round"/>
<path id="Path_7" d="M13.8816 24.3795C13.7637 24.3795 13.668 24.4751 13.668 24.593C13.668 24.7109 13.7637 24.8066 13.8816 24.8066C13.9995 24.8066 14.0952 24.7109 14.0952 24.593C14.0952 24.4751 13.9995 24.3795 13.8816 24.3795" stroke="#96B0BD" stroke-width="2.56275" stroke-linecap="round" stroke-linejoin="round"/>
<path id="Path_8" d="M13.8816 29.2914C13.7637 29.2914 13.668 29.3871 13.668 29.505C13.668 29.6229 13.7637 29.7186 13.8816 29.7186C13.9995 29.7186 14.0952 29.6229 14.0952 29.505C14.0952 29.3871 13.9995 29.2914 13.8816 29.2914" stroke="#96B0BD" stroke-width="2.56275" stroke-linecap="round" stroke-linejoin="round"/>
</g>
</g>
</svg>
