<svg width="34" height="34" viewBox="0 0 34 34" fill="none" xmlns="http://www.w3.org/2000/svg">
<path id="Vector" d="M7.36501 6.51355H15.7822V8.61783H7.36501V6.51355ZM7.36501 24.4H11.5736V22.2957H7.36501V24.4ZM7.36501 13.8786H16.8343V12.8264V11.7743H7.36501V13.8786ZM7.36501 19.1393H12.6257V17.035H7.36501V19.1393ZM16.8343 30.7129V31.765V32.8171H3.15643C1.42039 32.8171 0 31.3967 0 29.6607V6.51355C0 4.77751 1.42039 3.35712 3.15643 3.35712V2.30497C3.15643 1.14761 4.10336 0.200684 5.26072 0.200684H19.1175C19.6751 0.200684 20.2117 0.421638 20.601 0.821453L27.7871 8.0076C28.1869 8.40741 28.4079 8.93348 28.4079 9.49112V12.8264H26.3036V10.7221H21.0429C19.3068 10.7221 17.8865 9.30173 17.8865 7.56569V2.30497H5.26072V27.5564H13.6779V29.6607H5.26072C4.10336 29.6607 3.15643 28.7138 3.15643 27.5564V5.4614C2.57775 5.4614 2.10429 5.93487 2.10429 6.51355V29.6607C2.10429 30.2394 2.57775 30.7129 3.15643 30.7129H16.8343ZM19.9907 3.17825V7.56569C19.9907 8.14437 20.4642 8.61783 21.0429 8.61783H25.4303L19.9907 3.17825ZM18.9386 22.2957C18.9386 20.5597 20.359 19.1393 22.095 19.1393C22.6737 19.1393 23.1472 18.6658 23.1472 18.0871C23.1472 17.5084 22.6737 17.035 22.095 17.035C19.1911 17.035 16.8343 19.3918 16.8343 22.2957C16.8343 22.8744 17.3078 23.3478 17.8865 23.3478C18.4651 23.3478 18.9386 22.8744 18.9386 22.2957ZM33.353 32.0701C33.7633 32.4805 33.7633 33.1433 33.353 33.5536C33.1425 33.7641 32.8795 33.8588 32.6059 33.8588C32.3324 33.8588 32.0693 33.7535 31.8589 33.5536L27.2295 28.9242C25.7986 30.029 24.0204 30.7023 22.074 30.7023C17.434 30.7023 13.6568 26.9251 13.6568 22.2852C13.6568 17.6452 17.434 13.868 22.074 13.868C26.7139 13.868 30.4911 17.6452 30.4911 22.2852C30.4911 24.2317 29.8283 26.0098 28.713 27.4407L33.353 32.0701ZM28.4079 22.2957C28.4079 18.8131 25.5776 15.9828 22.095 15.9828C18.6124 15.9828 15.7822 18.8131 15.7822 22.2957C15.7822 25.7783 18.6124 28.6086 22.095 28.6086C25.5776 28.6086 28.4079 25.7783 28.4079 22.2957Z" fill="#96B0BD"/>
</svg>
