<svg width="37" height="34" viewBox="0 0 37 34" fill="none" xmlns="http://www.w3.org/2000/svg">
<g id="Group 35778">
<path id="Vector" d="M18.3931 21.9186C19.6975 21.9186 20.9484 21.4004 21.8707 20.4781C22.793 19.5558 23.3111 18.3049 23.3111 17.0005C23.3111 15.6962 22.793 14.4453 21.8707 13.523C20.9484 12.6007 19.6975 12.0825 18.3931 12.0825C17.0888 12.0825 15.8379 12.6007 14.9156 13.523C13.9932 14.4453 13.4751 15.6962 13.4751 17.0005C13.4751 18.3049 13.9932 19.5558 14.9156 20.4781C15.8379 21.4004 17.0888 21.9186 18.3931 21.9186Z" stroke="#96B0BD" strokeWidth="2.45901" strokeMiterlimit="10" strokeLinecap="round" strokeLinejoin="round"/>
<path id="Vector_2" d="M2 18.4428V15.5576C2 13.8527 3.39344 12.4428 5.11475 12.4428C8.08195 12.4428 9.29507 10.3445 7.80327 7.7707C6.95081 6.29529 7.459 4.37726 8.9508 3.52481L11.7869 1.90186C13.0819 1.13137 14.7541 1.59038 15.5246 2.88546L15.7049 3.19694C17.1803 5.7707 19.6065 5.7707 21.0983 3.19694L21.2786 2.88546C22.0491 1.59038 23.7213 1.13137 25.0163 1.90186L27.8524 3.52481C29.3442 4.37726 29.8524 6.29529 28.9999 7.7707C27.5081 10.3445 28.7213 12.4428 31.6885 12.4428C33.3934 12.4428 34.8032 13.8363 34.8032 15.5576V18.4428C34.8032 20.1477 33.4098 21.5576 31.6885 21.5576C28.7213 21.5576 27.5081 23.6559 28.9999 26.2297C29.8524 27.7215 29.3442 29.6231 27.8524 30.4756L25.0163 32.0985C23.7213 32.869 22.0491 32.41 21.2786 31.1149L21.0983 30.8034C19.6229 28.2297 17.1967 28.2297 15.7049 30.8034L15.5246 31.1149C14.7541 32.41 13.0819 32.869 11.7869 32.0985L8.9508 30.4756C8.23622 30.0641 7.71406 29.386 7.49892 28.59C7.28378 27.7939 7.39323 26.9451 7.80327 26.2297C9.29507 23.6559 8.08195 21.5576 5.11475 21.5576C3.39344 21.5576 2 20.1477 2 18.4428Z" stroke="#96B0BD" strokeWidth="2.45901" strokeMiterlimit="10" strokeLinecap="round" strokeLinejoin="round"/>
</g>
</svg>
