<svg width="33" height="36" viewBox="0 0 33 36" fill="none" xmlns="http://www.w3.org/2000/svg">
<path id="Vector" fill-rule="evenodd" clip-rule="evenodd" d="M26.7083 6.21218C37.6948 15.0709 32.9629 32.5631 19.4269 35.0965L17.1124 19.1172L26.7083 6.21218ZM15.3291 0.24089C19.0889 -0.161487 22.9936 0.726963 26.3317 3.01247L17.4826 14.9068L15.3291 0.24089ZM0.360632 22.391C-0.58576 17.9423 0.31557 13.1234 3.24166 9.18655C5.804 5.7422 9.46081 3.59189 13.3719 2.85796L15.6735 18.5185L0.360632 22.391ZM18.1361 35.2864C14.1799 35.7081 10.0595 34.7005 6.61198 32.1382C3.65691 29.9396 1.65147 26.933 0.679322 23.6528L15.8634 19.8125L18.1361 35.2864Z" fill="#96B0BD"/>
</svg>
