<svg width="185" height="41" viewBox="0 0 185 41" fill="none" xmlns="http://www.w3.org/2000/svg">
<g id="Frame" clip-path="url(#clip0_18_55)">
<g id="Vector">
<path d="M165.378 32.1053H172.015C172.272 32.9253 173.148 33.7453 174.789 33.7453C177.011 33.7453 177.776 32.3931 177.777 30.3935L177.777 28.9693H177.63C176.533 30.2209 175.076 31.1415 172.928 31.1415C168.697 31.1415 165.018 28.0775 165.018 22.086C165.019 16.598 168.044 12.3184 172.606 12.3184C175.233 12.3184 176.837 13.3541 177.896 14.994H178.006L178.007 12.8938H184.57L184.568 29.5016C184.568 32.5657 183.471 34.9536 181.83 36.385C180.116 37.8811 177.673 38.4852 174.899 38.4852C169.682 38.4852 166.04 36.3778 165.378 32.1053ZM178.072 21.7623C178.072 19.3743 176.91 17.4467 174.901 17.4467C172.966 17.4467 171.729 19.1586 171.729 21.7623C171.729 24.3301 172.972 26.1786 174.9 26.1786C176.901 26.1858 178.072 24.2941 178.072 21.7623ZM157.69 16.1664H157.801C159.221 13.4908 161.083 12.4982 163.452 12.4982C163.997 12.4982 164.365 12.5701 164.585 12.678L164.585 18.5616H164.438C160.391 17.8495 158.021 19.7412 158.021 24.0496L158.02 32.0694H151.125L151.127 12.8938H157.691L157.69 16.1664ZM0.867615 5.19043H14.3624C16.9157 5.19043 18.8803 5.79461 20.2708 6.90228C21.838 8.14661 22.6766 10.0023 22.6764 12.2105C22.6761 14.7782 21.6164 16.3822 19.4309 17.382L19.4309 17.4899C22.2784 18.4177 23.919 20.9136 23.9187 23.9417C23.9184 26.8259 22.785 29.0772 20.9306 30.4295C19.3632 31.5371 17.3249 32.0694 14.6245 32.0694H0.86477L0.867615 5.19043ZM13.7053 26.1139C15.3462 26.1139 16.5457 25.15 16.5459 23.3663C16.5461 21.5106 15.2364 20.6187 13.6691 20.6187H8.34185L8.34127 26.1067H13.7053L13.7053 26.1139ZM13.0074 15.7061C14.4643 15.7061 15.524 14.9221 15.5242 13.3541C15.5243 11.8221 14.428 11.074 12.9711 11.074H8.34286L8.34237 15.7061H13.0074Z" fill="#E8E4D8"/>
<path d="M25.1568 5.19043H32.228L32.2251 32.0694H25.1539L25.1568 5.19043ZM33.58 22.5103C33.5807 16.4541 37.5913 12.3543 43.7942 12.3543C49.9971 12.3543 53.9333 16.4541 53.9326 22.5103C53.932 28.6097 49.9949 32.6664 43.792 32.6664C37.5891 32.6736 33.5794 28.6097 33.58 22.5103ZM46.9277 22.5103C46.928 19.1586 45.8319 17.0583 43.7201 17.0583C41.6083 17.0583 40.5853 19.1586 40.585 22.5103C40.5846 25.8981 41.6072 27.9983 43.7189 27.9983C45.8307 28.0055 46.9273 25.8981 46.9277 22.5103ZM54.7347 22.5103C54.7353 16.4541 58.7459 12.3543 64.9488 12.3543C71.1517 12.3543 75.0879 16.4541 75.0872 22.5103C75.0866 28.6097 71.1496 32.6664 64.9467 32.6664C58.7438 32.6736 54.734 28.6097 54.7347 22.5103ZM68.0823 22.5103C68.0827 19.1586 66.9865 17.0583 64.8747 17.0583C62.763 17.0583 61.74 19.1586 61.7396 22.5103C61.7392 25.8981 62.7618 27.9983 64.8736 27.9983C66.9854 28.0055 68.0819 25.8981 68.0823 22.5103ZM76.4348 12.8938H82.9983L82.998 15.778H83.1083C84.4183 13.5339 86.2065 12.3183 89.0173 12.3183C91.497 12.3183 93.3585 13.5267 94.3074 15.6342H94.4178C96.0221 13.1023 98.1046 12.3183 100.511 12.3183C105.073 12.3183 107.037 15.5982 107.037 20.0145L107.035 32.0622H100.141L100.142 21.23C100.142 19.2665 99.5241 17.9862 97.7729 17.9862C96.0584 17.9862 95.1826 19.5542 95.1824 21.6256L95.1813 32.0694H88.2794L88.2805 21.23C88.2807 19.2665 87.6628 17.9862 85.9116 17.9862C84.1971 17.9862 83.3213 19.5542 83.3211 21.6256L83.32 32.0694H76.4328L76.4348 12.8938ZM115.453 29.5735H115.38L115.379 32.0694H108.816L108.819 5.19043H115.713L115.712 14.8861H115.823C117.133 13.2102 118.884 12.3183 121.4 12.3183C126.323 12.3183 129.17 16.6699 129.17 22.4384C129.169 28.9622 126.071 32.7023 120.964 32.7023C118.845 32.7095 116.66 31.7097 115.453 29.5735ZM122.165 22.3737C122.165 19.2736 121.003 17.2741 118.92 17.2741C116.808 17.2741 115.454 19.2736 115.454 22.3737C115.454 25.4378 116.8 27.4733 118.919 27.4733C121.031 27.4661 122.164 25.4737 122.165 22.3737ZM130.045 22.4456C130.046 16.4541 134.093 12.2896 139.965 12.2896C142.879 12.2896 145.145 13.1815 146.859 14.7854C149.118 16.9216 150.14 20.2734 150.066 24.2294H136.903C137.197 26.6173 138.359 27.8329 140.442 27.8329C141.648 27.8329 142.701 27.3006 143.142 26.0132H149.779C148.616 30.3935 145.15 32.6088 140.228 32.6088C134.128 32.6016 130.045 28.5737 130.045 22.4456ZM136.903 20.4461H143.172C143.062 18.13 141.753 16.9145 140.112 16.9145C138.213 16.9145 137.154 18.2379 136.903 20.4461Z" fill="#E8E4D8"/>
</g>
</g>
<defs>
<clipPath id="clip0_18_55">
<rect width="183.696" height="40" fill="white" transform="matrix(1 0 -0.000105832 1 0.868134 0.19043)"/>
</clipPath>
</defs>
</svg>
