<svg width="280" height="40" viewBox="0 0 280 40" fill="none" xmlns="http://www.w3.org/2000/svg">
<path fill-rule="evenodd" clip-rule="evenodd" d="M5.2432 14.7083C5.79566 13.2417 6.5552 12.091 7.52182 11.2448C7.64839 11.1884 7.78647 11.1659 7.92455 11.1433C8.06263 11.132 8.39631 11.1207 8.93711 11.1207C9.23628 11.1207 9.48941 11.1433 9.71954 11.1771C9.94966 11.2223 10.1798 11.3012 10.4214 11.4141C10.663 11.5382 10.9507 11.6961 11.2728 11.9105L7.16471 15.1145L8.13117 15.8703L8.13004 26.5428C7.08301 26.0464 6.20862 25.2454 5.6334 24.2526C4.8281 22.8875 4.42558 21.0486 4.42582 18.7584C4.41444 17.5175 4.69074 16.1637 5.2432 14.7083ZM4.86392 10.6131C5.10556 10.6131 5.41622 10.6582 5.79592 10.7372C6.17562 10.8161 6.52081 10.8951 6.84297 10.9741C4.58763 11.9556 2.83849 13.5689 1.60708 15.8365C0.536774 17.8333 -0.0157651 20.0558 -0.00449878 22.3234C-0.00480562 25.2228 1.019 27.7048 3.07841 29.7694C5.13783 31.8339 7.6461 32.8718 10.5917 32.8718C13.4338 32.8718 15.8502 31.8001 17.8065 29.6678C19.7628 27.5356 20.7527 25.0198 20.753 22.1204C20.4882 22.7296 20.1775 23.2373 19.8438 23.6434C19.418 24.1398 18.9347 24.6023 18.4169 25.0085C18.0141 25.3469 17.6459 25.6064 17.3237 25.7756C17.0015 25.9449 16.5872 26.1367 16.0694 26.351L16.0709 12.1135C16.7153 11.8541 17.2331 11.5833 17.6244 11.3012C18.0156 11.0305 18.4414 10.6243 18.9017 10.0941C20.087 8.808 20.743 7.36394 20.8813 5.78451C20.0182 6.33731 19.2473 6.74345 18.5568 7.01421C17.8664 7.27369 17.0955 7.4542 16.244 7.53317C16.1059 7.53317 15.9218 7.54445 15.6802 7.56701C14.7367 7.56701 13.3329 7.206 11.469 6.48397C9.60505 5.76195 8.13227 5.40093 7.05068 5.40093C4.92201 5.40093 3.21896 6.38244 1.93005 8.32289C0.77923 10.0603 0.192188 12.1248 0.191934 14.5278C0.3531 13.7945 0.74439 13.095 1.3658 12.4294C1.82611 11.933 2.35545 11.5043 2.9423 11.1659C3.51766 10.8049 4.16204 10.6131 4.86392 10.6131ZM24.4914 32.6687L28.0012 28.833L26.2295 27.0166L26.2305 16.739L27.2432 16.0734L30.062 18.1718L30.0606 31.7324C30.0605 32.4995 30.0144 33.1539 29.9223 33.6954C29.8417 34.2031 29.623 34.6882 29.3008 35.0943L28.3111 36.3015C27.8623 36.843 27.31 37.2717 26.6426 37.5876C27.9888 37.4522 29.0935 37.1589 29.945 36.6963C30.808 36.2338 31.6941 35.5004 32.6032 34.5077C33.2706 33.7631 33.777 33.0298 34.1107 32.2965C34.456 31.5406 34.6747 30.7396 34.7784 29.9273L34.78 14.7309L33.5718 14.8099L29.7865 12.3166L27.0477 14.5278L26.1618 14.054L26.1626 6.54038L25.3573 4.83685L21.767 8.27776L21.7649 27.7612L20.6717 29.0248L24.4914 32.6687ZM36.5045 28.3591L42.9936 32.3867L49.1617 26.0238L45.8131 28.3591L41.7056 25.471L41.7059 22.786L49.0475 17.4046L44.3766 11.2336L36.92 16.3329L36.9188 27.4792L36.5045 28.3591ZM58.081 8.48083L58.0802 15.8703C57.5394 15.9267 57.1021 16.017 56.7684 16.1524C56.4347 16.2878 56.078 16.5134 55.6983 16.8293C54.6166 17.6528 54.0872 18.702 54.087 19.9881C54.0755 20.3943 54.133 20.7891 54.248 21.1727C54.6278 20.8568 54.996 20.6425 55.3527 20.5409C55.7209 20.4394 56.1697 20.383 56.7105 20.383C56.9751 20.383 57.1937 20.4168 57.3548 20.462C57.5159 20.5184 57.7575 20.6199 58.0797 20.7779L58.0789 28.0433L63.6474 33.5374L68.7682 28.4381L74.9351 33.5374L83.9225 24.9972L83.924 10.3762L78.3554 6.19065L74.2472 9.82335L68.644 6.19065L63.6498 10.2972L63.6501 7.89418C63.6502 7.10446 63.075 6.21321 61.9129 5.20914C61.5678 4.97223 61.2341 4.72403 60.9235 4.47583C60.6128 4.22764 60.4288 3.86662 60.3828 3.40407C60.3368 3.03178 60.3138 2.65948 60.3023 2.27591C60.3024 1.38465 60.6132 0.662626 61.2346 0.143669C61.0045 0.0985423 60.7743 0.0759789 60.5442 0.0646973C59.336 0.0646973 58.2659 0.561091 57.3453 1.5426C56.4132 2.53538 55.9528 3.62971 55.9527 4.84813C55.9527 5.02864 55.9756 5.28811 56.0331 5.604C56.2631 6.89011 56.9419 7.84906 58.081 8.48083ZM85.0037 28.5622L89.9971 32.0031L93.6219 28.6412L97.9365 31.6083L101.642 27.6935H100.353L98.708 26.0238L98.7092 14.4488L97.8232 14.6068L93.6353 11.1659L85.6953 16.5359L85.6941 27.874L85.0037 28.5622ZM109.054 11.933C108.547 11.6961 108.064 11.3915 107.627 11.0418L101.056 15.5883L101.056 23.2598L101.665 23.7337H105.578L100.502 32.3867C101.285 31.7324 101.883 31.2924 102.32 31.078C102.93 30.7847 103.609 30.638 104.3 30.638C105.163 30.638 105.853 30.7396 106.394 30.9314C106.934 31.1232 107.487 31.4729 108.051 31.9806L114.495 27.0053L114.495 19.221L114.012 18.7472H109.697L109.697 18.3523L113.53 11.7525C113.127 11.9894 112.805 12.1248 112.563 12.1699C112.172 12.2151 111.781 12.2376 111.389 12.2263H110.538C110.02 12.2376 109.514 12.1361 109.054 11.933ZM119.269 32.1159L122.814 28.2463L121.042 26.43L121.043 16.1524L122.009 15.4755L124.874 17.6077L124.873 31.1232C124.884 31.7775 124.838 32.4318 124.735 33.0862C124.642 33.5938 124.424 34.0677 124.067 34.4851C123.848 34.7446 123.561 35.1282 123.181 35.6358C122.698 36.1886 122.111 36.6399 121.443 36.9783C122.675 36.8768 123.779 36.5835 124.734 36.0984C125.689 35.6133 126.587 34.8912 127.415 33.9436C128.037 33.2328 128.52 32.4882 128.866 31.7098C129.211 30.9314 129.441 30.1304 129.556 29.3181L129.558 14.1329L128.384 14.257L124.553 11.7638L121.814 13.9412L120.928 13.4673L120.929 5.98758L120.158 4.2502L116.533 7.69111L116.531 27.2197L115.438 28.4381L119.269 32.1159ZM138.66 8.76287L135.036 5.87476L132.09 9.03363L135.15 11.7638L138.66 8.76287ZM132.975 17.6867L132.974 28.4381L132.203 29.5889H133.572L136.713 32.1949L140.015 29.2278L144.249 32.5898L147.955 28.5622L146.781 27.1069L146.782 17.0323L147.749 16.5585L149.889 18.8487L149.888 28.7202L153.639 31.9242L157.264 27.8966H155.572L154.606 26.351L154.607 15.5996L155.09 14.6068L154.124 14.8099L150.419 11.9217L146.794 15.5996L142.56 12.3166L139.05 16.1524H140.42L141.593 17.4949L141.592 27.3664L139.256 28.1561L137.76 27.0053L137.762 15.938L138.245 15.2611L134.057 12.2151L130.628 15.7688L131.801 16.1298L132.975 17.6867ZM205.452 28.0884L204.29 26.6218L204.291 16.5472L205.258 16.0734L207.398 18.3636L207.397 28.2802L211.147 31.439L214.772 27.4115H213.081L212.114 25.8659L212.116 15.1145L212.599 14.1668L211.632 14.3247L207.928 11.4366L204.303 15.1145L200.069 11.8315L196.559 15.6673H197.928L199.102 17.0098L199.101 26.9264L197.651 28.8217L202.126 31.7098L205.452 28.0884ZM158.046 28.1674C158.587 28.1674 159.07 28.235 159.519 28.3704C159.967 28.5058 160.393 28.7314 160.83 29.0586C161.256 29.3858 161.578 29.7017 161.774 30.0063C161.969 30.3109 162.142 30.7283 162.28 31.2473L160.186 33.8985L157.964 36.8204C158.528 36.5045 159.012 36.3127 159.414 36.245C159.817 36.1774 160.404 36.1435 161.186 36.1435C162.095 36.2225 162.878 36.4368 163.522 36.7753C164.166 37.1137 164.753 37.6327 165.294 38.3209C166.583 37.847 168.079 36.7866 169.793 35.162C171.508 33.5262 172.359 32.1836 172.36 31.1344C172.36 30.9539 172.164 30.3786 171.773 29.4422C171.382 28.4832 171.186 27.4679 171.186 26.43L171.188 14.1329L165.584 10.692L158.531 15.5883L158.529 27.2874L158.046 28.1674ZM171.959 14.6519H174.294L174.293 28.3704L173.729 29.4422H175.098L178.044 31.6534L181.83 27.4228H180.173L179.08 26.272L179.081 14.9227L181.463 12.0346H179.081L179.082 4.48712L174.283 8.87569L174.283 11.8766L171.959 14.6519ZM182.152 28.1674L187.145 31.6421L195.856 25.6741L195.857 14.054L194.971 14.257L190.772 10.7823L182.832 16.1524L182.831 27.5017L182.152 28.1674ZM223.07 8.5598L223.07 12.2376C222.368 12.2376 221.781 12.3053 221.298 12.452C220.815 12.5986 220.354 12.8807 219.906 13.2981C219.457 13.7155 219.204 14.2119 219.123 14.7647C219.042 15.3175 218.996 16.0396 218.996 16.9421C218.996 17.3144 218.985 17.5626 218.95 17.698C219.537 16.7729 220.366 16.3893 221.413 16.5472C222.114 16.6488 222.667 16.9421 223.069 17.4159L223.069 23.5419C221.838 24.1736 220.756 25.0085 219.847 26.0351C218.823 27.2197 218.132 28.4381 217.787 29.7129C218.247 29.3632 218.73 29.0473 219.237 28.7879C219.639 28.5848 220.203 28.393 220.928 28.1786C221.193 28.0997 221.503 28.0094 221.86 27.9192C222.205 27.8289 222.608 27.7838 223.068 27.7838L223.067 39.5957L228.349 35.3651L230.121 36.6286L230.121 29.9047L232.377 30.6606L239.994 25.4823L239.996 8.08597L235.118 4.2502L230.124 8.35673L230.124 6.19065L229.158 5.40093L229.157 8.87569L228.352 9.42849L228.352 5.79579L224.245 2.70461L219.365 7.40907C219.768 7.17215 220.182 7.04806 220.608 7.04806C220.953 7.04806 221.299 7.10446 221.621 7.206C222.346 7.47676 222.829 7.92803 223.07 8.5598ZM240.684 28.5622L245.678 32.0031L254.423 26.0351L254.425 14.4488L253.539 14.6068L249.305 11.1659L241.365 16.5359L241.363 27.874L240.684 28.5622ZM263.825 11.7638C263.308 11.5156 262.801 11.2223 262.33 10.8951L255.794 15.3965L255.793 23.068L256.357 23.5419H260.269L255.194 32.1949C255.757 31.7211 256.229 31.3714 256.609 31.1232C257.311 30.6719 258.116 30.4463 259.025 30.4463C259.865 30.4463 260.544 30.5478 261.085 30.7396C261.626 30.9426 262.178 31.2811 262.742 31.7888L269.197 26.8136L269.198 19.0292L268.715 18.5554H264.4L264.4 18.1605L268.232 11.5607C267.83 11.7976 267.507 11.933 267.266 11.9781C267.024 12.0233 266.633 12.0346 266.092 12.0346H265.252C264.7 12.0346 264.228 11.9443 263.825 11.7638ZM269.302 14.8437H271.638L271.636 28.5622L271.073 29.634H272.442L275.341 31.8452L279.173 27.6146H277.516L276.423 26.4638L276.425 15.1257L278.761 12.2376H276.425L276.426 4.69019L271.65 9.07876L271.65 12.0797L269.302 14.8437ZM90.4821 15.2047L93.6231 17.4949L93.6221 26.7007L92.6094 27.7725L90.4695 25.9562L90.4821 15.2047ZM168.528 31.4052C169.172 31.8565 169.494 32.4205 169.494 33.1087C169.494 33.4246 169.46 33.6615 169.414 33.8195C169.253 34.0564 169.126 34.2143 169.045 34.2933C168.827 34.5077 168.551 34.643 168.24 34.6882C167.895 34.7446 167.434 34.5754 166.871 34.1918C166.307 33.8082 165.455 33.6164 164.328 33.6164C163.603 33.6164 162.947 33.6841 162.349 33.8195C161.762 33.9549 161.141 34.1805 160.496 34.4964L166.388 27.3776L166.388 28.2915C166.388 28.8217 166.434 29.2504 166.526 29.6001C166.618 29.9386 166.825 30.277 167.147 30.5929C167.607 30.8637 168.068 31.1457 168.528 31.4052ZM163.329 14.7309L166.389 16.9421L166.388 25.8772L165.502 26.8248L163.328 24.6926L163.329 14.7309ZM41.706 21.6465L41.7067 15.8703L44.6519 19.503L41.706 21.6465ZM110.768 15.1257L108.029 19.9092H105.969L105.97 14.7309C106.775 15.2273 107.65 15.4868 108.593 15.4868C109.341 15.4755 110.066 15.3627 110.768 15.1257ZM187.63 14.8099L190.771 17.1452L190.77 26.351L189.769 27.4228L187.629 25.5613L187.63 14.8099ZM106.728 22.786H109.674L109.673 27.8853C109.259 27.7387 108.833 27.6258 108.408 27.5469C108.12 27.513 107.545 27.4905 106.659 27.4905C106.141 27.4792 105.635 27.5356 105.128 27.6484C104.703 27.7499 104.185 27.9304 103.598 28.1674L106.728 22.786ZM228.351 12.0346L229.157 11.3577L229.155 33.921L228.349 33.4472L228.351 12.0346ZM230.124 10.771L232.586 9.22542L234.358 10.489L234.356 25.3469C233.516 24.8731 233.068 24.6249 232.987 24.5911L232.101 24.309C231.445 24.1511 230.778 23.9931 230.122 23.8352L230.124 10.771ZM14.7362 12.5084C15.0008 12.5084 15.2194 12.4858 15.3805 12.4294L15.379 26.8136C14.3664 27.31 13.2502 27.5694 12.1111 27.5694C11.4438 27.5694 10.7649 27.4905 10.0975 27.3325C9.43019 27.1746 8.90092 26.9602 8.52123 26.7007L13.1127 22.1993L13.1138 12.3166C13.3094 12.4181 13.5165 12.4858 13.7351 12.4971C13.9652 12.5084 14.1148 12.5197 14.1954 12.5197L14.7362 12.5084ZM246.174 15.2047L249.315 17.4949L249.314 26.7007L248.348 27.7725L246.173 25.9562L246.174 15.2047ZM63.6382 11.4479L65.1342 10.2972L68.2405 13.3771L68.239 27.5694L66.9847 28.833L63.6367 25.6741L63.6382 11.4479ZM264.469 15.2047C264.815 15.1483 265.16 15.058 265.471 14.9227L262.732 19.7061H260.672L260.672 14.5278C261.466 15.0242 262.387 15.2837 263.33 15.2837C263.745 15.2837 264.124 15.2498 264.469 15.2047ZM261.443 22.5942H264.388L264.388 27.6935C263.973 27.5469 263.548 27.434 263.122 27.3551C262.834 27.3099 262.259 27.2987 261.361 27.2987C260.844 27.2874 260.326 27.3438 259.831 27.4566C259.325 27.592 258.819 27.7612 258.335 27.9756L261.443 22.5942ZM74.2356 11.4479L75.697 10.2972L78.8379 13.3771L78.8364 27.5694L77.5475 28.833L74.2456 25.6741L74.2356 11.4479Z" fill="#E8E4D8"/>
</svg>
