<svg width="169" height="41" viewBox="0 0 169 41" fill="none" xmlns="http://www.w3.org/2000/svg">
<g id="Frame" clip-path="url(#clip0_18_57)">
<g id="Vector">
<path d="M27.7696 28.8054L27.7715 10.7251C27.7716 9.78451 27.9843 9.07906 28.4362 8.60877C28.8616 8.13847 29.4465 7.90332 30.1376 7.90332C30.8553 7.90332 31.4401 8.13847 31.8654 8.60877C32.3172 9.07906 32.5298 9.78451 32.5297 10.7251L32.5278 28.8054C32.5277 29.746 32.315 30.4776 31.863 30.9479C31.4111 31.4182 30.8528 31.6533 30.1351 31.6533C29.4439 31.6533 28.8857 31.4182 28.4605 30.9479C28.0086 30.4514 27.7695 29.746 27.7696 28.8054Z" fill="#E8E4D8"/>
<path d="M156.401 31.6272C149.756 31.6272 144.333 26.2972 144.334 19.7653C144.335 13.2334 149.758 7.90332 156.404 7.90332C163.049 7.90332 168.472 13.2334 168.471 19.7653C168.47 26.3233 163.073 31.6272 156.401 31.6272ZM156.403 12.7108C152.443 12.7108 149.226 15.8722 149.225 19.7653C149.225 23.6583 152.441 26.8197 156.402 26.8197C160.363 26.8197 163.579 23.6583 163.58 19.7653C163.58 15.8984 160.364 12.7108 156.403 12.7108Z" fill="#E8E4D8"/>
<path d="M102.253 31.6272C95.6074 31.6272 90.1852 26.2972 90.1858 19.7653C90.1865 13.2334 95.6099 7.90332 102.255 7.90332C108.901 7.90332 114.323 13.2334 114.323 19.7653C114.322 26.3233 108.899 31.6272 102.253 31.6272ZM102.255 12.7108C98.2942 12.7108 95.0774 15.8722 95.077 19.7653C95.0766 23.6583 98.2927 26.8197 102.253 26.8197C106.214 26.8197 109.431 23.6583 109.431 19.7653C109.432 15.8984 106.216 12.7108 102.255 12.7108Z" fill="#E8E4D8"/>
<path d="M140.48 19.7653C140.48 17.1525 139.603 14.7226 138.141 12.7631C136.015 9.91515 132.613 8.03396 128.758 7.90332C128.625 7.90332 128.519 7.90332 128.386 7.90332H122.325C121.288 7.90332 120.544 8.13847 120.092 8.60877C119.64 9.07906 119.401 9.81064 119.401 10.8557L119.399 28.7009C119.399 29.746 119.638 30.4776 120.09 30.9479C120.542 31.4182 121.312 31.6533 122.323 31.6533H128.383C128.516 31.6533 128.623 31.6533 128.756 31.6533C132.61 31.5488 135.986 29.6676 138.14 26.7936C139.602 24.8079 140.479 22.378 140.48 19.7653ZM129.261 26.7675C128.676 26.7936 128.038 26.8197 127.374 26.8197H124.21L124.212 12.7108H127.375C128.04 12.7108 128.678 12.7108 129.263 12.7631C131.363 12.9982 133.17 14.1478 134.313 15.7677C135.11 16.8912 135.589 18.276 135.589 19.7653C135.588 21.2545 135.11 22.6132 134.312 23.7367C133.169 25.4088 131.361 26.5323 129.261 26.7675Z" fill="#E8E4D8"/>
<path d="M83.3554 8.00777C82.4782 7.74649 81.5212 8.08615 81.016 8.84385L73.7313 19.7391L66.4489 8.84385C65.9439 8.08615 64.987 7.74649 64.1098 8.00777C63.2325 8.26904 62.621 9.10513 62.6209 10.0196L62.6189 29.3801C62.6188 30.5298 63.5491 31.4965 64.7187 31.4965C65.8617 31.4965 66.8188 30.5559 66.8189 29.3801L66.8202 16.9173L71.9764 24.6511C71.9764 24.6511 71.9764 24.6511 71.9764 24.6772C71.9764 24.6772 71.9764 24.7033 72.0029 24.7033C72.0295 24.7556 72.0561 24.8078 72.1093 24.8339C72.1358 24.8601 72.1358 24.8601 72.1624 24.8862C72.189 24.9123 72.2156 24.9646 72.2422 24.9907C72.2687 25.0168 72.2953 25.043 72.3219 25.0691C72.3485 25.0952 72.3751 25.0952 72.3751 25.1214C72.4282 25.1475 72.4548 25.1736 72.508 25.2259L72.5345 25.252C72.5877 25.2781 72.6409 25.3042 72.6674 25.3304C72.694 25.3304 72.694 25.3565 72.694 25.3565C72.7206 25.3826 72.7738 25.3826 72.8003 25.4088C73.013 25.5133 73.2256 25.5655 73.4649 25.5916C73.518 25.5916 73.5446 25.5916 73.5978 25.5916C73.6244 25.5916 73.651 25.5916 73.6775 25.5916C73.7041 25.5916 73.7307 25.5916 73.7573 25.5916C73.8105 25.5916 73.837 25.5916 73.8902 25.5916C74.1029 25.5655 74.3421 25.5133 74.5548 25.4088C74.5814 25.3826 74.6345 25.3826 74.6611 25.3565L74.6877 25.3304C74.7409 25.3042 74.794 25.2781 74.8206 25.252C74.8472 25.252 74.8472 25.2259 74.8472 25.2259C74.9004 25.1997 74.9269 25.1736 74.9801 25.1214C75.0067 25.0952 75.0333 25.0952 75.0333 25.0691C75.0599 25.043 75.0865 25.0168 75.113 24.9907C75.1396 24.9646 75.1662 24.9385 75.1928 24.8862C75.2194 24.8601 75.2194 24.8601 75.246 24.8339C75.2726 24.7817 75.3257 24.7556 75.3523 24.7033L75.3789 24.6772C75.3789 24.6772 75.3789 24.6772 75.3789 24.6511L80.5367 16.9173L80.5354 29.3801C80.5353 30.5298 81.4655 31.4965 82.6352 31.4965C83.7782 31.4965 84.7353 30.5559 84.7354 29.3801L84.7374 10.0196C84.8439 9.10513 84.2326 8.26904 83.3554 8.00777Z" fill="#E8E4D8"/>
<path d="M55.4947 30.9217H39.8377C39.0136 30.9217 38.1099 30.4253 37.7644 29.6415C37.4189 28.8577 37.3658 27.7864 38.0837 26.9242L50.8713 12.3189H40.2915C39.1485 12.3189 38.1916 11.326 38.1918 10.1242C38.1919 8.9223 39.1224 8.1646 40.292 8.1646H54.5401C55.3642 8.1646 56.2148 8.29523 56.959 9.10519C57.6501 9.83676 57.5967 11.4305 56.8523 12.3711L44.49 26.5323H55.4951C56.6648 26.5323 57.4887 27.5252 57.4886 28.727C57.4885 29.9289 56.6643 30.9217 55.4947 30.9217Z" fill="#E8E4D8"/>
<path d="M12.1919 31.6272C8.70966 31.6272 5.57308 30.2685 3.31384 27.8126C1.34697 25.6701 0.204232 22.8222 0.20453 20.0004C0.205462 11.1954 7.64887 7.90332 12.354 7.90332C16.9793 7.90332 20.355 10.1242 20.5145 10.2287C21.5511 10.9341 21.8434 12.3189 21.1255 13.364C20.4343 14.4091 19.0254 14.6704 17.9888 13.9911C17.9356 13.9649 15.5168 12.4234 12.3535 12.4234C9.40283 12.4234 5.33553 14.3307 5.33493 20.0004C5.33459 23.2141 7.77976 27.0287 12.2456 27.0287C14.7709 27.0287 16.5254 26.3755 17.5622 25.7223L17.5626 22.378H14.1069C12.8575 22.378 11.8475 21.359 11.8476 20.131C11.8477 18.8769 12.858 17.8841 14.1073 17.8841H19.8757C21.1251 17.8841 22.1351 18.903 22.135 20.131L22.1343 26.8458C22.1342 27.4468 21.8949 28.0477 21.4429 28.4657C19.9276 29.9289 16.578 31.6272 12.1919 31.6272Z" fill="#E8E4D8"/>
</g>
</g>
<defs>
<clipPath id="clip0_18_57">
<rect width="168.388" height="40" fill="white" transform="matrix(1 0 -0.000105832 1 0.206604 0.40332)"/>
</clipPath>
</defs>
</svg>
