<svg width="244" height="40" viewBox="0 0 244 40" fill="none" xmlns="http://www.w3.org/2000/svg">
<g id="Frame" clip-path="url(#clip0_18_53)">
<g id="Vector">
<path d="M91.4443 15.6197L91.4427 30.4764H85.9142L85.9158 15.6197H80.3241L80.3246 10.8897H97.0207L97.0202 15.6197H91.4443Z" fill="#E8E4D8"/>
<path d="M109.94 24.5682H101.158C101.331 26.1965 102.295 26.9099 103.701 26.9099C105.012 26.9099 106.102 26.6308 107.571 25.8709L109.529 29.0965C107.681 30.1666 105.769 30.7714 103.432 30.7714C98.9299 30.7714 96.4503 27.6388 96.4508 23.1259C96.4513 18.0548 99.358 15.4649 103.291 15.4649C107.398 15.4649 109.957 18.1168 109.956 23.5757C109.956 24.0099 109.956 24.3201 109.94 24.5682ZM103.149 19.2024C101.98 19.2024 101.332 19.9933 101.158 21.4356H105.439C105.17 19.9468 104.665 19.2024 103.149 19.2024Z" fill="#E8E4D8"/>
<path d="M119.48 30.7866C115.089 30.7866 112.467 28.0416 112.468 23.0945C112.468 18.5817 114.806 15.4801 119.592 15.4801C122.42 15.4801 124.031 16.7673 125.342 18.8298L121.803 21.4662C121.092 20.179 120.603 19.5587 119.497 19.5587C118.186 19.5587 117.523 20.8459 117.522 23.1721C117.522 25.4983 118.233 26.6924 119.639 26.6924C120.602 26.6924 121.297 26.1651 122.229 24.7849L125.483 27.2817C123.745 29.794 122.134 30.7866 119.48 30.7866Z" fill="#E8E4D8"/>
<path d="M136.966 30.4766L136.967 22.1332C136.967 20.2257 136.32 19.7295 135.261 19.7295C134.171 19.7295 133.524 20.2257 133.524 22.0867L133.523 30.4766H128.389L128.391 12.084L133.525 10.0679L133.524 16.7674C134.472 16.0696 135.514 15.4803 137.284 15.4803C140.569 15.4803 142.133 17.6359 142.132 21.4974L142.131 30.4766H136.966Z" fill="#E8E4D8"/>
<path d="M154.405 30.7868C148.481 30.7868 145.307 26.4755 145.307 20.691C145.308 14.3947 149.068 10.5952 154.423 10.5952C159.319 10.5952 161.262 12.6733 162.636 16.3643L157.628 18.2717C156.918 16.4573 156.239 15.3097 154.406 15.3097C152.1 15.3097 151.105 17.5739 151.104 20.6755C151.104 23.6686 152.067 26.0413 154.468 26.0413C156.206 26.0413 156.948 25.1108 158.023 23.2654L162.698 25.7001C161.371 28.29 159.143 30.7868 154.405 30.7868Z" fill="#E8E4D8"/>
<path d="M175.319 21.3269C174.672 20.6291 173.929 20.1018 172.934 20.1018C171.686 20.1018 170.912 20.6911 170.912 22.4745L170.911 30.4767H165.778L165.779 15.7906H170.913L170.913 16.8606C171.797 16.0232 172.793 15.4959 174.104 15.4959C175.193 15.4959 175.92 15.744 176.52 16.1162L175.319 21.3269Z" fill="#E8E4D8"/>
<path d="M187.513 30.4766L187.513 29.4996C186.596 30.1975 185.522 30.7868 183.785 30.7868C180.499 30.7868 178.936 28.6312 178.936 24.7697L178.937 15.7905H184.102L184.101 24.1338C184.101 26.0413 184.749 26.5376 185.807 26.5376C186.865 26.5376 187.513 26.0413 187.513 24.1803L187.514 15.7905H192.679L192.678 30.4766H187.513Z" fill="#E8E4D8"/>
<path d="M204.951 30.4764L204.952 22.1331C204.952 20.2256 204.305 19.7293 203.246 19.7293C202.156 19.7293 201.509 20.2256 201.508 22.0865L201.508 30.4764H196.374L196.376 15.7902H201.509L201.509 16.7673C202.457 16.0694 203.499 15.4801 205.269 15.4801C208.554 15.4801 210.118 17.6357 210.117 21.4972L210.116 30.4764H204.951Z" fill="#E8E4D8"/>
<path d="M220.115 30.7866C215.724 30.7866 213.102 28.0416 213.102 23.0945C213.103 18.5817 215.441 15.4801 220.227 15.4801C223.055 15.4801 224.666 16.7673 225.977 18.8298L222.438 21.4662C221.727 20.179 221.238 19.5587 220.132 19.5587C218.821 19.5587 218.157 20.8459 218.157 23.1721C218.157 25.4983 218.868 26.6924 220.273 26.6924C221.237 26.6924 221.932 26.1651 222.864 24.7849L226.118 27.2817C224.38 29.794 222.769 30.7866 220.115 30.7866Z" fill="#E8E4D8"/>
<path d="M237.601 30.4766L237.602 22.1332C237.602 20.2257 236.954 19.7295 235.896 19.7295C234.806 19.7295 234.159 20.2257 234.158 22.0867L234.157 30.4766H229.024L229.026 12.084L234.16 10.0679L234.159 16.7674C235.107 16.0696 236.149 15.4803 237.918 15.4803C241.204 15.4803 242.767 17.6359 242.767 21.4974L242.766 30.4766H237.601Z" fill="#E8E4D8"/>
<path d="M0.304119 2.5L0.302934 13.6968H11.7075L11.7051 36.075H23.0938L23.0962 13.6968H34.5007L34.5019 2.5H0.304119Z" fill="#E8E4D8"/>
<path d="M45.8883 24.8783L45.8895 13.6969L34.5007 13.6968L34.4984 36.0751H68.6804L68.6816 24.8783H45.8883Z" fill="#E8E4D8"/>
<path d="M68.684 2.5H45.8907L45.8895 13.6969L68.6828 13.6968L68.684 2.5Z" fill="#E8E4D8"/>
</g>
</g>
<defs>
<clipPath id="clip0_18_53">
<rect width="242.887" height="40" fill="white" transform="matrix(1 0 -0.000105832 1 0.304382 0)"/>
</clipPath>
</defs>
</svg>
