<svg xmlns:xlink="http://www.w3.org/1999/xlink" xmlns="http://www.w3.org/2000/svg" width="802" height="792" viewBox="0 0 802 792" fill="none">
  <path opacity="0.8" d="M399.461 791.394C619.447 791.394 797.781 719.786 797.781 631.454C797.781 543.121 619.447 471.514 399.461 471.514C179.475 471.514 1.14111 543.121 1.14111 631.454C1.14111 719.786 179.475 791.394 399.461 791.394Z" stroke="black" strokeMiterlimit="10"></path>
  <path opacity="0.1" d="M720.071 626.634C720.071 556.594 578.671 499.814 404.251 499.814C229.831 499.814 88.4307 556.594 88.4307 626.634V649.974C88.4307 720.014 229.831 776.794 404.251 776.794C578.671 776.794 720.071 720.014 720.071 649.974V626.634Z" fill="black"></path>
  <path d="M713.711 608.104C686.421 549.214 557.811 504.634 403.251 504.634C248.691 504.634 120.081 549.224 92.7907 608.104H87.4307V631.444C87.4307 701.484 228.831 758.264 403.251 758.264C577.671 758.264 719.071 701.484 719.071 631.444V608.104H713.711Z" fill="url(#paint0_linear_51_115)"></path>
  <path d="M403.251 734.924C577.673 734.924 719.071 678.145 719.071 608.104C719.071 538.063 577.673 481.284 403.251 481.284C228.828 481.284 87.4307 538.063 87.4307 608.104C87.4307 678.145 228.828 734.924 403.251 734.924Z" fill="url(#paint1_linear_51_115)"></path>
  <g opacity="0.3">
  <path d="M403.251 714.504C322.471 714.504 246.951 700.604 190.621 675.354C144.691 654.774 116.161 627.844 116.161 605.094C116.161 582.344 144.691 555.414 190.621 534.834C246.951 509.584 322.471 495.684 403.251 495.684C484.031 495.684 559.551 509.584 615.881 534.834C661.811 555.414 690.341 582.344 690.341 605.094C690.341 627.844 661.811 654.774 615.881 675.354C559.551 700.604 484.031 714.504 403.251 714.504ZM403.251 496.714C322.611 496.714 247.241 510.584 191.041 535.774C145.491 556.184 117.191 582.754 117.191 605.094C117.191 627.434 145.491 654.004 191.041 674.414C247.241 699.604 322.611 713.474 403.251 713.474C483.891 713.474 559.261 699.604 615.461 674.414C661.011 654.004 689.311 627.434 689.311 605.094C689.311 582.754 661.011 556.184 615.461 535.774C559.261 510.584 483.891 496.714 403.251 496.714Z" fill="#DC4F13"></path>
  </g>
  <path d="M624.445 354.585C639.743 321.523 625.342 282.321 592.281 267.024C559.22 251.726 520.018 266.127 504.72 299.188C489.423 332.249 503.823 371.451 536.884 386.749C569.945 402.046 609.148 387.646 624.445 354.585Z" fill="#353535"></path>
  <path d="M620.091 356.18C635.389 323.119 620.988 283.917 587.927 268.619C554.866 253.322 515.664 267.722 500.366 300.783C485.069 333.844 499.469 373.047 532.53 388.344C565.592 403.642 604.794 389.241 620.091 356.18Z" fill="url(#paint2_linear_51_115)"></path>
  <path d="M616.683 330.375C617.717 299.205 593.287 273.098 562.116 272.064C530.946 271.03 504.839 295.461 503.805 326.631C502.771 357.801 527.201 383.908 558.372 384.942C589.542 385.976 615.649 361.546 616.683 330.375Z" fill="url(#paint3_linear_51_115)"></path>
  <path opacity="0.1" d="M509.971 349.444C499.231 320.214 514.281 287.704 543.511 276.964C558.511 271.454 574.381 272.734 587.721 279.244C573.841 271.504 556.791 269.624 540.741 275.524C511.511 286.264 496.461 318.774 507.201 348.004C512.431 362.234 522.811 373.094 535.471 379.264C524.081 372.914 514.811 362.624 509.971 349.444Z" fill="black"></path>
  <path d="M582.731 324.144C580.721 322.624 578.281 321.874 575.421 321.884C576.771 320.424 577.681 319.024 578.161 317.684C579.011 315.294 578.891 312.584 577.781 309.564C576.701 306.634 575.021 304.394 572.741 302.854C569.201 300.504 564.641 300.204 559.081 301.934L556.521 294.964L551.041 296.974L553.591 303.904L547.451 306.154L544.901 299.224L539.421 301.234L541.971 308.164L534.101 311.054L552.261 360.504L560.131 357.614L562.031 362.794L567.511 360.784L565.611 355.604L571.751 353.354L573.651 358.534L579.131 356.524L577.191 351.244C578.661 350.584 580.031 349.874 581.281 349.094C583.261 347.854 584.821 346.344 585.961 344.564C586.971 342.994 587.671 341.274 588.031 339.384C588.641 336.524 588.411 333.624 587.341 330.694C586.301 327.854 584.771 325.674 582.751 324.154L582.731 324.144ZM568.311 314.284C569.071 316.364 568.941 318.054 567.901 319.364C566.861 320.674 565.271 321.724 563.121 322.504L551.101 326.914L547.101 316.014L557.861 312.064C560.231 311.194 562.271 310.734 563.991 310.694C566.031 310.784 567.481 311.974 568.321 314.284H568.311ZM575.641 341.174C574.661 342.194 573.101 343.094 570.951 343.884L558.951 348.294L554.111 335.114L566.281 330.644C568.411 329.884 570.161 329.564 571.531 329.664C573.981 329.854 575.681 331.234 576.631 333.804C577.751 336.844 577.421 339.304 575.651 341.174H575.641Z" fill="#DC4F13"></path>
  <path d="M324.326 246.275C346.715 223.887 346.715 187.587 324.326 165.198C301.937 142.81 265.638 142.81 243.249 165.198C220.861 187.587 220.861 223.886 243.249 246.275C265.638 268.664 301.937 268.664 324.326 246.275Z" fill="#353535"></path>
  <path d="M320.462 245.184C342.851 222.795 342.851 186.496 320.462 164.107C298.073 141.718 261.774 141.718 239.385 164.107C216.996 186.496 216.996 222.795 239.385 245.184C261.774 267.573 298.073 267.573 320.462 245.184Z" fill="url(#paint4_linear_51_115)"></path>
  <path d="M319.184 234.063C335.448 212.378 331.053 181.614 309.369 165.351C287.684 149.087 256.92 153.482 240.657 175.166C224.393 196.851 228.788 227.615 250.472 243.878C272.157 260.142 302.921 255.747 319.184 234.063Z" fill="url(#paint5_linear_51_115)"></path>
  <path opacity="0.1" d="M233.871 193.634C241.271 167.604 268.481 152.444 294.511 159.854C307.871 163.654 318.361 172.674 324.421 184.064C318.621 171.524 307.601 161.484 293.311 157.414C267.281 150.004 240.071 165.164 232.671 191.194C229.071 203.864 230.811 216.814 236.551 227.624C231.791 217.334 230.541 205.364 233.881 193.634H233.871Z" fill="black"></path>
  <path d="M297.941 213.064C297.301 210.964 295.971 209.194 293.961 207.734C295.651 207.394 297.011 206.884 298.031 206.184C299.851 204.934 301.151 202.974 301.911 200.284C302.651 197.674 302.621 195.244 301.801 192.984C300.511 189.524 297.471 186.974 292.671 185.354L294.441 179.144L289.561 177.754L287.801 183.934L282.331 182.374L284.091 176.194L279.211 174.804L277.451 180.984L270.441 178.994L257.911 223.034L264.921 225.024L263.611 229.644L268.491 231.034L269.801 226.414L275.271 227.974L273.961 232.594L278.841 233.984L280.181 229.274C281.551 229.564 282.871 229.764 284.151 229.854C286.171 230.004 288.041 229.734 289.751 229.054C291.261 228.474 292.631 227.614 293.851 226.474C295.751 224.774 297.071 222.624 297.811 220.014C298.531 217.484 298.571 215.174 297.931 213.074L297.941 213.064ZM292.851 198.764C292.321 200.614 291.361 201.734 289.961 202.124C288.561 202.514 286.901 202.434 284.991 201.894L274.291 198.854L277.051 189.144L286.631 191.864C288.741 192.464 290.411 193.184 291.641 194.034C293.031 195.144 293.431 196.714 292.851 198.774V198.764ZM284.251 221.414C283.041 221.634 281.481 221.464 279.571 220.924L268.881 217.884L272.221 206.144L283.061 209.224C284.941 209.784 286.341 210.444 287.251 211.224C288.881 212.614 289.361 214.454 288.711 216.744C287.941 219.454 286.451 221.014 284.251 221.414Z" fill="#DC4F13"></path>
  <path opacity="0.1" d="M399.46 642.554C466.27 642.554 520.43 622.098 520.43 596.864C520.43 571.63 466.27 551.174 399.46 551.174C332.65 551.174 278.49 571.63 278.49 596.864C278.49 622.098 332.65 642.554 399.46 642.554Z" fill="black"></path>
  <path d="M520.43 545.424C520.43 544.934 520.4 544.454 520.36 543.964H520.43V294.984L278.48 300.794V543.964H278.55C280.59 568.524 333.94 588.194 399.45 588.194C464.96 588.194 518.31 568.524 520.36 543.964C520.4 544.444 520.43 544.934 520.43 545.424Z" fill="#FAFAFA"></path>
  <path d="M487.64 576.704C485.87 577.414 484.05 578.104 482.17 578.764C484.05 578.094 485.88 577.414 487.64 576.704Z" fill="#FAFAFA"></path>
  <path d="M492.76 574.504C491.12 575.254 489.41 575.984 487.65 576.694C489.42 575.984 491.12 575.254 492.76 574.504Z" fill="#FAFAFA"></path>
  <path d="M419.861 590.464C417.211 590.634 414.521 590.774 411.811 590.874C414.521 590.774 417.201 590.634 419.861 590.464Z" fill="#FAFAFA"></path>
  <path d="M460.481 584.884C448.171 587.604 434.461 589.534 419.871 590.464C434.461 589.524 448.171 587.604 460.481 584.884Z" fill="#FAFAFA"></path>
  <path opacity="0.5" d="M399.46 332.214C332.65 332.214 278.49 353.604 278.49 379.994V539.734C278.49 561.824 332.65 588.674 399.46 588.204C472.87 587.684 520.43 561.824 520.43 539.734V379.994C520.43 353.604 466.27 332.214 399.46 332.214Z" fill="url(#paint6_linear_51_115)"></path>
  <path d="M458.53 545.424C441.06 541.724 420.91 539.614 399.45 539.614C377.99 539.614 357.84 541.724 340.37 545.424H278.48L278.61 583.224C278.53 583.914 278.48 584.604 278.48 585.294C278.48 610.524 332.64 630.984 399.45 630.984C466.26 630.984 520.421 610.524 520.421 585.294V545.414H458.53V545.424Z" fill="url(#paint7_linear_51_115)"></path>
  <path d="M399.46 591.114C466.27 591.114 520.43 570.658 520.43 545.424C520.43 520.19 466.27 499.734 399.46 499.734C332.65 499.734 278.49 520.19 278.49 545.424C278.49 570.658 332.65 591.114 399.46 591.114Z" fill="url(#paint8_linear_51_115)"></path>
  <path d="M399.46 588.194C333.94 588.194 280.6 568.524 278.56 543.964C278.52 544.444 278.49 544.934 278.49 545.424C278.49 570.654 332.65 591.114 399.46 591.114C466.27 591.114 520.43 570.654 520.43 545.424C520.43 544.934 520.4 544.454 520.36 543.964C518.32 568.524 464.97 588.194 399.45 588.194H399.46Z" fill="#FAFAFA"></path>
  <g opacity="0.3">
  <path d="M399.461 581.014C456.843 581.014 503.361 565.08 503.361 545.424C503.361 525.768 456.843 509.834 399.461 509.834C342.078 509.834 295.561 525.768 295.561 545.424C295.561 565.08 342.078 581.014 399.461 581.014Z" fill="url(#paint9_linear_51_115)"></path>
  </g>
  <g opacity="0.5">
  <path d="M399.46 420.094C466.27 420.094 520.43 400.421 520.43 376.154C520.43 351.886 466.27 332.214 399.46 332.214C332.65 332.214 278.49 351.886 278.49 376.154C278.49 400.421 332.65 420.094 399.46 420.094Z" fill="url(#paint10_linear_51_115)"></path>
  </g>
  <path d="M458.53 265.474C441.06 261.774 420.91 259.664 399.45 259.664C377.99 259.664 357.84 261.774 340.37 265.474H278.48L278.61 303.274C278.53 303.964 278.48 304.654 278.48 305.344C278.48 330.574 332.64 351.034 399.45 351.034C466.26 351.034 520.421 330.574 520.421 305.344V265.464H458.53V265.474Z" fill="url(#paint11_linear_51_115)"></path>
  <path d="M399.46 311.164C466.27 311.164 520.43 290.708 520.43 265.474C520.43 240.24 466.27 219.784 399.46 219.784C332.65 219.784 278.49 240.24 278.49 265.474C278.49 290.708 332.65 311.164 399.46 311.164Z" fill="url(#paint12_linear_51_115)"></path>
  <path d="M399.46 308.254C333.94 308.254 280.6 288.584 278.56 264.024C278.52 264.504 278.49 264.994 278.49 265.484C278.49 290.714 332.65 311.174 399.46 311.174C466.27 311.174 520.43 290.714 520.43 265.484C520.43 264.994 520.4 264.514 520.36 264.024C518.32 288.584 464.97 308.254 399.45 308.254H399.46Z" fill="#FAFAFA"></path>
  <path opacity="0.1" d="M219.26 626.884C256.694 626.884 287.04 622.68 287.04 617.494C287.04 612.308 256.694 608.104 219.26 608.104C181.827 608.104 151.48 612.308 151.48 617.494C151.48 622.68 181.827 626.884 219.26 626.884Z" fill="black"></path>
  <path d="M260.751 623.834C305.696 623.834 342.131 587.399 342.131 542.454C342.131 497.509 305.696 461.074 260.751 461.074C215.806 461.074 179.371 497.509 179.371 542.454C179.371 587.399 215.806 623.834 260.751 623.834Z" fill="#353535"></path>
  <path d="M312.617 599.398C344.398 567.617 344.398 516.09 312.617 484.309C280.836 452.528 229.309 452.528 197.528 484.309C165.747 516.09 165.747 567.617 197.528 599.398C229.309 631.178 280.836 631.178 312.617 599.398Z" fill="url(#paint13_linear_51_115)"></path>
  <path d="M316.144 575.384C334.663 541.656 322.334 499.301 288.606 480.782C254.878 462.263 212.524 474.592 194.004 508.32C175.485 542.048 187.815 584.403 221.542 602.922C255.27 621.441 297.625 609.112 316.144 575.384Z" fill="url(#paint14_linear_51_115)"></path>
  <path opacity="0.1" d="M188.01 537.664C192.04 499.454 226.39 471.654 264.6 475.674C284.21 477.744 301.08 487.794 312.31 502.264C301.15 486.144 283.31 474.774 262.32 472.564C224.11 468.534 189.76 496.344 185.73 534.554C183.77 553.154 189.35 570.834 200.01 584.554C190.85 571.324 186.2 554.884 188.01 537.664Z" fill="black"></path>
  <path d="M282.331 549.254C280.931 546.474 278.641 544.314 275.471 542.764C277.761 541.884 279.531 540.824 280.791 539.604C283.041 537.414 284.371 534.354 284.791 530.404C285.191 526.574 284.551 523.184 282.861 520.224C280.221 515.694 275.341 512.874 268.231 511.764L269.191 502.654L262.031 501.904L261.071 510.964L253.051 510.114L254.011 501.054L246.851 500.304L245.891 509.364L235.601 508.284L228.791 572.914L239.081 573.994L238.371 580.764L245.531 581.514L246.241 574.744L254.261 575.594L253.551 582.364L260.711 583.114L261.441 576.204C263.421 576.274 265.321 576.234 267.141 576.054C270.011 575.764 272.551 574.944 274.781 573.574C276.761 572.394 278.461 570.854 279.891 568.974C282.131 566.134 283.451 562.804 283.851 558.974C284.241 555.264 283.731 552.014 282.331 549.234V549.254ZM271.741 530.494C271.451 533.214 270.381 535.014 268.521 535.894C266.661 536.774 264.321 537.074 261.521 536.774L245.811 535.114L247.311 520.864L261.371 522.344C264.461 522.674 266.981 523.274 268.901 524.154C271.111 525.364 272.061 527.474 271.741 530.484V530.494ZM265.221 564.254C263.581 564.854 261.361 565.004 258.551 564.704L242.861 563.054L244.681 545.824L260.591 547.504C263.361 547.824 265.471 548.414 266.931 549.284C269.541 550.834 270.671 553.284 270.321 556.644C269.901 560.624 268.201 563.164 265.221 564.264V564.254Z" fill="#DC4F13"></path>
  <path d="M708.611 133.289C731.23 110.67 731.23 73.9971 708.611 51.3779C685.992 28.7587 649.319 28.7587 626.7 51.3779C604.081 73.9971 604.081 110.67 626.7 133.289C649.319 155.908 685.992 155.908 708.611 133.289Z" fill="url(#paint15_linear_51_115)"></path>
  <path d="M730.271 62.9736C705.191 62.9736 684.851 83.3136 684.851 108.394C684.851 115.774 686.611 122.744 689.741 128.904H632.591C632.951 127.014 633.151 125.064 633.151 123.074C633.151 106.094 619.391 92.3336 602.411 92.3336C585.431 92.3336 571.671 106.094 571.671 123.074C571.671 140.054 585.431 153.814 602.411 153.814H730.291C755.371 153.814 775.711 133.474 775.711 108.394C775.711 83.3136 755.371 62.9736 730.291 62.9736H730.271Z" fill="url(#paint16_linear_51_115)"></path>
  <path d="M708.587 133.283C731.206 110.664 731.206 73.9912 708.587 51.372C685.968 28.7529 649.295 28.7529 626.676 51.372C604.056 73.9912 604.056 110.664 626.676 133.283C649.295 155.902 685.968 155.902 708.587 133.283Z" fill="url(#paint17_linear_51_115)"></path>
  <path d="M602.391 153.804C619.368 153.804 633.131 140.041 633.131 123.064C633.131 106.086 619.368 92.3237 602.391 92.3237C585.414 92.3237 571.651 106.086 571.651 123.064C571.651 140.041 585.414 153.804 602.391 153.804Z" fill="url(#paint18_linear_51_115)"></path>
  <path d="M762.387 140.507C780.125 122.77 780.125 94.0115 762.387 76.2739C744.65 58.5362 715.891 58.5362 698.154 76.2738C680.416 94.0115 680.416 122.77 698.154 140.507C715.891 158.245 744.65 158.245 762.387 140.507Z" fill="url(#paint19_linear_51_115)"></path>
  <path d="M777.391 159.984C774.121 152.574 770.131 144.894 765.491 137.074C765.421 137.154 765.361 137.244 765.281 137.334C769.891 145.114 773.861 152.744 777.101 160.114C788.861 186.794 789.751 206.824 779.611 216.524C775.261 220.674 769.161 222.654 761.701 222.654C733.191 222.654 685.051 193.784 641.151 147.874C614.311 119.804 593.041 89.6238 581.271 62.8938C569.511 36.2138 568.621 16.1838 578.761 6.48381C583.071 2.36381 589.151 0.323808 596.721 0.323808C606.981 0.323808 619.971 4.07381 635.001 11.5138C646.801 17.3538 659.211 25.1538 671.741 34.5338C671.931 34.5438 672.121 34.5638 672.311 34.5838C659.631 25.0638 647.071 17.1538 635.131 11.2438C608.881 -1.75619 588.781 -3.52619 578.541 6.26381C568.301 16.0538 569.171 36.2038 580.981 63.0138C592.771 89.7738 614.061 119.984 640.921 148.084C667.781 176.174 697.011 198.794 723.221 211.774C738.291 219.234 751.331 222.994 761.641 222.994C769.291 222.994 775.451 220.924 779.811 216.754C790.051 206.964 789.181 186.814 777.371 160.004L777.391 159.984Z" fill="#DC4F13"></path>
  <path d="M779.831 6.24379C769.591 -3.54621 749.501 -1.77621 723.241 11.2238C697.031 24.2038 667.811 46.8138 640.941 74.9138C614.081 103.004 592.791 133.214 581.001 159.984C569.191 186.794 568.321 206.944 578.561 216.734C582.921 220.904 589.081 222.974 596.731 222.974C607.041 222.974 620.081 219.214 635.151 211.754C659.551 199.674 686.561 179.234 711.841 153.804H711.411C669.131 196.244 623.941 222.624 596.681 222.634C589.231 222.634 583.121 220.664 578.771 216.504C568.631 206.814 569.521 186.774 581.281 160.094C593.061 133.364 614.321 103.184 641.161 75.1138C668.001 47.0438 697.201 24.4438 723.371 11.4838C738.401 4.04379 751.391 0.293788 761.651 0.293788C769.221 0.293788 775.301 2.34379 779.611 6.45379C789.751 16.1438 788.861 36.1838 777.101 62.8638C774.351 69.1138 771.071 75.5438 767.331 82.0938C767.391 82.1838 767.461 82.2738 767.531 82.3638C771.301 75.7638 774.611 69.2738 777.381 62.9838C789.191 36.1738 790.061 16.0238 779.821 6.23379L779.831 6.24379Z" fill="#DC4F13"></path>
  <path d="M580.891 28.0037C580.891 32.3637 577.681 35.9837 573.491 36.6137C573.061 36.6837 572.631 36.7137 572.181 36.7137C567.371 36.7137 563.481 32.8137 563.481 28.0037C563.481 23.7137 566.591 20.1437 570.671 19.4337C571.161 19.3437 571.661 19.3037 572.181 19.3037C576.991 19.3037 580.891 23.2037 580.891 28.0037Z" fill="url(#paint20_linear_51_115)"></path>
  <path opacity="0.2" d="M580.891 28.0037C580.891 32.3637 577.681 35.9837 573.491 36.6137C578.731 29.4537 573.611 22.5037 570.671 19.4337C571.161 19.3437 571.661 19.3037 572.181 19.3037C576.991 19.3037 580.891 23.2037 580.891 28.0037Z" fill="url(#paint21_linear_51_115)"></path>
  <path d="M786.921 171.364C786.921 174.444 784.651 177.004 781.691 177.444C781.391 177.494 781.081 177.514 780.771 177.514C777.371 177.514 774.621 174.754 774.621 171.364C774.621 168.334 776.811 165.814 779.701 165.304C780.051 165.244 780.401 165.214 780.771 165.214C784.171 165.214 786.921 167.964 786.921 171.364Z" fill="url(#paint22_linear_51_115)"></path>
  <path opacity="0.2" d="M786.921 171.364C786.921 174.444 784.651 177.004 781.691 177.444C785.391 172.384 781.781 167.474 779.701 165.304C780.051 165.244 780.401 165.214 780.771 165.214C784.171 165.214 786.921 167.964 786.921 171.364Z" fill="url(#paint23_linear_51_115)"></path>
  <path d="M671.151 51.5939C671.151 54.8939 668.721 57.6339 665.551 58.1039C665.231 58.1539 664.901 58.1739 664.561 58.1739C660.921 58.1739 657.971 55.2239 657.971 51.5839C657.971 48.3339 660.321 45.6339 663.411 45.1039C663.781 45.0339 664.161 45.0039 664.551 45.0039C668.191 45.0039 671.141 47.9539 671.141 51.5939H671.151Z" fill="url(#paint24_linear_51_115)"></path>
  <path opacity="0.2" d="M671.151 51.5939C671.151 54.8939 668.721 57.6339 665.551 58.1039C669.521 52.6939 665.641 47.4339 663.421 45.1039C663.791 45.0339 664.171 45.0039 664.561 45.0039C668.201 45.0039 671.151 47.9539 671.151 51.5939Z" fill="url(#paint25_linear_51_115)"></path>
  <path d="M593.911 218.284C593.911 224.104 589.621 228.924 584.041 229.764C583.471 229.854 582.891 229.894 582.301 229.894C575.891 229.894 570.691 224.694 570.691 218.284C570.691 212.564 574.831 207.804 580.281 206.854C580.931 206.734 581.611 206.674 582.291 206.674C588.701 206.674 593.901 211.874 593.901 218.284H593.911Z" fill="url(#paint26_linear_51_115)"></path>
  <path opacity="0.2" d="M593.911 218.284C593.911 224.104 589.621 228.924 584.041 229.764C591.031 220.224 584.201 210.954 580.291 206.854C580.941 206.734 581.621 206.674 582.301 206.674C588.711 206.674 593.911 211.874 593.911 218.284Z" fill="url(#paint27_linear_51_115)"></path>
  <path d="M699.601 169.324C699.601 171.384 698.081 173.104 696.101 173.394C695.901 173.424 695.691 173.444 695.481 173.444C693.211 173.444 691.361 171.604 691.361 169.324C691.361 167.294 692.831 165.604 694.761 165.274C694.991 165.234 695.231 165.214 695.471 165.214C697.741 165.214 699.591 167.054 699.591 169.334L699.601 169.324Z" fill="url(#paint28_linear_51_115)"></path>
  <path opacity="0.2" d="M699.601 169.324C699.601 171.384 698.081 173.104 696.101 173.394C698.581 170.014 696.161 166.724 694.771 165.264C695.001 165.224 695.241 165.204 695.481 165.204C697.751 165.204 699.601 167.044 699.601 169.324Z" fill="url(#paint29_linear_51_115)"></path>
  <path d="M790.841 23.6237C790.841 25.8037 789.231 27.6137 787.141 27.9237C786.931 27.9537 786.711 27.9737 786.491 27.9737C784.091 27.9737 782.141 26.0237 782.141 23.6237C782.141 21.4737 783.691 19.6937 785.741 19.3337C785.981 19.2837 786.241 19.2637 786.491 19.2637C788.891 19.2637 790.841 21.2137 790.841 23.6137V23.6237Z" fill="url(#paint30_linear_51_115)"></path>
  <path opacity="0.2" d="M790.841 23.6237C790.841 25.8037 789.231 27.6137 787.141 27.9237C789.761 24.3437 787.201 20.8737 785.731 19.3337C785.971 19.2837 786.231 19.2637 786.481 19.2637C788.881 19.2637 790.831 21.2137 790.831 23.6137L790.841 23.6237Z" fill="url(#paint31_linear_51_115)"></path>
  <path d="M91.4507 289.334L117.671 303.654L144.931 290.024L118.191 275.524L91.4507 289.334Z" fill="url(#paint32_linear_51_115)"></path>
  <path d="M91.4507 289.334V320.814L118.191 335.184L117.671 303.654L91.4507 289.334Z" fill="url(#paint33_linear_51_115)"></path>
  <path d="M117.671 303.654L118.191 335.184L144.931 320.174V290.024L117.671 303.654Z" fill="url(#paint34_linear_51_115)"></path>
  <path opacity="0.5" d="M91.4507 320.864L117.671 335.184L144.931 320.174L118.191 307.054L91.4507 320.864Z" fill="url(#paint35_linear_51_115)"></path>
  <path d="M372.711 66.9638L389.531 76.1438L407.011 67.4038L389.861 58.1138L372.711 66.9638Z" fill="url(#paint36_linear_51_115)"></path>
  <path d="M372.711 66.9639V87.1539L389.861 96.3639L389.531 76.1439L372.711 66.9639Z" fill="url(#paint37_linear_51_115)"></path>
  <path d="M389.531 76.1438L389.861 96.3638L407.011 86.7338V67.4038L389.531 76.1438Z" fill="url(#paint38_linear_51_115)"></path>
  <path opacity="0.5" d="M372.711 87.1837L389.531 96.3637L407.011 86.7337L389.861 78.3237L372.711 87.1837Z" fill="url(#paint39_linear_51_115)"></path>
  <path d="M640.821 449.934L657.641 459.114L675.121 450.374L657.971 441.084L640.821 449.934Z" fill="url(#paint40_linear_51_115)"></path>
  <path d="M640.821 449.934V470.124L657.971 479.334L657.641 459.114L640.821 449.934Z" fill="url(#paint41_linear_51_115)"></path>
  <path d="M657.641 459.114L657.971 479.334L675.121 469.714V450.374L657.641 459.114Z" fill="url(#paint42_linear_51_115)"></path>
  <path opacity="0.5" d="M640.821 470.154L657.641 479.334L675.121 469.714L657.971 461.304L640.821 470.154Z" fill="url(#paint43_linear_51_115)"></path>
  <path d="M169.521 112.784H86.8911V212.934H169.521V112.784Z" fill="url(#paint44_linear_51_115)"></path>
  <path d="M117.281 112.784H86.8911V212.934H117.281V112.784Z" fill="url(#paint45_linear_51_115)"></path>
  <path d="M142.151 10.0437L82.4609 118.774L206.471 110.244L142.151 10.0437Z" fill="url(#paint46_linear_51_115)"></path>
  <path d="M54.9209 112.204L173.251 101.544L206.471 110.244L82.4609 118.774L54.9209 112.204Z" fill="url(#paint47_linear_51_115)"></path>
  <path d="M142.151 10.0437H113.021L54.9209 112.204L82.4609 118.774" fill="url(#paint48_linear_51_115)"></path>
  <path opacity="0.5" d="M142.151 10.0437L129.451 33.2237L174.461 101.544L207.681 110.244L142.151 10.0437Z" fill="url(#paint49_linear_51_115)"></path>
  <path d="M777.431 393.694H726.171V455.814H777.431V393.694Z" fill="url(#paint50_linear_51_115)"></path>
  <path d="M745.021 393.694H726.171V455.814H745.021V393.694Z" fill="url(#paint51_linear_51_115)"></path>
  <path d="M760.451 329.964L723.421 397.404L800.341 392.114L760.451 329.964Z" fill="url(#paint52_linear_51_115)"></path>
  <path d="M706.331 393.334L779.731 386.714L800.341 392.114L723.421 397.404L706.331 393.334Z" fill="url(#paint53_linear_51_115)"></path>
  <path d="M760.451 329.964H742.371L706.331 393.334L723.421 397.404" fill="url(#paint54_linear_51_115)"></path>
  <path opacity="0.5" d="M760.451 329.964L752.571 344.344L780.491 386.714L801.101 392.114L760.451 329.964Z" fill="url(#paint55_linear_51_115)"></path>
  <defs>
  <linearGradient id="paint0_linear_51_115" x1="190.381" y1="638.234" x2="671.611" y2="622.894" gradientUnits="userSpaceOnUse">
  <stop stop-color="#E8E4D8"></stop>
  <stop offset="1" stop-color="#F5F5F5"></stop>
  </linearGradient>
  <linearGradient id="paint1_linear_51_115" x1="190.261" y1="614.894" x2="670.951" y2="599.564" gradientUnits="userSpaceOnUse">
  <stop stop-color="#F5F5F5"></stop>
  <stop offset="1" stop-color="#E8E4D8"></stop>
  </linearGradient>
  <linearGradient id="paint2_linear_51_115" x1="563.82" y1="387.155" x2="556.623" y2="270.609" gradientUnits="userSpaceOnUse">
  <stop stop-color="#E8E4D8"></stop>
  <stop offset="1" stop-color="#F5F5F5"></stop>
  </linearGradient>
  <linearGradient id="paint3_linear_51_115" x1="542.788" y1="282.545" x2="573.699" y2="363.938" gradientUnits="userSpaceOnUse">
  <stop stop-color="#E8E4D8"></stop>
  <stop offset="1" stop-color="#F5F5F5"></stop>
  </linearGradient>
  <linearGradient id="paint4_linear_51_115" x1="252.479" y1="247.718" x2="307.04" y2="162.131" gradientUnits="userSpaceOnUse">
  <stop stop-color="#E8E4D8"></stop>
  <stop offset="1" stop-color="#F5F5F5"></stop>
  </linearGradient>
  <linearGradient id="paint5_linear_51_115" x1="291.145" y1="163.354" x2="271.242" y2="236.364" gradientUnits="userSpaceOnUse">
  <stop stop-color="#E8E4D8"></stop>
  <stop offset="1" stop-color="#F5F5F5"></stop>
  </linearGradient>
  <linearGradient id="paint6_linear_51_115" x1="316.17" y1="462.834" x2="504.17" y2="456.834" gradientUnits="userSpaceOnUse">
  <stop stop-color="#DC4F13"></stop>
  <stop offset="1" stop-color="#E8EDFC"></stop>
  </linearGradient>
  <linearGradient id="paint7_linear_51_115" x1="318.08" y1="587.894" x2="503.161" y2="581.994" gradientUnits="userSpaceOnUse">
  <stop stop-color="#F5F5F5"></stop>
  <stop offset="1" stop-color="#E8E4D8"></stop>
  </linearGradient>
  <linearGradient id="paint8_linear_51_115" x1="317.88" y1="548.024" x2="502" y2="542.154" gradientUnits="userSpaceOnUse">
  <stop stop-color="#E8E4D8"></stop>
  <stop offset="1" stop-color="#F5F5F5"></stop>
  </linearGradient>
  <linearGradient id="paint9_linear_51_115" x1="329.391" y1="547.664" x2="487.521" y2="542.614" gradientUnits="userSpaceOnUse">
  <stop stop-color="#DC4F13"></stop>
  <stop offset="0.0839996" stop-color="#DD5C24" stop-opacity="0.48"></stop>
  <stop offset="1" stop-color="#E8E4D8"></stop>
  </linearGradient>
  <linearGradient id="paint10_linear_51_115" x1="317.88" y1="378.754" x2="502" y2="372.884" gradientUnits="userSpaceOnUse">
  <stop stop-color="#DC4F13" stop-opacity="0.82"></stop>
  <stop offset="1" stop-color="#F28208" stop-opacity="0.19"></stop>
  </linearGradient>
  <linearGradient id="paint11_linear_51_115" x1="318.08" y1="307.954" x2="503.16" y2="302.044" gradientUnits="userSpaceOnUse">
  <stop stop-color="#F5F5F5"></stop>
  <stop offset="1" stop-color="#DCE8FC"></stop>
  <stop offset="1" stop-color="#E8E4D8"></stop>
  </linearGradient>
  <linearGradient id="paint12_linear_51_115" x1="317.88" y1="268.084" x2="502" y2="262.204" gradientUnits="userSpaceOnUse">
  <stop stop-color="#E8E4D8"></stop>
  <stop offset="1" stop-color="#F5F5F5"></stop>
  </linearGradient>
  <linearGradient id="paint13_linear_51_115" x1="227.101" y1="608.797" x2="282.609" y2="475.855" gradientUnits="userSpaceOnUse">
  <stop stop-color="#E8E4D8"></stop>
  <stop offset="1" stop-color="#F5F5F5"></stop>
  </linearGradient>
  <linearGradient id="paint14_linear_51_115" x1="260.752" y1="481.498" x2="250.65" y2="588.448" gradientUnits="userSpaceOnUse">
  <stop stop-color="#E8E4D8"></stop>
  <stop offset="1" stop-color="#F5F5F5"></stop>
  </linearGradient>
  <linearGradient id="paint15_linear_51_115" x1="609.732" y1="92.3295" x2="725.572" y2="92.3295" gradientUnits="userSpaceOnUse">
  <stop stop-color="#DC4F13"></stop>
  <stop offset="1" stop-color="#FA8452"></stop>
  <stop offset="1" stop-color="#E8E4D8"></stop>
  </linearGradient>
  <linearGradient id="paint16_linear_51_115" x1="571.641" y1="108.394" x2="775.691" y2="108.394" gradientUnits="userSpaceOnUse">
  <stop stop-color="#DC4F13"></stop>
  <stop offset="1" stop-color="#FA8453"></stop>
  <stop offset="1" stop-color="#E8E4D8"></stop>
  </linearGradient>
  <linearGradient id="paint17_linear_51_115" x1="616.519" y1="55.1207" x2="694.799" y2="112.111" gradientUnits="userSpaceOnUse">
  <stop stop-color="#DC4F13"></stop>
  <stop offset="1" stop-color="#E8E4D8"></stop>
  </linearGradient>
  <linearGradient id="paint18_linear_51_115" x1="575.691" y1="105.584" x2="628.431" y2="140.114" gradientUnits="userSpaceOnUse">
  <stop stop-color="#DC4F13"></stop>
  <stop offset="1" stop-color="#E8E4D8"></stop>
  </linearGradient>
  <linearGradient id="paint19_linear_51_115" x1="694.195" y1="75.5753" x2="751.895" y2="128.075" gradientUnits="userSpaceOnUse">
  <stop stop-color="#DC4F13"></stop>
  <stop offset="1" stop-color="#E8E4D8" stop-opacity="0.55"></stop>
  </linearGradient>
  <linearGradient id="paint20_linear_51_115" x1="563.481" y1="28.0037" x2="580.891" y2="28.0037" gradientUnits="userSpaceOnUse">
  <stop stop-color="#DC4F13"></stop>
  <stop offset="1" stop-color="#E8E4D8"></stop>
  </linearGradient>
  <linearGradient id="paint21_linear_51_115" x1="570.681" y1="27.9537" x2="580.891" y2="27.9537" gradientUnits="userSpaceOnUse">
  <stop stop-color="#DC4F13"></stop>
  <stop offset="1" stop-color="#E8E4D8"></stop>
  </linearGradient>
  <linearGradient id="paint22_linear_51_115" x1="774.621" y1="171.364" x2="786.921" y2="171.364" gradientUnits="userSpaceOnUse">
  <stop stop-color="#DC4F13"></stop>
  <stop offset="1" stop-color="#E8E4D8"></stop>
  </linearGradient>
  <linearGradient id="paint23_linear_51_115" x1="779.701" y1="171.324" x2="786.921" y2="171.324" gradientUnits="userSpaceOnUse">
  <stop stop-color="#DC4F13"></stop>
  <stop offset="1" stop-color="#E8E4D8"></stop>
  </linearGradient>
  <linearGradient id="paint24_linear_51_115" x1="657.971" y1="51.5939" x2="671.151" y2="51.5939" gradientUnits="userSpaceOnUse">
  <stop stop-color="#DC4F13"></stop>
  <stop offset="1" stop-color="#E8E4D8"></stop>
  </linearGradient>
  <linearGradient id="paint25_linear_51_115" x1="663.411" y1="51.5639" x2="671.151" y2="51.5639" gradientUnits="userSpaceOnUse">
  <stop stop-color="#DC4F13"></stop>
  <stop offset="1" stop-color="#E8E4D8"></stop>
  </linearGradient>
  <linearGradient id="paint26_linear_51_115" x1="570.691" y1="218.294" x2="593.911" y2="218.294" gradientUnits="userSpaceOnUse">
  <stop stop-color="#DC4F13"></stop>
  <stop offset="1" stop-color="#E8E4D8"></stop>
  </linearGradient>
  <linearGradient id="paint27_linear_51_115" x1="580.281" y1="218.224" x2="593.911" y2="218.224" gradientUnits="userSpaceOnUse">
  <stop stop-color="#DC4F13"></stop>
  <stop offset="1" stop-color="#E8E4D8"></stop>
  </linearGradient>
  <linearGradient id="paint28_linear_51_115" x1="691.361" y1="169.324" x2="699.601" y2="169.324" gradientUnits="userSpaceOnUse">
  <stop stop-color="#DC4F13"></stop>
  <stop offset="1" stop-color="#E8EDFC"></stop>
  <stop offset="1" stop-color="#E8E4D8"></stop>
  </linearGradient>
  <linearGradient id="paint29_linear_51_115" x1="694.771" y1="169.304" x2="699.601" y2="169.304" gradientUnits="userSpaceOnUse">
  <stop stop-color="#DC4F13"></stop>
  <stop offset="1" stop-color="#E8E4D8"></stop>
  </linearGradient>
  <linearGradient id="paint30_linear_51_115" x1="782.141" y1="23.6237" x2="790.841" y2="23.6237" gradientUnits="userSpaceOnUse">
  <stop stop-color="#DC4F13"></stop>
  <stop offset="1" stop-color="#E8E4D8"></stop>
  </linearGradient>
  <linearGradient id="paint31_linear_51_115" x1="785.731" y1="23.6037" x2="790.841" y2="23.6037" gradientUnits="userSpaceOnUse">
  <stop stop-color="#DC4F13"></stop>
  <stop offset="1" stop-color="#E8E4D8"></stop>
  </linearGradient>
  <linearGradient id="paint32_linear_51_115" x1="100.161" y1="290.154" x2="140.841" y2="288.854" gradientUnits="userSpaceOnUse">
  <stop stop-color="#DC4F13"></stop>
  <stop offset="1" stop-color="#E8E4D8"></stop>
  </linearGradient>
  <linearGradient id="paint33_linear_51_115" x1="95.5307" y1="312.554" x2="115.911" y2="311.904" gradientUnits="userSpaceOnUse">
  <stop stop-color="#DC4F13"></stop>
  <stop offset="1" stop-color="#E8E4D8"></stop>
  </linearGradient>
  <linearGradient id="paint34_linear_51_115" x1="122.061" y1="312.904" x2="143.501" y2="312.224" gradientUnits="userSpaceOnUse">
  <stop stop-color="#DC4F13"></stop>
  <stop offset="1" stop-color="#E8E4D8"></stop>
  </linearGradient>
  <linearGradient id="paint35_linear_51_115" x1="100.171" y1="321.684" x2="140.881" y2="320.384" gradientUnits="userSpaceOnUse">
  <stop stop-color="#DC4F13"></stop>
  <stop offset="1" stop-color="#E8E4D8"></stop>
  </linearGradient>
  <linearGradient id="paint36_linear_51_115" x1="378.301" y1="67.4938" x2="404.391" y2="66.6538" gradientUnits="userSpaceOnUse">
  <stop stop-color="#DC4F13"></stop>
  <stop offset="1" stop-color="#E8E4D8"></stop>
  </linearGradient>
  <linearGradient id="paint37_linear_51_115" x1="375.341" y1="81.8539" x2="388.401" y2="81.4339" gradientUnits="userSpaceOnUse">
  <stop stop-color="#E38B64"></stop>
  <stop offset="1" stop-color="#E8E4D8"></stop>
  </linearGradient>
  <linearGradient id="paint38_linear_51_115" x1="392.341" y1="82.0738" x2="406.101" y2="81.6338" gradientUnits="userSpaceOnUse">
  <stop stop-color="#DC4F13"></stop>
  <stop offset="1" stop-color="#E8E4D8"></stop>
  </linearGradient>
  <linearGradient id="paint39_linear_51_115" x1="378.311" y1="87.7137" x2="404.421" y2="86.8737" gradientUnits="userSpaceOnUse">
  <stop stop-color="#DC4F13"></stop>
  <stop offset="1" stop-color="#F9814E"></stop>
  </linearGradient>
  <linearGradient id="paint40_linear_51_115" x1="646.411" y1="450.464" x2="672.501" y2="449.634" gradientUnits="userSpaceOnUse">
  <stop stop-color="#DC4F13"></stop>
  <stop offset="1" stop-color="#E8E4D8"></stop>
  </linearGradient>
  <linearGradient id="paint41_linear_51_115" x1="643.441" y1="464.824" x2="656.511" y2="464.404" gradientUnits="userSpaceOnUse">
  <stop stop-color="#DC4F13"></stop>
  <stop offset="1" stop-color="#E8E4D8"></stop>
  </linearGradient>
  <linearGradient id="paint42_linear_51_115" x1="660.451" y1="465.054" x2="674.201" y2="464.614" gradientUnits="userSpaceOnUse">
  <stop stop-color="#DC4F13"></stop>
  <stop offset="1" stop-color="#E8E4D8"></stop>
  </linearGradient>
  <linearGradient id="paint43_linear_51_115" x1="646.411" y1="470.684" x2="672.521" y2="469.854" gradientUnits="userSpaceOnUse">
  <stop stop-color="#DC4F13"></stop>
  <stop offset="1" stop-color="#E8E4D8"></stop>
  </linearGradient>
  <linearGradient id="paint44_linear_51_115" x1="128.201" y1="212.944" x2="128.201" y2="112.784" gradientUnits="userSpaceOnUse">
  <stop stop-color="#E8E4D8" stop-opacity="0.23"></stop>
  <stop offset="1" stop-color="#DC4F13"></stop>
  </linearGradient>
  <linearGradient id="paint45_linear_51_115" x1="102.091" y1="212.944" x2="102.091" y2="112.784" gradientUnits="userSpaceOnUse">
  <stop stop-color="#E8E4D8" stop-opacity="0.44"></stop>
  <stop offset="1" stop-color="#E16530"></stop>
  </linearGradient>
  <linearGradient id="paint46_linear_51_115" x1="82.4609" y1="64.4037" x2="206.471" y2="64.4037" gradientUnits="userSpaceOnUse">
  <stop stop-color="#DC4F13"></stop>
  <stop offset="1" stop-color="#E8E4D8" stop-opacity="0.56"></stop>
  </linearGradient>
  <linearGradient id="paint47_linear_51_115" x1="54.9209" y1="110.154" x2="206.471" y2="110.154" gradientUnits="userSpaceOnUse">
  <stop stop-color="#E69F7F"></stop>
  <stop offset="1" stop-color="#E8E4D8"></stop>
  </linearGradient>
  <linearGradient id="paint48_linear_51_115" x1="54.9209" y1="64.4037" x2="142.151" y2="64.4037" gradientUnits="userSpaceOnUse">
  <stop stop-color="#F9814E"></stop>
  <stop offset="1" stop-color="#FA8654"></stop>
  </linearGradient>
  <linearGradient id="paint49_linear_51_115" x1="129.451" y1="60.1437" x2="207.681" y2="60.1437" gradientUnits="userSpaceOnUse">
  <stop stop-color="#E8E4D8"></stop>
  <stop offset="1" stop-color="#DE5920"></stop>
  </linearGradient>
  <linearGradient id="paint50_linear_51_115" x1="751.791" y1="455.824" x2="751.791" y2="393.694" gradientUnits="userSpaceOnUse">
  <stop stop-color="#E8E4D8" stop-opacity="0.52"></stop>
  <stop offset="1" stop-color="#DC4F13"></stop>
  </linearGradient>
  <linearGradient id="paint51_linear_51_115" x1="735.591" y1="455.824" x2="735.591" y2="393.694" gradientUnits="userSpaceOnUse">
  <stop stop-color="#DC4F13"></stop>
  <stop offset="1" stop-color="#E8E4D8"></stop>
  </linearGradient>
  <linearGradient id="paint52_linear_51_115" x1="723.421" y1="363.684" x2="800.341" y2="363.684" gradientUnits="userSpaceOnUse">
  <stop stop-color="#DC4F13"></stop>
  <stop offset="1" stop-color="#E8E4D8"></stop>
  </linearGradient>
  <linearGradient id="paint53_linear_51_115" x1="706.331" y1="392.064" x2="800.341" y2="392.064" gradientUnits="userSpaceOnUse">
  <stop stop-color="#DC4F13"></stop>
  <stop offset="1" stop-color="#E8E4D8"></stop>
  </linearGradient>
  <linearGradient id="paint54_linear_51_115" x1="706.331" y1="363.684" x2="760.451" y2="363.684" gradientUnits="userSpaceOnUse">
  <stop stop-color="#DC4F13"></stop>
  <stop offset="1" stop-color="#F9814E"></stop>
  <stop offset="1" stop-color="#E8E4D8"></stop>
  </linearGradient>
  <linearGradient id="paint55_linear_51_115" x1="752.571" y1="361.044" x2="801.101" y2="361.044" gradientUnits="userSpaceOnUse">
  <stop stop-color="#E8E4D8"></stop>
  <stop offset="1" stop-color="#DC4F13"></stop>
  </linearGradient>
  </defs>
  </svg>