<svg width="22" height="26" viewBox="0 0 22 26" fill="none" xmlns="http://www.w3.org/2000/svg">
<g id="Group 48095488">
<path id="Vector" d="M16.0302 4.30108L16.205 4.39984C19.3056 6.15238 21.2228 9.4383 21.2228 13C21.2228 16.5616 19.3056 19.8475 16.205 21.6001L16.0302 21.6989C12.9088 23.4631 9.09121 23.4631 5.96978 21.6989L5.58737 22.3754L5.96978 21.6989L5.79504 21.6001C2.69439 19.8476 0.777174 16.5616 0.777174 13C0.777174 9.4383 2.69439 6.15238 5.79505 4.39984L5.96979 4.30108C9.09121 2.53679 12.9088 2.53679 16.0302 4.30108Z" stroke="#1BBF36" stroke-width="1.55435"/>
<g id="vuesax/linear/crown">
<g id="crown">
<path id="Vector_2" d="M13.3576 17H8.67859C8.46953 17 8.23558 16.8447 8.16589 16.6564L6.10515 11.2054C5.81147 10.4239 6.15493 10.1839 6.86175 10.664L8.80303 11.9773C9.12657 12.1892 9.49492 12.0809 9.63429 11.7373L10.5104 9.52957C10.7891 8.82348 11.252 8.82348 11.5308 9.52957L12.4068 11.7373C12.5462 12.0809 12.9145 12.1892 13.2331 11.9773L15.0549 10.7487C15.8314 10.2215 16.2048 10.4899 15.8862 11.3419L13.8752 16.6658C13.8006 16.8447 13.5666 17 13.3576 17Z" stroke="#1BBF36" stroke-width="1.5" stroke-linecap="round" stroke-linejoin="round"/>
</g>
</g>
</g>
</svg>
