<svg width="24" height="24" viewBox="0 0 24 24" fill="none" xmlns="http://www.w3.org/2000/svg">
<path d="M21.75 7.74097V16.259C21.75 17.0665 21.3174 17.812 20.6163 18.2126L13.1163 22.4983C12.4246 22.8936 11.5754 22.8936 10.8837 22.4983L3.38369 18.2126C2.68264 17.812 2.25 17.0665 2.25 16.259V7.74097C2.25 6.93354 2.68264 6.18802 3.38369 5.78742L10.8837 1.50171C11.5754 1.10644 12.4246 1.10644 13.1163 1.50171L20.6163 5.78742C21.3174 6.18802 21.75 6.93354 21.75 7.74097Z" stroke="#158FE8" stroke-width="1.5"/>
<path d="M12.6813 7.72209L13.5685 9.49644C13.6895 9.74344 14.0121 9.98035 14.2843 10.0257L15.8923 10.2929C16.9206 10.4643 17.1626 11.2103 16.4216 11.9462L15.1715 13.1964C14.9597 13.4081 14.8438 13.8164 14.9093 14.1087L15.2672 15.6562C15.5495 16.8812 14.8993 17.355 13.8155 16.7148L12.3083 15.8226C12.0361 15.6613 11.5875 15.6613 11.3102 15.8226L9.80304 16.7148C8.72432 17.355 8.06902 16.8761 8.3513 15.6562L8.7092 14.1087C8.77473 13.8164 8.65879 13.4081 8.44708 13.1964L7.19697 11.9462C6.46102 11.2103 6.69793 10.4643 7.72625 10.2929L9.33425 10.0257C9.60141 9.98035 9.92402 9.74344 10.045 9.49644L10.9322 7.72209C11.4161 6.7593 12.2024 6.7593 12.6813 7.72209Z" stroke="#158FE8" stroke-width="1.5" stroke-linecap="round" stroke-linejoin="round"/>
</svg>
