<svg xmlns="http://www.w3.org/2000/svg" width="17" height="17" viewBox="0 0 17 17" fill="none">
  <path d="M14.1417 6.03579C14.158 5.91254 14.1665 5.78929 14.1665 5.66675C14.1665 3.98162 12.6485 2.62941 10.9641 2.85821C10.4733 1.98483 9.53825 1.41675 8.49984 1.41675C7.46142 1.41675 6.52642 1.98483 6.03555 2.85821C4.34759 2.62941 2.83317 3.98162 2.83317 5.66675C2.83317 5.78929 2.84167 5.91254 2.85796 6.03579C1.98459 6.52737 1.4165 7.46237 1.4165 8.50008C1.4165 9.53779 1.98459 10.4728 2.85796 10.9644C2.84162 11.0867 2.83334 11.21 2.83317 11.3334C2.83317 13.0185 4.34759 14.3672 6.03555 14.142C6.52642 15.0153 7.46142 15.5834 8.49984 15.5834C9.53825 15.5834 10.4733 15.0153 10.9641 14.142C12.6485 14.3672 14.1665 13.0185 14.1665 11.3334C14.1665 11.2109 14.158 11.0876 14.1417 10.9644C15.0151 10.4728 15.5832 9.53779 15.5832 8.50008C15.5832 7.46237 15.0151 6.52737 14.1417 6.03579ZM7.75963 11.6281L5.16217 8.99733L6.17084 8.00283L7.76955 9.62208L10.8345 6.5805L11.8318 7.58633L7.75963 11.6281Z" fill="#0A75C2"/>
</svg>