<svg width="20" height="20" viewBox="0 0 20 20" fill="none" xmlns="http://www.w3.org/2000/svg">
<path d="M9.3525 2.02647C9.58883 1.89517 9.707 1.82952 9.83208 1.80378C9.94292 1.78101 10.0571 1.78101 10.1679 1.80378C10.293 1.82952 10.4112 1.89517 10.6475 2.02647L16.8142 5.4524C17.0638 5.59107 17.1886 5.6604 17.2795 5.75902C17.3598 5.84626 17.4207 5.94966 17.4579 6.06231C17.5 6.18963 17.5 6.33241 17.5 6.61794V13.3822C17.5 13.6677 17.5 13.8105 17.4579 13.9378C17.4207 14.0505 17.3598 14.1539 17.2795 14.2411C17.1886 14.3397 17.0638 14.4091 16.8142 14.5477L10.6475 17.9737C10.4112 18.105 10.293 18.1706 10.1679 18.1963C10.0571 18.2192 9.94292 18.2192 9.83208 18.1963C9.707 18.1706 9.58883 18.105 9.3525 17.9737L3.18581 14.5477C2.93621 14.4091 2.81141 14.3397 2.72053 14.2411C2.64013 14.1539 2.57929 14.0505 2.54207 13.9378C2.5 13.8105 2.5 13.6677 2.5 13.3822V6.61794C2.5 6.33241 2.5 6.18963 2.54207 6.06231C2.57929 5.94966 2.64013 5.84626 2.72053 5.75902C2.81141 5.6604 2.93621 5.59107 3.18581 5.4524L9.3525 2.02647Z" stroke="#158FE8" strokeWidth="2" stroke-linecap="round" stroke-linejoin="round"/>
<path d="M7 10.5L9 12.5L13.5 8" stroke="#158FE8" strokeWidth="2" stroke-linecap="round" stroke-linejoin="round"/>
</svg>
