<svg width="18" height="18" viewBox="0 0 18 18" fill="none" xmlns="http://www.w3.org/2000/svg">
<path d="M17.3333 5.66667C17.3414 5.60861 17.3414 5.54972 17.3333 5.49167V5.425C17.319 5.37849 17.2994 5.33376 17.275 5.29167C17.2642 5.26767 17.2502 5.24524 17.2333 5.225L17.15 5.11667L17.0833 5.06667L16.9833 4.99167L9.48333 0.825C9.35665 0.751859 9.21294 0.713354 9.06666 0.713354C8.92038 0.713354 8.77668 0.751859 8.65 0.825L1.15 4.99167L1.075 5.05L0.983331 5.11667C0.959121 5.14391 0.939428 5.17486 0.924997 5.20833C0.898335 5.23225 0.875809 5.26041 0.858331 5.29167C0.836693 5.32823 0.819887 5.36745 0.808331 5.40833C0.803669 5.43592 0.803669 5.46408 0.808331 5.49167C0.751035 5.54107 0.703055 5.60034 0.666664 5.66667V12.3333C0.667746 12.4818 0.708487 12.6273 0.784674 12.7548C0.86086 12.8823 0.969722 12.9871 1.1 13.0583L8.6 17.225C8.63443 17.2451 8.67071 17.2618 8.70833 17.275H8.79166C8.92857 17.3082 9.07143 17.3082 9.20833 17.275H9.29167L9.40833 17.225L16.9083 13.0583C17.0371 12.986 17.1442 12.8807 17.2189 12.7533C17.2936 12.6259 17.3331 12.481 17.3333 12.3333V5.66667ZM9 8.89167L3.21666 5.66667L5.51666 4.4L11.2083 7.65L9 8.89167ZM9 2.45833L14.7833 5.66667L12.9167 6.70833L7.225 3.45L9 2.45833ZM2.33333 7.08333L8.16666 10.35V15.0833L2.33333 11.8417V7.08333ZM9.83333 15.0833V10.35L12.3333 8.95V11.5L14 10.6667V8.01667L15.6667 7.09167V11.8417L9.83333 15.0833Z" fill="#96B0BD"/>
</svg>
