<svg width="16" height="14" viewBox="0 0 16 14" fill="none" xmlns="http://www.w3.org/2000/svg">
<path d="M7.5218 1.30221C7.6754 0.99092 7.75227 0.835273 7.85653 0.78554C7.94727 0.742273 8.05273 0.742273 8.14347 0.78554C8.2478 0.835273 8.3246 0.99092 8.47827 1.30221L9.93607 4.25552C9.9814 4.34742 10.0041 4.39337 10.0372 4.42905C10.0666 4.46064 10.1018 4.48623 10.1409 4.50441C10.1851 4.52495 10.2357 4.53236 10.3371 4.54718L13.598 5.02381C13.9414 5.07399 14.1131 5.09909 14.1925 5.18296C14.2617 5.25593 14.2941 5.3562 14.281 5.45585C14.2659 5.57039 14.1416 5.69147 13.893 5.9336L11.5343 8.23093C11.4608 8.30253 11.424 8.3384 11.4003 8.381C11.3793 8.41867 11.3658 8.46013 11.3606 8.503C11.3547 8.5514 11.3634 8.602 11.3807 8.70313L11.9373 11.9481C11.996 12.2903 12.0253 12.4615 11.9702 12.563C11.9222 12.6513 11.8369 12.7133 11.7381 12.7317C11.6244 12.7527 11.4707 12.6719 11.1634 12.5103L8.24827 10.9772C8.1574 10.9295 8.112 10.9056 8.06413 10.8962C8.0218 10.8879 7.9782 10.8879 7.93587 10.8962C7.888 10.9056 7.8426 10.9295 7.7518 10.9772L4.83661 12.5103C4.52928 12.6719 4.37561 12.7527 4.26198 12.7317C4.16312 12.7133 4.07781 12.6513 4.02983 12.563C3.97467 12.4615 4.00402 12.2903 4.06271 11.9481L4.61926 8.70313C4.63661 8.602 4.64529 8.5514 4.63941 8.503C4.63421 8.46013 4.62074 8.41867 4.59974 8.381C4.57601 8.3384 4.53925 8.30253 4.46573 8.23093L2.10704 5.9336C1.85844 5.69147 1.73414 5.57039 1.71902 5.45585C1.70586 5.3562 1.73837 5.25593 1.8075 5.18296C1.88696 5.09909 2.05865 5.07399 2.40203 5.02381L5.66287 4.54718C5.76428 4.53236 5.81499 4.52495 5.85915 4.50441C5.89824 4.48623 5.93344 4.46064 5.96279 4.42905C5.99594 4.39337 6.01862 4.34742 6.06398 4.25552L7.5218 1.30221Z" fill="#DC4F13" stroke="#DC4F13" strokeWidth="1.5" stroke-linecap="round" stroke-linejoin="round"/>
</svg>
